<svg width="65" height="65" viewBox="0 0 65 65" fill="none" xmlns="http://www.w3.org/2000/svg">
<rect x="0.0449219" y="0.918945" width="64" height="64" rx="32" fill="#EFF3FF"/>
<path d="M44.4189 41.9004C43.7452 40.3046 42.7675 38.8551 41.5403 37.6326C40.3169 36.4065 38.8676 35.429 37.2725 34.754C37.2582 34.7469 37.2439 34.7433 37.2296 34.7362C39.4546 33.129 40.901 30.5112 40.901 27.5576C40.901 22.6647 36.9368 18.7004 32.0439 18.7004C27.151 18.7004 23.1868 22.6647 23.1868 27.5576C23.1868 30.5112 24.6332 33.129 26.8582 34.7397C26.8439 34.7469 26.8296 34.7504 26.8153 34.7576C25.2153 35.4326 23.7796 36.4004 22.5475 37.6362C21.3214 38.8596 20.3439 40.3089 19.6689 41.904C19.0058 43.4656 18.6481 45.1399 18.6153 46.8362C18.6144 46.8743 18.6211 46.9122 18.635 46.9477C18.6489 46.9832 18.6698 47.0155 18.6964 47.0428C18.7231 47.0701 18.7549 47.0918 18.79 47.1066C18.8252 47.1214 18.8629 47.129 18.901 47.129H21.0439C21.201 47.129 21.326 47.004 21.3296 46.8504C21.401 44.0933 22.5082 41.5112 24.4653 39.554C26.4903 37.529 29.1796 36.4147 32.0439 36.4147C34.9082 36.4147 37.5975 37.529 39.6225 39.554C41.5796 41.5112 42.6868 44.0933 42.7582 46.8504C42.7618 47.0076 42.8868 47.129 43.0439 47.129H45.1868C45.2249 47.129 45.2626 47.1214 45.2978 47.1066C45.3329 47.0918 45.3647 47.0701 45.3913 47.0428C45.418 47.0155 45.4389 46.9832 45.4528 46.9477C45.4667 46.9122 45.4734 46.8743 45.4725 46.8362C45.4368 45.129 45.0832 43.4683 44.4189 41.9004ZM32.0439 33.7004C30.4046 33.7004 28.8618 33.0612 27.701 31.9004C26.5403 30.7397 25.901 29.1969 25.901 27.5576C25.901 25.9183 26.5403 24.3754 27.701 23.2147C28.8618 22.054 30.4046 21.4147 32.0439 21.4147C33.6832 21.4147 35.226 22.054 36.3868 23.2147C37.5475 24.3754 38.1868 25.9183 38.1868 27.5576C38.1868 29.1969 37.5475 30.7397 36.3868 31.9004C35.226 33.0612 33.6832 33.7004 32.0439 33.7004Z" fill="#47454C"/>
</svg>
