<svg width="32" height="33" viewBox="0 0 32 33" fill="none" xmlns="http://www.w3.org/2000/svg">
<path d="M31.5197 20.2573C29.3828 28.8288 20.7008 34.0447 12.1283 31.9078C3.55974 29.7708 -1.65675 21.0888 0.480755 12.5178C2.61676 3.94528 11.2983 -1.27173 19.8683 0.865273C28.4403 3.00227 33.6563 11.6853 31.5193 20.2573H31.5197Z" fill="#F7931A"/>
<path d="M23.0547 14.1072C23.3728 11.9782 21.7518 10.8337 19.5353 10.0702L20.2543 7.18618L18.4983 6.74868L17.7983 9.55668C17.3373 9.44167 16.8633 9.33319 16.3923 9.22567L17.0973 6.39917L15.3427 5.96167L14.6233 8.84468C14.2413 8.75767 13.8663 8.67169 13.5023 8.58119L13.5043 8.57217L11.0833 7.96769L10.6163 9.84266C10.6163 9.84266 11.9187 10.1412 11.8913 10.1597C12.6023 10.3372 12.7313 10.8077 12.7093 11.1807L11.8903 14.4662C11.9393 14.4787 12.0028 14.4967 12.0728 14.5247L11.8878 14.4787L10.7393 19.0812C10.6523 19.2972 10.4318 19.6212 9.93475 19.4982C9.95225 19.5237 8.65875 19.1797 8.65875 19.1797L7.78726 21.1897L10.0723 21.7592C10.4973 21.8657 10.9138 21.9772 11.3233 22.0822L10.5968 24.9997L12.3503 25.4372L13.0703 22.5512C13.5488 22.6812 14.0138 22.8012 14.4688 22.9142L13.7518 25.7867L15.5073 26.2242L16.2338 23.3127C19.2273 23.8792 21.4788 23.6507 22.4253 20.9437C23.1888 18.7637 22.3878 17.5062 20.8128 16.6857C21.9598 16.4202 22.8238 15.6657 23.0543 14.1072H23.0547ZM19.0433 19.7317C18.5003 21.9117 14.8303 20.7337 13.6398 20.4377L14.6038 16.5732C15.7938 16.8702 19.6093 17.4582 19.0438 19.7317H19.0433ZM19.5858 14.0757C19.0907 16.0587 16.0358 15.0512 15.0443 14.8042L15.9183 11.2992C16.9098 11.5462 20.1018 12.0072 19.5858 14.0757Z" fill="white"/>
</svg>
