<svg width="136" height="201" viewBox="0 0 136 201" fill="none" xmlns="http://www.w3.org/2000/svg">
<g clip-path="url(#clip0_1258_34994)">
<path d="M-22.0548 42.1438C-22.436 42.1442 -22.8143 42.0769 -23.172 41.9451C-23.86 41.708 -24.4375 41.2279 -24.7965 40.5949C-25.1555 39.9619 -25.2713 39.2196 -25.1217 38.5075L-20.4486 13.354C-20.3706 12.9342 -20.3862 12.5024 -20.4937 12.0892C-20.6012 11.676 -20.7981 11.2915 -21.0707 10.963C-21.3434 10.6344 -21.6852 10.3699 -22.0715 10.1881C-22.4579 10.0063 -22.8793 9.91172 -23.3063 9.91103H-38.2917C-38.9717 9.91088 -39.6304 10.1488 -40.1533 10.5834C-40.6762 11.018 -41.0304 11.622 -41.1546 12.2905L-42.2289 18.0055C-42.3323 18.5795 -42.5977 19.1122 -42.9931 19.5409C-43.3886 19.9697 -43.898 20.2768 -44.4618 20.4262C-45.0256 20.5756 -45.6201 20.5612 -46.176 20.3845C-46.7319 20.2079 -47.226 19.8763 -47.6001 19.4289L-59.9539 4.7976C-60.3609 4.31431 -60.6096 3.71766 -60.6663 3.08841C-60.7229 2.45916 -60.5853 1.82769 -60.2713 1.27945L-37.9859 -37.3934C-37.6264 -38.0248 -37.0544 -38.508 -36.3719 -38.7571C-35.6894 -39.0061 -34.9407 -39.0048 -34.2591 -38.7533C-33.5775 -38.5018 -33.007 -38.0164 -32.6498 -37.3838C-32.2926 -36.7511 -32.1716 -36.0122 -32.3084 -35.2986L-37.2878 -8.53914C-37.3658 -8.11893 -37.3499 -7.6867 -37.2421 -7.27311C-37.1343 -6.85952 -36.9368 -6.47472 -36.6636 -6.14608C-36.3903 -5.81745 -36.0482 -5.55303 -35.6612 -5.37158C-35.2742 -5.19012 -34.8523 -5.0961 -34.4248 -5.0962H-19.4441C-18.7642 -5.09605 -18.106 -5.33393 -17.5831 -5.76855C-17.0602 -6.20317 -16.7054 -6.80713 -16.5812 -7.47565L-15.2227 -14.7966C-15.1192 -15.3707 -14.8539 -15.9033 -14.4584 -16.3321C-14.063 -16.7608 -13.5536 -17.068 -12.9897 -17.2174C-12.4259 -17.3668 -11.8315 -17.3523 -11.2756 -17.1757C-10.7197 -16.999 -10.2256 -16.6675 -9.85146 -16.22L2.50237 -1.58876C2.90956 -1.10666 3.15852 -0.510887 3.21521 0.117611C3.27192 0.746105 3.13404 1.37682 2.81972 1.92401L-19.4657 40.5969C-19.7176 41.0642 -20.0915 41.4548 -20.5472 41.7271C-21.003 41.9995 -21.5238 42.1434 -22.0548 42.1438ZM-38.2917 9.74452H-23.3063C-22.8559 9.74473 -22.411 9.84414 -22.0033 10.0357C-21.5957 10.2273 -21.2351 10.5063 -20.9475 10.8529C-20.6598 11.1995 -20.4521 11.6052 -20.339 12.0412C-20.2259 12.4772 -20.21 12.9327 -20.2928 13.3755L-24.9712 38.5236C-25.0885 39.1945 -24.967 39.8853 -24.6276 40.4758C-24.2882 41.0664 -23.7526 41.5192 -23.1138 41.7556C-22.475 41.9919 -21.7736 41.9968 -21.1316 41.7694C-20.4896 41.542 -19.9475 41.0967 -19.5999 40.511L2.68544 1.83808C2.98326 1.31832 3.11375 0.719547 3.05995 0.122921C3.00615 -0.473705 2.77036 -1.03937 2.38435 -1.49746L-9.99623 -16.1287C-10.3512 -16.5503 -10.8188 -16.8622 -11.3443 -17.0281C-11.8698 -17.1941 -12.4319 -17.2071 -12.9646 -17.0658C-13.4972 -16.9245 -13.9783 -16.6346 -14.3525 -16.2299C-14.7266 -15.8253 -14.9781 -15.3226 -15.0774 -14.7805L-16.4417 -7.45417C-16.5723 -6.75058 -16.945 -6.11493 -17.4955 -5.65768C-18.046 -5.20043 -18.7396 -4.95045 -19.4552 -4.95116H-34.4353C-34.8852 -4.95152 -35.3295 -5.05083 -35.7367 -5.24208C-36.1439 -5.43333 -36.504 -5.71181 -36.7915 -6.0578C-37.0791 -6.40378 -37.287 -6.80882 -37.4005 -7.24413C-37.5141 -7.67945 -37.5307 -8.13439 -37.4488 -8.57674L-32.4752 -35.3416C-32.3597 -36.012 -32.4824 -36.7016 -32.8224 -37.2907C-33.1624 -37.8799 -33.698 -38.3314 -34.3362 -38.5669C-34.9744 -38.8024 -35.6746 -38.8069 -36.3158 -38.5798C-36.957 -38.3527 -37.4987 -37.9083 -37.8464 -37.3236L-60.1312 1.34928C-60.4298 1.86852 -60.5617 2.46695 -60.5089 3.06356C-60.4561 3.66017 -60.2211 4.22615 -59.8359 4.68483L-47.4821 19.3161C-47.1264 19.7372 -46.6587 20.0486 -46.133 20.2143C-45.6072 20.3799 -45.045 20.3928 -44.5122 20.2516C-43.9793 20.1104 -43.4974 19.8208 -43.1227 19.4165C-42.748 19.0122 -42.4961 18.5099 -42.3957 17.9679L-41.3214 12.2529C-41.1895 11.5465 -40.8143 10.9087 -40.2608 10.4504C-39.7073 9.99216 -39.0103 9.74236 -38.2917 9.74452Z" fill="#001D4B"/>
<path d="M32.2482 21.2766C31.867 21.277 31.4892 21.2097 31.1315 21.0779C30.4432 20.8408 29.8648 20.361 29.5049 19.7282C29.145 19.0954 29.0279 18.3531 29.176 17.6403L33.8543 -7.51321C33.9323 -7.93298 33.9173 -8.36476 33.8098 -8.77795C33.7023 -9.19115 33.5049 -9.57566 33.2322 -9.9042C32.9596 -10.2327 32.6183 -10.4973 32.232 -10.6791C31.8456 -10.8609 31.4242 -10.9555 30.9972 -10.9562H16.0113C15.3313 -10.9563 14.6726 -10.7185 14.1497 -10.2838C13.6268 -9.8492 13.2726 -9.24522 13.1484 -8.5767L12.0741 -2.8617C11.9679 -2.28938 11.7011 -1.75903 11.3051 -1.33236C10.9092 -0.905685 10.4003 -0.600277 9.83749 -0.451694C9.27468 -0.303112 8.68142 -0.317474 8.12646 -0.493099C7.5715 -0.668728 7.07773 -0.998398 6.70287 -1.44372L-5.65096 -16.075C-6.05814 -16.5571 -6.3071 -17.1528 -6.3638 -17.7813C-6.4205 -18.4098 -6.28211 -19.0405 -5.96778 -19.5877L16.3176 -58.2606C16.6772 -58.8908 17.2484 -59.373 17.93 -59.6217C18.6116 -59.8703 19.3593 -59.8692 20.0402 -59.6186C20.7211 -59.3681 21.2911 -58.8842 21.649 -58.253C22.0068 -57.6218 22.1293 -56.8842 21.9946 -56.1712L17.0157 -29.4064C16.9377 -28.9861 16.953 -28.5539 17.0609 -28.1403C17.1687 -27.7267 17.3661 -27.3419 17.6394 -27.0133C17.9127 -26.6847 18.2548 -26.4202 18.6418 -26.2388C19.0288 -26.0573 19.4512 -25.9633 19.8787 -25.9634H34.8588C35.5384 -25.9624 36.1971 -26.2001 36.7194 -26.635C37.2416 -27.0699 37.5944 -27.6743 37.7165 -28.3428L39.0808 -35.6692C39.187 -36.2415 39.4533 -36.7719 39.8492 -37.1986C40.2452 -37.6252 40.7546 -37.9306 41.3174 -38.0792C41.8802 -38.2278 42.4735 -38.2135 43.0285 -38.0378C43.5834 -37.8622 44.0772 -37.5325 44.452 -37.0872L56.8059 -22.456C57.2131 -21.9739 57.462 -21.3781 57.5187 -20.7496C57.5754 -20.1211 57.437 -19.4904 57.1227 -18.9432L34.8373 19.7297C34.5859 20.1974 34.2127 20.5883 33.7568 20.8607C33.3009 21.133 32.7793 21.2768 32.2482 21.2766ZM16.0113 -11.1227H30.9972C31.4476 -11.1225 31.8925 -11.023 32.3001 -10.8315C32.7078 -10.6399 33.0679 -10.3609 33.3555 -10.0143C33.6432 -9.6677 33.8508 -9.26197 33.964 -8.82598C34.0771 -8.39 34.093 -7.93447 34.0101 -7.49173L29.3318 17.6564C29.2144 18.3273 29.336 19.0181 29.6754 19.6087C30.0148 20.1992 30.5504 20.652 31.1892 20.8884C31.828 21.1247 32.5294 21.1296 33.1714 20.9022C33.8134 20.6748 34.3555 20.2295 34.703 19.6437L56.9937 -19.0291C57.2907 -19.5491 57.4214 -20.1477 57.3676 -20.7442C57.3139 -21.3406 57.0784 -21.9062 56.6931 -22.3646L44.3393 -36.9959C43.9843 -37.4175 43.5167 -37.7294 42.9912 -37.8954C42.4657 -38.0613 41.9036 -38.0743 41.3709 -37.933C40.8382 -37.7917 40.3566 -37.5018 39.9825 -37.0971C39.6083 -36.6925 39.3574 -36.1898 39.2581 -35.6477L37.8938 -28.3267C37.7643 -27.6221 37.3916 -26.9853 36.841 -26.527C36.2905 -26.0686 35.5967 -25.8179 34.8803 -25.8184H19.9002C19.4497 -25.8186 19.0049 -25.918 18.5972 -26.1096C18.1896 -26.3011 17.829 -26.5801 17.5413 -26.9267C17.2537 -27.2733 17.046 -27.6791 16.9329 -28.115C16.8197 -28.551 16.8039 -29.0066 16.8867 -29.4493L21.8603 -56.2088C21.9777 -56.8797 21.8562 -57.5705 21.5168 -58.1611C21.1774 -58.7516 20.6417 -59.2044 20.003 -59.4408C19.3642 -59.6771 18.6628 -59.682 18.0208 -59.4546C17.3787 -59.2272 16.8367 -58.7819 16.4891 -58.1961L-5.8015 -19.5233C-6.09812 -19.0041 -6.22823 -18.4064 -6.17445 -17.8109C-6.12066 -17.2154 -5.88527 -16.6507 -5.50042 -16.1931L6.85341 -1.56187C7.20836 -1.14029 7.67593 -0.82835 8.20147 -0.662426C8.727 -0.496502 9.28856 -0.483456 9.82123 -0.62479C10.3539 -0.766125 10.8355 -1.056 11.2097 -1.46064C11.5838 -1.86527 11.8353 -2.36797 11.9346 -2.91006L13.0088 -8.61968C13.141 -9.32054 13.5127 -9.95359 14.0605 -10.4103C14.6083 -10.867 15.2981 -11.1188 16.0113 -11.1227Z" fill="#001D4B"/>
<path d="M87.1588 0.258957C86.7795 0.256821 86.4033 0.189606 86.0468 0.0602264C85.358 -0.177872 84.7795 -0.658783 84.4197 -1.29248C84.0598 -1.92618 83.9435 -2.66927 84.0919 -3.38275L88.7649 -28.5309C88.8439 -28.9508 88.829 -29.3829 88.7219 -29.7965C88.6148 -30.2101 88.4178 -30.595 88.1449 -30.9238C87.8721 -31.2526 87.5304 -31.5171 87.1436 -31.6986C86.7568 -31.8801 86.3345 -31.9741 85.9073 -31.9738H70.9271C70.2479 -31.9742 69.5899 -31.7371 69.0671 -31.3035C68.5443 -30.87 68.1895 -30.2673 68.0642 -29.5997L66.9899 -23.8847C66.8865 -23.3107 66.6211 -22.7781 66.2257 -22.3493C65.8302 -21.9205 65.3208 -21.6135 64.757 -21.464C64.1932 -21.3146 63.5987 -21.3291 63.0428 -21.5057C62.4869 -21.6824 61.9928 -22.0139 61.6187 -22.4614L49.2381 -37.0926C48.8323 -37.5754 48.584 -38.1711 48.5274 -38.7992C48.4707 -39.4273 48.608 -40.0577 48.9208 -40.6054L71.2114 -79.2783C71.5729 -79.9055 72.1446 -80.3846 72.8254 -80.6308C73.5061 -80.8771 74.2523 -80.8746 74.9314 -80.6238C75.6105 -80.373 76.1792 -79.89 76.5365 -79.2604C76.8937 -78.6308 77.0167 -77.8951 76.8837 -77.1835L71.9101 -50.424C71.8311 -50.0041 71.8454 -49.572 71.9525 -49.1584C72.0597 -48.7448 72.2567 -48.3598 72.5295 -48.0311C72.8024 -47.7023 73.1446 -47.4377 73.5314 -47.2563C73.9182 -47.0748 74.3399 -46.9808 74.7672 -46.981H89.7479C90.4271 -46.9807 91.0851 -47.2178 91.6079 -47.6513C92.1307 -48.0849 92.4855 -48.6876 92.6108 -49.3551L93.9694 -56.6815C94.0728 -57.2555 94.3381 -57.7882 94.7336 -58.2169C95.1291 -58.6457 95.6385 -58.9528 96.2023 -59.1022C96.7661 -59.2516 97.3606 -59.2372 97.9165 -59.0605C98.4724 -58.8839 98.9664 -58.5523 99.3406 -58.1049L111.694 -43.4736C112.101 -42.9897 112.348 -42.3928 112.404 -41.7636C112.46 -41.1343 112.321 -40.5032 112.006 -39.9555L89.7206 -1.28258C89.4711 -0.819458 89.1019 -0.431984 88.6511 -0.160767C88.2003 0.110451 87.6849 0.255424 87.1588 0.258957ZM70.9213 -32.1457H85.902C86.3521 -32.1445 86.7962 -32.0445 87.2034 -31.8526C87.6106 -31.6608 87.9708 -31.3818 88.2582 -31.0354C88.5457 -30.689 88.7537 -30.2837 88.8672 -29.8481C88.9807 -29.4126 88.9968 -28.9574 88.9149 -28.5147L84.2366 -3.36127C84.1212 -2.69093 84.2444 -2.0013 84.5844 -1.41214C84.9244 -0.822975 85.46 -0.37146 86.0982 -0.135979C86.7364 0.0995026 87.4366 0.10408 88.0778 -0.123032C88.719 -0.350143 89.2602 -0.794624 89.6079 -1.3793L111.893 -40.0522C112.191 -40.5719 112.322 -41.1707 112.268 -41.7673C112.214 -42.3639 111.979 -42.9296 111.593 -43.3877L99.2388 -58.0189C98.8821 -58.438 98.4139 -58.7475 97.8887 -58.9119C97.3635 -59.0762 96.8024 -59.0886 96.2705 -58.9476C95.7385 -58.8066 95.2574 -58.518 94.8826 -58.1151C94.5077 -57.7122 94.2542 -57.2115 94.1519 -56.6707L92.7881 -49.3444C92.6577 -48.6403 92.2847 -48.004 91.7343 -47.5458C91.184 -47.0877 90.4907 -46.8366 89.7747 -46.836H74.7945C74.3446 -46.8364 73.9003 -46.9357 73.4931 -47.1269C73.0859 -47.3182 72.7253 -47.5967 72.4377 -47.9427C72.1502 -48.2886 71.9423 -48.6937 71.8288 -49.129C71.7152 -49.5643 71.6991 -50.0192 71.781 -50.4616L76.7547 -77.2211C76.872 -77.892 76.7505 -78.5828 76.4111 -79.1733C76.0717 -79.7639 75.5361 -80.2167 74.8973 -80.4531C74.2585 -80.6894 73.5571 -80.6943 72.9151 -80.4669C72.2731 -80.2395 71.731 -79.7942 71.3834 -79.2084L49.0981 -40.5356C48.7987 -40.0163 48.6671 -39.4172 48.7209 -38.8202C48.7748 -38.2232 49.0117 -37.6574 49.3991 -37.2L61.753 -22.5688C62.1087 -22.1477 62.5763 -21.8362 63.1021 -21.6706C63.6278 -21.505 64.1901 -21.492 64.7229 -21.6332C65.2557 -21.7745 65.7372 -22.064 66.1119 -22.4683C66.4866 -22.8726 66.739 -23.375 66.8394 -23.917L67.9136 -29.632C68.0421 -30.3326 68.4104 -30.9666 68.9554 -31.4253C69.5003 -31.884 70.1881 -32.1387 70.9003 -32.1457H70.9213Z" fill="#001D4B"/>
<path d="M21.0927 84.1898C20.7132 84.1904 20.3365 84.1231 19.9807 83.9911C19.2924 83.7541 18.714 83.2742 18.3541 82.6414C17.9942 82.0086 17.8776 81.2663 18.0258 80.5535L22.7041 55.4C22.7822 54.9798 22.7668 54.5476 22.659 54.134C22.5512 53.7204 22.3537 53.3356 22.0804 53.007C21.8072 52.6783 21.465 52.4139 21.078 52.2325C20.6911 52.051 20.2686 51.957 19.8412 51.9571H4.861C4.18104 51.9569 3.52236 52.1948 2.99943 52.6294C2.47651 53.064 2.1223 53.668 1.99809 54.3365L0.923849 60.0515C0.819611 60.6251 0.553818 61.1572 0.158028 61.5853C-0.237761 62.0133 -0.747492 62.3198 -1.31119 62.4686C-1.87489 62.6174 -2.46933 62.6024 -3.02485 62.4255C-3.58036 62.2486 -4.07359 61.9169 -4.44738 61.4695L-16.8012 46.8383C-17.2076 46.3556 -17.4557 45.7595 -17.5114 45.1311C-17.5672 44.5026 -17.4278 43.8722 -17.1128 43.3255L5.17258 4.65265C5.53408 4.02544 6.10581 3.54632 6.78657 3.30007C7.46733 3.05383 8.21295 3.05632 8.89205 3.30712C9.57115 3.55793 10.1398 4.04087 10.4971 4.67049C10.8544 5.3001 10.9773 6.0358 10.8444 6.74741L5.87073 33.5069C5.789 33.9291 5.80151 34.3642 5.90797 34.7809C6.01444 35.1975 6.21229 35.5854 6.48654 35.9167C6.76078 36.2479 7.10469 36.5143 7.49417 36.6967C7.88364 36.879 8.30884 36.9728 8.73889 36.9713H23.7248C24.4048 36.9715 25.063 36.7336 25.5859 36.299C26.1088 35.8644 26.4635 35.2604 26.5877 34.5919L27.9463 27.2709C28.0517 26.6982 28.3181 26.1672 28.7137 25.7398C29.1093 25.3125 29.6179 25.0064 30.1808 24.8572C30.7437 24.708 31.3375 24.7219 31.8929 24.8973C32.4482 25.0726 32.9423 25.4021 33.3175 25.8475L45.6714 40.4788C46.0777 40.9615 46.3258 41.5575 46.3816 42.186C46.4373 42.8145 46.298 43.4449 45.9829 43.9916L23.6976 82.6644C23.442 83.1306 23.0648 83.5187 22.606 83.7873C22.1472 84.0559 21.6243 84.195 21.0927 84.1898ZM4.85523 51.7906H19.8359C20.2864 51.7908 20.7312 51.8902 21.1389 52.0818C21.5465 52.2733 21.9071 52.5523 22.1948 52.8989C22.4824 53.2455 22.6901 53.6512 22.8032 54.0872C22.9164 54.5232 22.9317 54.9788 22.8489 55.4215L18.1763 80.5696C18.0589 81.2405 18.1805 81.9314 18.5199 82.5219C18.8593 83.1124 19.3949 83.5653 20.0337 83.8016C20.6725 84.038 21.3739 84.0429 22.0159 83.8155C22.6579 83.588 23.2 83.1427 23.5475 82.557L45.8324 43.8841C46.1317 43.3648 46.2639 42.7657 46.2101 42.1688C46.1562 41.5718 45.9193 41.0059 45.5318 40.5486L33.178 25.9173C32.8208 25.4908 32.3492 25.1756 31.8184 25.009C31.2876 24.8424 30.7198 24.8313 30.1829 24.9771C29.646 25.1229 29.1622 25.4194 28.7887 25.8317C28.4151 26.2439 28.1677 26.7545 28.0753 27.3031L26.7163 34.6295C26.5836 35.3331 26.2094 35.9682 25.6583 36.4252C25.1071 36.8822 24.4135 37.1324 23.6976 37.1325H8.71214C8.26226 37.1321 7.81797 37.0328 7.41076 36.8416C7.00356 36.6503 6.64348 36.3718 6.35593 36.0258C6.06837 35.6799 5.86048 35.2749 5.74694 34.8395C5.6334 34.4042 5.61674 33.9492 5.69868 33.5069L10.6781 6.74204C10.7883 6.0736 10.6624 5.38769 10.3219 4.80198C9.9815 4.21627 9.44768 3.76733 8.81232 3.53225C8.17696 3.29716 7.47975 3.29059 6.84007 3.51366C6.20039 3.73672 5.65827 4.17552 5.30686 4.75471L-16.9785 43.4276C-17.2763 43.9473 -17.4074 44.5461 -17.3536 45.1427C-17.2997 45.7393 -17.064 46.305 -16.678 46.7631L-4.32412 61.3943C-3.96739 61.8134 -3.49918 62.1229 -2.97397 62.2873C-2.44875 62.4516 -1.88773 62.464 -1.35578 62.323C-0.823826 62.182 -0.34273 61.8934 0.0321407 61.4905C0.407009 61.0876 0.660475 60.5869 0.762817 60.0462L1.83706 54.3312C1.95976 53.6207 2.32913 52.9763 2.88036 52.5115C3.43159 52.0467 4.12898 51.7915 4.84999 51.7906H4.85523Z" fill="#001D4B"/>
<path d="M75.9973 63.328C75.6174 63.3267 75.2413 63.2576 74.8858 63.1239C74.1968 62.8879 73.6177 62.4082 73.2576 61.7751C72.8975 61.142 72.781 60.3992 72.9303 59.6863L77.6086 34.5382C77.6877 34.1179 77.673 33.6853 77.5656 33.2713C77.4582 32.8573 77.261 32.4721 76.9876 32.1432C76.7141 31.8144 76.3711 31.5499 75.9836 31.3688C75.5962 31.1876 75.1734 31.0942 74.7457 31.0953L59.7655 31.063C59.0859 31.0639 58.4277 31.3022 57.905 31.7366C57.3823 32.1711 57.0278 32.7744 56.9026 33.4425L55.8284 39.1575C55.7249 39.7315 55.4601 40.2642 55.0647 40.6929C54.6692 41.1217 54.1593 41.4288 53.5954 41.5782C53.0316 41.7276 52.4372 41.7131 51.8813 41.5365C51.3254 41.3598 50.8313 41.0283 50.4572 40.5809L38.1033 25.9496C37.697 25.4669 37.4494 24.8709 37.3936 24.2424C37.3379 23.6139 37.4767 22.9835 37.7917 22.4369L60.0771 -16.236C60.4386 -16.8632 61.0103 -17.3424 61.6911 -17.5886C62.3719 -17.8348 63.1175 -17.8324 63.7966 -17.5815C64.4757 -17.3307 65.0444 -16.8478 65.4017 -16.2182C65.7589 -15.5886 65.8819 -14.8528 65.7489 -14.1412L60.7753 12.6182C60.6973 13.038 60.7129 13.4698 60.8204 13.883C60.9279 14.2962 61.1247 14.6807 61.3974 15.0092C61.67 15.3378 62.0119 15.6023 62.3982 15.7841C62.7845 15.9659 63.206 16.0605 63.6329 16.0612H78.6184C79.2983 16.0613 79.957 15.8235 80.4799 15.3888C81.0028 14.9542 81.3571 14.3503 81.4813 13.6817L82.8403 6.36076C82.9457 5.78801 83.2116 5.25702 83.6072 4.82967C84.0028 4.40233 84.5119 4.09622 85.0748 3.94705C85.6378 3.79787 86.2316 3.81177 86.7869 3.98711C87.3423 4.16244 87.8363 4.49199 88.2116 4.93737L100.565 19.5686C100.971 20.0525 101.219 20.6494 101.275 21.2786C101.331 21.9079 101.192 22.5391 100.877 23.0868L78.5916 61.7597C78.3431 62.2326 77.9704 62.6286 77.5132 62.905C77.0559 63.1814 76.5315 63.3277 75.9973 63.328ZM59.7655 30.9234H74.7457C75.1958 30.9245 75.6404 31.0246 76.0476 31.2164C76.4548 31.4083 76.815 31.6873 77.1024 32.0337C77.3899 32.3801 77.5974 32.7854 77.7109 33.2209C77.8244 33.6565 77.841 34.1117 77.7592 34.5543L73.0861 59.7078C72.9706 60.3782 73.0939 61.0678 73.4339 61.657C73.7738 62.2461 74.309 62.6976 74.9471 62.9331C75.5853 63.1686 76.2861 63.1732 76.9273 62.9461C77.5684 62.7189 78.1097 62.2745 78.4573 61.6898L100.743 23.017C101.042 22.4976 101.174 21.8986 101.12 21.3016C101.066 20.7046 100.83 20.1388 100.442 19.6814L88.0883 5.05017C87.7326 4.62906 87.2644 4.31756 86.7387 4.15194C86.2129 3.98632 85.6512 3.97338 85.1184 4.1146C84.5856 4.25583 84.1036 4.54544 83.7289 4.94973C83.3542 5.35401 83.1018 5.85636 83.0014 6.39836L81.6428 13.7247C81.5103 14.4288 81.1359 15.0646 80.5848 15.5225C80.0338 15.9804 79.3406 16.2317 78.6241 16.2331H63.6382C63.1883 16.2327 62.744 16.1334 62.3368 15.9422C61.9296 15.7509 61.5695 15.4724 61.282 15.1264C60.9944 14.7805 60.7865 14.3754 60.673 13.9401C60.5594 13.5048 60.5428 13.0499 60.6247 12.6075L65.6041 -14.152C65.7215 -14.8229 65.5999 -15.5137 65.2606 -16.1043C64.9212 -16.6948 64.3855 -17.1476 63.7468 -17.384C63.108 -17.6203 62.4066 -17.6252 61.7645 -17.3978C61.1225 -17.1704 60.5805 -16.7251 60.2329 -16.1393L37.9475 22.5335C37.6497 23.0533 37.5187 23.652 37.5725 24.2487C37.6263 24.8453 37.8626 25.411 38.2486 25.8691L50.6024 40.5003C50.9581 40.9214 51.4258 41.2329 51.9516 41.3985C52.4773 41.5641 53.0395 41.5771 53.5724 41.4358C54.1052 41.2946 54.5866 41.005 54.9613 40.6008C55.336 40.1965 55.5884 39.6941 55.6889 39.1521L56.7631 33.4371C56.8911 32.7334 57.2616 32.0967 57.8101 31.6375C58.3585 31.1783 59.0502 30.9256 59.7655 30.9234Z" fill="#001D4B"/>
<path d="M9.18451 148.043C8.80525 148.041 8.42901 147.974 8.0725 147.844C7.38374 147.606 6.80524 147.125 6.44539 146.492C6.08554 145.858 5.96917 145.115 6.11756 144.401L10.7906 119.253C10.8696 118.833 10.8547 118.401 10.7476 117.988C10.6405 117.574 10.4435 117.189 10.1706 116.86C9.89777 116.532 9.55609 116.267 9.1693 116.086C8.78251 115.904 8.36023 115.81 7.93297 115.81H-7.04721C-7.7264 115.81 -8.38439 116.047 -8.90721 116.481C-9.43002 116.914 -9.7848 117.517 -9.91012 118.184L-10.9844 123.899C-11.0878 124.473 -11.3531 125.006 -11.7486 125.435C-12.1441 125.864 -12.6535 126.171 -13.2173 126.32C-13.7811 126.47 -14.3756 126.455 -14.9315 126.278C-15.4874 126.102 -15.9814 125.77 -16.3556 125.323L-28.7094 110.692C-29.1152 110.209 -29.3635 109.613 -29.4202 108.985C-29.4768 108.357 -29.3391 107.726 -29.0262 107.179L-6.73563 68.5059C-6.37413 67.8787 -5.8024 67.3996 -5.12164 67.1533C-4.44088 66.9071 -3.69526 66.9096 -3.01616 67.1604C-2.33706 67.4112 -1.76837 67.8941 -1.41109 68.5238C-1.0538 69.1534 -0.930889 69.8891 -1.06384 70.6007L-6.03748 97.3602C-6.11645 97.7801 -6.10211 98.2122 -5.99499 98.6258C-5.88787 99.0394 -5.69087 99.4243 -5.418 99.7531C-5.14514 100.082 -4.80293 100.346 -4.41614 100.528C-4.02935 100.709 -3.6076 100.803 -3.18034 100.803H11.8004C12.4796 100.804 13.1375 100.566 13.6604 100.133C14.1832 99.6993 14.538 99.0966 14.6633 98.429L16.0218 91.1027C16.1253 90.5287 16.3906 89.996 16.7861 89.5673C17.1815 89.1385 17.6909 88.8314 18.2548 88.682C18.8186 88.5326 19.4136 88.547 19.9695 88.7237C20.5254 88.9003 21.0189 89.2318 21.393 89.6793L33.7469 104.311C34.1552 104.793 34.4051 105.39 34.4618 106.02C34.5185 106.649 34.3798 107.281 34.0642 107.829L11.7789 146.502C11.5263 146.969 11.1515 147.359 10.6946 147.631C10.2378 147.902 9.71592 148.045 9.18451 148.043ZM-7.05298 115.638H7.92773C8.37761 115.639 8.82189 115.738 9.2291 115.929C9.6363 116.121 9.99638 116.399 10.2839 116.745C10.5715 117.091 10.7794 117.496 10.8929 117.931C11.0065 118.367 11.0226 118.822 10.9407 119.264L6.26233 144.418C6.14688 145.088 6.27011 145.777 6.6101 146.367C6.95007 146.956 7.48574 147.407 8.1239 147.643C8.76206 147.878 9.46231 147.883 10.1035 147.656C10.7447 147.429 11.2859 146.984 11.6336 146.4L33.9189 107.727C34.2168 107.207 34.3478 106.608 34.294 106.012C34.2402 105.415 34.0044 104.849 33.6184 104.391L21.2645 89.7599C20.9078 89.3408 20.4396 89.0313 19.9144 88.8669C19.3892 88.7026 18.8281 88.6902 18.2962 88.8312C17.7642 88.9722 17.2831 89.2608 16.9083 89.6637C16.5334 90.0666 16.2799 90.5673 16.1776 91.108L14.8133 98.4344C14.6829 99.1385 14.3104 99.7748 13.76 100.233C13.2097 100.691 12.5165 100.942 11.8004 100.943H-3.18034C-3.63022 100.942 -4.0745 100.843 -4.48171 100.652C-4.88891 100.461 -5.249 100.182 -5.53655 99.8361C-5.8241 99.4901 -6.03199 99.0851 -6.14553 98.6498C-6.25907 98.2145 -6.2752 97.7595 -6.19327 97.3172L-1.21963 70.5577C-1.10226 69.8868 -1.22382 69.196 -1.5632 68.6055C-1.90258 68.0149 -2.43822 67.5621 -3.07701 67.3257C-3.71579 67.0894 -4.4172 67.0845 -5.05922 67.3119C-5.70124 67.5393 -6.24327 67.9846 -6.59086 68.5704L-28.8762 107.243C-29.1755 107.762 -29.3078 108.361 -29.2549 108.958C-29.2021 109.554 -28.9668 110.12 -28.5809 110.579L-16.1998 125.21C-15.8441 125.631 -15.3765 125.943 -14.8507 126.108C-14.325 126.274 -13.7627 126.287 -13.2299 126.146C-12.6971 126.004 -12.2156 125.715 -11.8409 125.31C-11.4662 124.906 -11.2138 124.404 -11.1134 123.862L-10.0392 118.147C-9.90959 117.447 -9.54067 116.814 -8.99585 116.357C-8.45103 115.899 -7.76445 115.645 -7.05298 115.638Z" fill="#001D4B"/>
<path d="M64.0623 127.02C63.6828 127.02 63.3061 126.953 62.9502 126.821C62.2619 126.584 61.6836 126.104 61.3237 125.472C60.9637 124.839 60.8472 124.096 60.9953 123.384L65.6736 98.2301C65.7517 97.8099 65.7363 97.3776 65.6285 96.9641C65.5207 96.5505 65.3232 96.1657 65.0499 95.8371C64.7767 95.5084 64.4345 95.244 64.0476 95.0626C63.6606 94.8811 63.2381 94.7871 62.8107 94.7872H47.8305C47.1509 94.7862 46.4923 95.0239 45.97 95.4587C45.4478 95.8936 45.0949 96.4981 44.9729 97.1666L43.8986 102.882C43.7944 103.455 43.5286 103.987 43.1328 104.415C42.737 104.843 42.2278 105.15 41.6641 105.299C41.1004 105.447 40.506 105.433 39.9505 105.256C39.3949 105.079 38.9012 104.747 38.5274 104.3L26.1736 89.6684C25.7657 89.1866 25.5164 88.5908 25.4597 87.9621C25.403 87.3334 25.5417 86.7026 25.8567 86.1556L48.1421 47.4827C48.5036 46.8555 49.0753 46.3764 49.7561 46.1302C50.4369 45.8839 51.1825 45.8864 51.8616 46.1372C52.5407 46.388 53.1094 46.8709 53.4667 47.5006C53.8239 48.1302 53.9469 48.8659 53.8139 49.5775L48.8403 76.337C48.7623 76.7567 48.7773 77.1886 48.8849 77.6018C48.9924 78.015 49.1897 78.3994 49.4624 78.728C49.735 79.0565 50.0763 79.3211 50.4627 79.5029C50.849 79.6847 51.271 79.7793 51.6979 79.7799H66.6833C67.3633 79.7801 68.022 79.5422 68.5449 79.1076C69.0678 78.673 69.4221 78.069 69.5463 77.4005L70.9106 70.0795C71.014 69.5055 71.2788 68.9728 71.6743 68.5441C72.0698 68.1153 72.5797 67.8082 73.1435 67.6588C73.7073 67.5094 74.3018 67.5238 74.8577 67.7005C75.4136 67.8771 75.9077 68.2086 76.2818 68.6561L88.6624 83.2873C89.0696 83.7694 89.3185 84.3653 89.3752 84.9938C89.4319 85.6223 89.2935 86.253 88.9792 86.8002L66.6886 125.473C66.4346 125.947 66.0555 126.342 65.5923 126.615C65.1291 126.887 64.5998 127.028 64.0623 127.02ZM47.8248 94.6207H62.8055C63.2559 94.6209 63.7008 94.7203 64.1084 94.9118C64.5161 95.1034 64.8767 95.3824 65.1643 95.729C65.4519 96.0756 65.6596 96.4814 65.7728 96.9173C65.8859 97.3533 65.9012 97.8089 65.8184 98.2516L61.1458 123.4C61.0285 124.071 61.15 124.761 61.4894 125.352C61.8288 125.943 62.3644 126.395 63.0032 126.632C63.642 126.868 64.3434 126.873 64.9854 126.646C65.6274 126.418 66.1695 125.973 66.5171 125.387L88.8019 86.7142C89.1012 86.1952 89.2335 85.5966 89.1806 84.9998C89.1278 84.403 88.8925 83.837 88.5066 83.3787L76.1528 68.7474C75.7971 68.3263 75.3294 68.0148 74.8037 67.8492C74.2779 67.6836 73.7157 67.6707 73.1829 67.8119C72.65 67.9531 72.1686 68.2427 71.7939 68.647C71.4192 69.0513 71.1668 69.5536 71.0664 70.0956L69.7073 77.4166C69.5757 78.1212 69.2021 78.7575 68.6509 79.2156C68.0996 79.6737 67.4053 79.9246 66.6886 79.9249H51.7032C51.2528 79.9247 50.8079 79.8253 50.4002 79.6338C49.9926 79.4422 49.632 79.1632 49.3443 78.8166C49.0567 78.47 48.849 78.0643 48.7359 77.6283C48.6228 77.1923 48.6069 76.7368 48.6897 76.294L53.6691 49.5345C53.7793 48.8661 53.6534 48.1802 53.313 47.5945C52.9725 47.0088 52.4387 46.5598 51.8034 46.3247C51.168 46.0896 50.4708 46.0831 49.8311 46.3061C49.1914 46.5292 48.6493 46.968 48.2979 47.5472L26.0125 86.2201C25.7147 86.7398 25.5837 87.3386 25.6375 87.9352C25.6913 88.5318 25.9271 89.0975 26.3131 89.5556L38.6669 104.187C39.0229 104.606 39.4905 104.916 40.0155 105.081C40.5405 105.246 41.1014 105.258 41.6332 105.117C42.165 104.976 42.6462 104.687 43.0206 104.284C43.3949 103.881 43.6469 103.379 43.7481 102.839L44.8223 97.1236C44.9529 96.4201 45.3262 95.7844 45.8766 95.3272C46.4271 94.8699 47.1202 94.62 47.8358 94.6207H47.8248Z" fill="#001D4B"/>
<path d="M-1.97699 210.956C-2.35642 210.956 -2.73246 210.889 -3.08848 210.758C-3.77682 210.521 -4.35516 210.041 -4.71507 209.408C-5.07497 208.775 -5.19209 208.033 -5.04395 207.32L-0.365627 182.167C-0.287556 181.746 -0.302929 181.314 -0.410736 180.901C-0.518543 180.487 -0.71603 180.102 -0.989296 179.774C-1.26256 179.445 -1.60471 179.18 -1.99168 178.999C-2.37866 178.818 -2.80113 178.724 -3.22853 178.724H-18.2087C-18.8887 178.723 -19.5474 178.961 -20.0703 179.396C-20.5932 179.831 -20.9474 180.435 -21.0716 181.103L-22.1459 186.818C-22.2521 187.39 -22.5189 187.921 -22.9148 188.347C-23.3108 188.774 -23.8197 189.08 -24.3825 189.228C-24.9453 189.377 -25.5385 189.362 -26.0935 189.187C-26.6485 189.011 -27.1422 188.681 -27.5171 188.236L-39.8709 173.605C-40.2781 173.123 -40.5271 172.527 -40.5838 171.898C-40.6405 171.27 -40.5021 170.639 -40.1877 170.092L-17.9024 131.419C-17.5385 130.795 -16.9667 130.319 -16.2868 130.075C-15.6069 129.831 -14.8628 129.834 -14.185 130.084C-13.5073 130.334 -12.9394 130.815 -12.581 131.442C-12.2226 132.07 -12.0966 132.803 -12.2253 133.514L-17.2042 160.273C-17.2857 160.694 -17.2733 161.127 -17.168 161.541C-17.0628 161.956 -16.8672 162.343 -16.5952 162.673C-16.3233 163.004 -15.9818 163.27 -15.595 163.453C-15.2081 163.636 -14.7856 163.732 -14.3576 163.733H0.622597C1.30228 163.732 1.96041 163.493 2.48312 163.059C3.00583 162.624 3.36033 162.021 3.4855 161.353L4.84982 154.027C4.95206 153.452 5.21687 152.918 5.61249 152.489C6.00811 152.059 6.51815 151.752 7.08276 151.603C7.64737 151.454 8.24297 151.469 8.79904 151.647C9.35511 151.826 9.84835 152.159 10.2211 152.609L22.5749 167.24C22.9821 167.722 23.231 168.318 23.2877 168.946C23.3444 169.575 23.206 170.206 22.8917 170.753L0.606861 209.426C0.353271 209.889 -0.020668 210.276 -0.475254 210.545C-0.92984 210.815 -1.4486 210.957 -1.97699 210.956ZM-18.2087 178.552H-3.22853C-2.7785 178.552 -2.33403 178.652 -1.92664 178.843C-1.51925 179.034 -1.1587 179.312 -0.870754 179.658C-0.582802 180.004 -0.37442 180.409 -0.260193 180.844C-0.145969 181.28 -0.128803 181.735 -0.209839 182.177L-4.88816 207.331C-5.00554 208.002 -4.88397 208.693 -4.54459 209.283C-4.20521 209.874 -3.66957 210.326 -3.03078 210.563C-2.39201 210.799 -1.69059 210.804 -1.04857 210.577C-0.406551 210.349 0.135483 209.904 0.48307 209.318L22.7684 170.645C23.0673 170.127 23.199 169.529 23.1461 168.934C23.0932 168.338 22.8585 167.773 22.4731 167.315L10.1193 152.684C9.76361 152.263 9.29542 151.951 8.76966 151.786C8.24391 151.62 7.6822 151.607 7.14938 151.748C6.61655 151.89 6.13459 152.179 5.75989 152.583C5.38519 152.988 5.13277 153.49 5.03236 154.032L3.67381 161.353C3.54322 162.058 3.1694 162.695 2.61793 163.153C2.06646 163.612 1.37214 163.862 0.655117 163.861H-14.3256C-14.7759 163.86 -15.2201 163.76 -15.6275 163.568C-16.0349 163.376 -16.395 163.098 -16.6828 162.751C-16.9707 162.405 -17.1792 162 -17.2934 161.564C-17.4076 161.129 -17.4247 160.673 -17.3438 160.23L-12.3649 133.471C-12.2475 132.8 -12.3691 132.109 -12.7084 131.519C-13.0478 130.928 -13.5835 130.475 -14.2222 130.239C-14.861 130.003 -15.5624 129.998 -16.2045 130.225C-16.8465 130.453 -17.3885 130.898 -17.7361 131.484L-40.0215 170.157C-40.3193 170.676 -40.4498 171.275 -40.396 171.872C-40.3422 172.468 -40.1064 173.034 -39.7204 173.492L-27.3398 188.123C-26.9849 188.545 -26.5173 188.857 -25.9918 189.023C-25.4662 189.189 -24.9047 189.202 -24.372 189.06C-23.8393 188.919 -23.3577 188.629 -22.9835 188.225C-22.6094 187.82 -22.3579 187.317 -22.2586 186.775L-21.1844 181.06C-21.0542 180.363 -20.6866 179.732 -20.1442 179.275C-19.6018 178.817 -18.918 178.562 -18.2087 178.552Z" fill="#001D4B"/>
<path d="M52.9334 190.089C52.554 190.089 52.1775 190.022 51.8214 189.89C51.1331 189.653 50.5548 189.173 50.1948 188.541C49.8349 187.908 49.7183 187.166 49.8665 186.453L54.5448 161.299C54.6228 160.88 54.6072 160.448 54.4997 160.035C54.3922 159.621 54.1954 159.237 53.9227 158.908C53.65 158.58 53.3082 158.315 52.9219 158.133C52.5356 157.952 52.1141 157.857 51.6871 157.856H36.7012C36.0212 157.856 35.3631 158.094 34.8401 158.529C34.3172 158.963 33.963 159.567 33.8388 160.236L32.7646 165.951C32.6584 166.523 32.3916 167.053 31.9956 167.48C31.5996 167.907 31.0908 168.212 30.528 168.361C29.9651 168.509 29.3714 168.495 28.8164 168.319C28.2614 168.144 27.7682 167.814 27.3933 167.369L15.0395 152.738C14.6323 152.255 14.3834 151.66 14.3267 151.031C14.27 150.403 14.4078 149.772 14.7222 149.225L37.0075 110.552C37.3672 109.922 37.9388 109.439 38.6205 109.191C39.3021 108.942 40.0497 108.943 40.7307 109.194C41.4116 109.444 41.9816 109.928 42.3394 110.56C42.6973 111.191 42.8197 111.928 42.6851 112.641L37.7057 139.406C37.6276 139.826 37.643 140.259 37.7508 140.672C37.8586 141.086 38.0566 141.471 38.3299 141.799C38.6031 142.128 38.9453 142.392 39.3323 142.574C39.7192 142.755 40.1412 142.849 40.5686 142.849H55.5493C56.2295 142.85 56.8882 142.613 57.4114 142.178C57.9345 141.743 58.289 141.139 58.4122 140.47L59.776 133.143C59.8802 132.57 60.146 132.038 60.5418 131.61C60.9376 131.182 61.4473 130.875 62.011 130.726C62.5747 130.577 63.1692 130.592 63.7247 130.769C64.2802 130.946 64.7734 131.278 65.1472 131.725L77.4906 146.378C77.8977 146.86 78.1467 147.456 78.2034 148.084C78.2601 148.713 78.1217 149.344 77.8074 149.891L55.522 188.564C55.2673 189.027 54.8928 189.413 54.4373 189.682C53.9817 189.95 53.4622 190.091 52.9334 190.089ZM36.7012 157.69H51.6871C52.1373 157.691 52.5819 157.791 52.989 157.983C53.3962 158.175 53.7559 158.454 54.0434 158.8C54.3308 159.146 54.5388 159.552 54.6523 159.987C54.7658 160.423 54.7824 160.878 54.7006 161.321L50.0223 186.469C49.9049 187.14 50.0265 187.831 50.3658 188.421C50.7052 189.012 51.2409 189.465 51.8797 189.701C52.5184 189.937 53.2198 189.942 53.8619 189.715C54.5039 189.487 55.0459 189.042 55.3935 188.456L77.6783 149.783C77.9777 149.264 78.1099 148.666 78.0571 148.069C78.0042 147.472 77.7689 146.906 77.383 146.448L65.0292 131.817C64.6743 131.395 64.2067 131.083 63.6811 130.917C63.1556 130.751 62.5941 130.738 62.0614 130.879C61.5287 131.021 61.0471 131.311 60.6729 131.715C60.2988 132.12 60.0473 132.623 59.948 133.165L58.5837 140.486C58.4531 141.191 58.0798 141.828 57.5284 142.286C56.9769 142.744 56.282 142.995 55.565 142.994H40.5849C40.1343 142.994 39.6892 142.894 39.2814 142.703C38.8735 142.511 38.513 142.232 38.225 141.886C37.9369 141.539 37.7282 141.134 37.6144 140.698C37.5006 140.262 37.4842 139.806 37.5662 139.363L42.5456 112.604C42.6629 111.933 42.5414 111.242 42.202 110.651C41.8626 110.061 41.3264 109.608 40.6877 109.372C40.0489 109.135 39.3475 109.13 38.7054 109.358C38.0634 109.585 37.5219 110.031 37.1743 110.616L14.8837 149.289C14.5871 149.808 14.4565 150.406 14.5102 151.002C14.564 151.597 14.7994 152.162 15.1843 152.619L27.5381 167.251C27.8931 167.672 28.3606 167.984 28.8862 168.15C29.4117 168.316 29.9738 168.329 30.5064 168.188C31.0391 168.046 31.5202 167.756 31.8944 167.352C32.2685 166.947 32.52 166.445 32.6193 165.902L33.6935 160.193C33.8249 159.491 34.1971 158.856 34.7463 158.399C35.2954 157.942 35.9868 157.691 36.7012 157.69Z" fill="#001D4B"/>
</g>
<defs>
<clipPath id="clip0_1258_34994">
<rect width="470.257" height="482.073" fill="white" transform="translate(-334.757 -271.117)"/>
</clipPath>
</defs>
</svg>
