<svg width="352" height="201" viewBox="0 0 352 201" fill="none" xmlns="http://www.w3.org/2000/svg">
<g clip-path="url(#clip0_2_21)">
<rect y="0.5" width="352" height="200" rx="8" fill="#DDEDE8"/>
<path d="M109.501 -16.4649L66.0306 -67.8449C64.7459 -69.3498 63.0621 -70.4611 61.1732 -71.0507C59.2844 -71.6403 57.2674 -71.6841 55.3547 -71.1772C53.442 -70.6703 51.7115 -69.6332 50.3626 -68.1856C49.0137 -66.7379 48.1013 -64.9385 47.7306 -62.9949L42.9506 -37.2749C42.5017 -34.8616 41.2216 -32.6819 39.3326 -31.1145C37.4436 -29.547 35.0652 -28.6909 32.6106 -28.6949H-19.9994C-21.5407 -28.6953 -23.063 -29.035 -24.4582 -29.69C-25.8534 -30.3449 -27.0874 -31.299 -28.0724 -32.4845C-29.0574 -33.6699 -29.7693 -35.0577 -30.1577 -36.5492C-30.5461 -38.0408 -30.6013 -39.5996 -30.3194 -41.1149L-12.8394 -135.115C-10.6794 -146.725 -26.3594 -152.505 -32.2594 -142.285L-110.569 -6.53487C-111.644 -4.66609 -112.117 -2.51151 -111.924 -0.364334C-111.731 1.78284 -110.881 3.81831 -109.489 5.46513L-66.0194 56.8551C-64.7371 58.3721 -63.0507 59.4942 -61.1562 60.0911C-59.2616 60.688 -57.2367 60.7353 -55.3163 60.2275C-53.396 59.7197 -51.6591 58.6775 -50.3073 57.2221C-48.9555 55.7667 -48.0443 53.9577 -47.6794 52.0051L-43.9494 31.9351C-43.4991 29.5245 -42.2199 27.3472 -40.3334 25.7802C-38.4469 24.2133 -36.0718 23.3554 -33.6194 23.3551H19.0006C20.5414 23.3541 22.0636 23.6925 23.4588 24.3463C24.854 25.0001 26.0882 25.9532 27.0733 27.1379C28.0585 28.3226 28.7707 29.7098 29.1591 31.2009C29.5475 32.692 29.6026 34.2504 29.3206 35.7652L12.8906 124.105C10.7306 135.705 26.4106 141.495 32.3106 131.265L110.581 -4.48485C111.648 -6.35226 112.117 -8.50229 111.924 -10.6446C111.731 -12.787 110.885 -14.8185 109.501 -16.4649Z" fill="#E4F2EE"/>
</g>
<defs>
<clipPath id="clip0_2_21">
<rect y="0.5" width="352" height="200" rx="8" fill="white"/>
</clipPath>
</defs>
</svg>
