<svg width="32" height="33" viewBox="0 0 32 33" fill="none" xmlns="http://www.w3.org/2000/svg">
<g clip-path="url(#clip0_1181_26449)">
<path d="M20.1481 0.386719H11.8519C5.30625 0.386719 0 5.69297 0 12.2386V20.5349C0 27.0805 5.30625 32.3867 11.8519 32.3867H20.1481C26.6937 32.3867 32 27.0805 32 20.5349V12.2386C32 5.69297 26.6937 0.386719 20.1481 0.386719Z" fill="#C2A633"/>
<path d="M16.1436 17.2164H20.5986C20.6936 17.2164 20.7384 17.2164 20.7452 17.0919C20.7817 16.6387 20.7817 16.1829 20.7452 15.7291C20.7452 15.641 20.7015 15.6046 20.606 15.6046H11.7399C11.6301 15.6046 11.6006 15.641 11.6006 15.7439V17.0481C11.6006 17.2164 11.6006 17.2164 11.7762 17.2164H16.1436ZM20.2478 14.0804C20.2604 14.0472 20.2604 14.0108 20.2478 13.9781C20.1733 13.8161 20.0852 13.6615 19.9829 13.5165C19.8289 13.2685 19.6473 13.04 19.4405 12.8348C19.3429 12.7108 19.23 12.5995 19.1034 12.505C18.4692 11.9653 17.7153 11.5834 16.9049 11.3913C16.4961 11.2995 16.0782 11.2557 15.6593 11.2594H11.7246C11.6148 11.2594 11.6001 11.3032 11.6001 11.3987V13.9997C11.6001 14.1095 11.6001 14.139 11.7393 14.139H20.195C20.195 14.139 20.2683 14.1242 20.2831 14.0804H20.2472H20.2478ZM20.2478 18.7406C20.1233 18.7269 19.9977 18.7269 19.8731 18.7406H11.7473C11.6375 18.7406 11.6006 18.7406 11.6006 18.8872V21.4302C11.6006 21.5474 11.6006 21.5769 11.7473 21.5769H15.4989C15.6783 21.5907 15.8577 21.578 16.0334 21.5405C16.5778 21.5015 17.1134 21.3833 17.6241 21.1886C17.8098 21.1242 17.9892 21.0404 18.1585 20.9396H18.2097C19.0892 20.4821 19.8035 19.7636 20.254 18.8815C20.254 18.8815 20.3052 18.7707 20.2478 18.7416V18.7406ZM10.1281 22.8954V22.8516V21.1443V20.5655V18.8435C10.1281 18.748 10.1281 18.7338 10.011 18.7338H8.4208C8.33268 18.7338 8.2963 18.7338 8.2963 18.6166V17.2243H9.99621C10.0911 17.2243 10.1281 17.2243 10.1281 17.0998V15.7223C10.1281 15.6341 10.1281 15.6125 10.011 15.6125H8.4208C8.33268 15.6125 8.2963 15.6125 8.2963 15.4954V14.206C8.2963 14.1253 8.2963 14.1037 8.41339 14.1037H9.9888C10.0985 14.1037 10.1281 14.1037 10.1281 13.9643V10.0148C10.1281 9.89773 10.1281 9.86816 10.2747 9.86816H15.7701C16.1689 9.88399 16.5652 9.92778 16.9572 10.0001C17.7649 10.1493 18.541 10.4379 19.2506 10.85C19.7212 11.127 20.1544 11.4615 20.54 11.8466C20.8302 12.1479 21.0919 12.4739 21.324 12.8211C21.5545 13.173 21.7461 13.5492 21.8965 13.9422C21.9149 14.0445 22.013 14.1137 22.1154 14.0963H23.427C23.5953 14.0963 23.5953 14.0963 23.6027 14.2577V15.4595C23.6027 15.5767 23.5589 15.6062 23.4412 15.6062H22.4299C22.3275 15.6062 22.298 15.6062 22.3054 15.7381C22.3454 16.1844 22.3454 16.6324 22.3054 17.0787C22.3054 17.2032 22.3053 17.218 22.4452 17.218H23.6021C23.6533 17.2839 23.6021 17.3499 23.6021 17.4164C23.6095 17.5013 23.6095 17.5873 23.6021 17.6723V18.5591C23.6021 18.6836 23.5657 18.7205 23.4555 18.7205H22.0706C21.974 18.7021 21.8801 18.7638 21.858 18.8599C21.5282 19.7172 21.0006 20.4859 20.319 21.1021C20.0699 21.3263 19.8082 21.5373 19.535 21.732C19.2417 21.9009 18.9562 22.0765 18.6555 22.2158C18.102 22.4648 17.5217 22.6484 16.926 22.7651C16.3605 22.8663 15.787 22.9123 15.2114 22.9043H10.126V22.897L10.1281 22.8954Z" fill="#FEFEFD"/>
<path d="M23.7037 5.72009H7.11111V26.4608H23.7037V5.72009Z" fill="white"/>
<path d="M15.1703 11.3348H13.0535V15.5081H16.3838V17.2553H13.0535V21.4282H15.274C15.8445 21.4282 19.9578 21.4926 19.9515 16.5731C19.9451 11.6535 15.962 11.3348 15.1703 11.3348Z" fill="#C2A633"/>
<path d="M14.8148 1.5719C6.63277 1.5719 0 8.20467 0 16.3867C0 24.5688 6.63277 31.2015 14.8148 31.2015C22.9969 31.2015 29.6296 24.5688 29.6296 16.3867C29.6296 8.20467 22.9969 1.5719 14.8148 1.5719ZM15.3969 24.3882H10.0317V17.2555H8.14044V15.5082H10.0316V8.37498H14.6363C15.7256 8.37498 22.9409 8.14879 22.9409 16.5155C22.9409 25.0205 15.397 24.3882 15.397 24.3882H15.3969Z" fill="#C2A633"/>
</g>
<defs>
<clipPath id="clip0_1181_26449">
<rect width="32" height="32" fill="white" transform="translate(0 0.386719)"/>
</clipPath>
</defs>
</svg>
