<svg width="136" height="102" viewBox="0 0 136 102" fill="none" xmlns="http://www.w3.org/2000/svg">
<path d="M135.968 89.7233H0.0319824V89.7912H135.968V89.7233Z" fill="#EBEBEB"/>
<path d="M122.347 94.0973H113.343V94.1653H122.347V94.0973Z" fill="#EBEBEB"/>
<path d="M109.92 94.0973H90.6687V94.1653H109.92V94.0973Z" fill="#EBEBEB"/>
<path d="M80.0522 91.5751H74.835V91.643H80.0522V91.5751Z" fill="#EBEBEB"/>
<path d="M23.6169 92.0314H14.2944V92.0993H23.6169V92.0314Z" fill="#EBEBEB"/>
<path d="M42.9876 92.0314H26.0364V92.0993H42.9876V92.0314Z" fill="#EBEBEB"/>
<path d="M61.2413 93.1783H51.2336V93.2463H61.2413V93.1783Z" fill="#EBEBEB"/>
<path d="M64.4656 77.5979H11.9698C11.5586 77.5972 11.1644 77.4334 10.8739 77.1423C10.5833 76.8512 10.4202 76.4568 10.4202 76.0456V2.25132C10.4237 1.84243 10.5885 1.45147 10.8787 1.16335C11.1688 0.875228 11.5609 0.713225 11.9698 0.712524H64.4656C64.8773 0.712524 65.2722 0.876079 65.5633 1.16721C65.8545 1.45834 66.018 1.85319 66.018 2.26491V76.0456C66.018 76.4573 65.8545 76.8521 65.5633 77.1433C65.2722 77.4344 64.8773 77.5979 64.4656 77.5979ZM11.9698 0.766899C11.5766 0.767619 11.1997 0.92433 10.9219 1.20264C10.6442 1.48094 10.4881 1.8581 10.4881 2.25132V76.0456C10.4881 76.4388 10.6442 76.8159 10.9219 77.0942C11.1997 77.3725 11.5766 77.5293 11.9698 77.53H64.4656C64.8591 77.5293 65.2362 77.3726 65.5145 77.0944C65.7927 76.8162 65.9493 76.439 65.95 76.0456V2.25132C65.9493 1.85785 65.7927 1.4807 65.5145 1.20247C65.2362 0.924242 64.8591 0.767618 64.4656 0.766899H11.9698Z" fill="#EBEBEB"/>
<path d="M123.274 77.5979H70.7758C70.3643 77.5972 69.9698 77.4334 69.6789 77.1425C69.3879 76.8515 69.2241 76.4571 69.2234 76.0456V2.25132C69.2277 1.84218 69.393 1.45122 69.6836 1.16318C69.9742 0.875133 70.3666 0.713217 70.7758 0.712524H123.274C123.683 0.713939 124.074 0.876259 124.364 1.1643C124.653 1.45234 124.818 1.8429 124.821 2.25132V76.0456C124.821 76.4563 124.658 76.8504 124.368 77.1413C124.079 77.4323 123.685 77.5965 123.274 77.5979ZM70.7758 0.766899C70.3823 0.767618 70.0052 0.924242 69.7269 1.20247C69.4487 1.4807 69.2921 1.85785 69.2914 2.25132V76.0456C69.2921 76.439 69.4487 76.8162 69.7269 77.0944C70.0052 77.3726 70.3823 77.5293 70.7758 77.53H123.274C123.668 77.5293 124.045 77.3726 124.323 77.0944C124.601 76.8162 124.758 76.439 124.759 76.0456V2.25132C124.758 1.85785 124.601 1.4807 124.323 1.20247C124.045 0.924242 123.668 0.767618 123.274 0.766899H70.7758Z" fill="#EBEBEB"/>
<path d="M20.6507 38.2913L57.5437 38.2913L57.5437 6.32726L20.6507 6.32726L20.6507 38.2913Z" fill="#E6E6E6"/>
<path d="M19.8269 38.2913L56.72 38.2913L56.72 6.32726L19.8269 6.32726L19.8269 38.2913Z" fill="#F5F5F5"/>
<path d="M55.2493 37.1483V7.46802L21.3006 7.46802V37.1483H55.2493Z" fill="#FAFAFA"/>
<path d="M41.6338 37.1483L47.7863 7.46802H34.9159L28.7661 37.1483H41.6338Z" fill="white"/>
<path d="M21.9204 37.1521L21.9204 7.4718H21.3005V37.1521H21.9204Z" fill="#E6E6E6"/>
<path d="M20.4358 31.8285L56.1108 31.8285V30.2951L20.4358 30.2951V31.8285Z" fill="#F5F5F5"/>
<path d="M55.8309 88.106H61.7224V62.5581H55.8309V88.106Z" fill="#F0F0F0"/>
<path d="M17.3584 89.7233H60.5942V88.1056H17.3584V89.7233Z" fill="#F0F0F0"/>
<path d="M55.8309 62.5554H16.2246V88.1032H55.8309V62.5554Z" fill="#F5F5F5"/>
<path d="M53.5174 65.7012H18.541V74.0803H53.5174V65.7012Z" fill="#F0F0F0"/>
<path d="M53.5174 76.5811H18.541V84.9602H53.5174V76.5811Z" fill="#F0F0F0"/>
<path d="M26.602 70.4635H45.4563C45.6082 70.4628 45.7537 70.4021 45.8611 70.2947C45.9686 70.1873 46.0292 70.0418 46.0299 69.8899C46.0292 69.7377 45.9687 69.5919 45.8613 69.484C45.754 69.3762 45.6085 69.3149 45.4563 69.3135H26.602C26.4498 69.3149 26.3043 69.3762 26.197 69.484C26.0896 69.5919 26.029 69.7377 26.0283 69.8899C26.029 70.0418 26.0897 70.1873 26.1971 70.2947C26.3046 70.4021 26.45 70.4628 26.602 70.4635Z" fill="#F5F5F5"/>
<path d="M26.602 81.3446H45.4563C45.6082 81.3439 45.7537 81.2832 45.8611 81.1758C45.9686 81.0684 46.0292 80.9229 46.0299 80.7709C46.0299 80.6186 45.9696 80.4724 45.8621 80.3644C45.7546 80.2563 45.6087 80.1953 45.4563 80.1946H26.602C26.4496 80.1953 26.3037 80.2563 26.1962 80.3644C26.0887 80.4724 26.0283 80.6186 26.0283 80.7709C26.029 80.9229 26.0897 81.0684 26.1971 81.1758C26.3046 81.2832 26.45 81.3439 26.602 81.3446Z" fill="#F5F5F5"/>
<path d="M117.377 23.0331C120.732 22.1088 121.88 16.0215 113.403 13.5366C115.273 19.6592 111.529 24.6372 117.377 23.0331Z" fill="#EBEBEB"/>
<path d="M118.12 25.6758C120.765 22.8184 118.264 16.3533 108.737 18.9959C114.126 23.7101 113.511 30.6592 118.12 25.6758Z" fill="#E0E0E0"/>
<path d="M115.51 26.4097C113.297 24.2184 116.467 16.5924 123.775 20.1267C119.634 24.0934 119.384 30.2295 115.51 26.4097Z" fill="#FAFAFA"/>
<path d="M113.302 30.6783H119.743L120.229 26.3202H112.818L113.302 30.6783Z" fill="#E6E6E6"/>
<path d="M112.745 27.1001H120.303C120.43 27.1001 120.553 27.0494 120.643 26.9592C120.733 26.8689 120.784 26.7465 120.784 26.6189C120.784 26.4913 120.733 26.3689 120.643 26.2786C120.553 26.1884 120.43 26.1377 120.303 26.1377H112.745C112.617 26.1377 112.495 26.1884 112.404 26.2786C112.314 26.3689 112.263 26.4913 112.263 26.6189C112.263 26.7465 112.314 26.8689 112.404 26.9592C112.495 27.0494 112.617 27.1001 112.745 27.1001Z" fill="#E6E6E6"/>
<path d="M59.1124 82.3416V74.9603H65.2594V67.5816H71.4092V60.2003H77.5562V52.819H83.7059V45.4404H89.853V38.0591H96.0027V30.6777H102.152H135.968V89.7229H59.1124H52.9626V82.3416H59.1124Z" fill="#FAFAFA"/>
<path d="M92.928 82.3416V74.9603H99.0778V67.5816H105.225V60.2003H111.375V52.819H117.522V45.4404H123.671V38.0591H129.818V30.6777H135.968V38.0591V89.7229H92.928H86.781V82.3416H92.928Z" fill="#E0E0E0"/>
<path d="M86.7811 82.3417H52.6013V84.5547H86.7811V82.3417Z" fill="#EBEBEB"/>
<path d="M92.9307 74.9613H58.751V77.1743H92.9307V74.9613Z" fill="#EBEBEB"/>
<path d="M99.0777 67.5822H64.8979V69.7952H99.0777V67.5822Z" fill="#EBEBEB"/>
<path d="M105.227 60.2004H71.0476V62.4135H105.227V60.2004Z" fill="#EBEBEB"/>
<path d="M111.375 52.8201H77.1948V55.0331H111.375V52.8201Z" fill="#EBEBEB"/>
<path d="M117.524 45.4409H83.3445V47.654H117.524V45.4409Z" fill="#EBEBEB"/>
<path d="M123.671 38.0593H89.4915V40.2724H123.671V38.0593Z" fill="#EBEBEB"/>
<path d="M129.821 30.6777H95.6414V32.8908H129.821V30.6777Z" fill="#EBEBEB"/>
<path d="M67.9999 102C97.1126 102 120.713 100.622 120.713 98.9224C120.713 97.2227 97.1126 95.8448 67.9999 95.8448C38.8872 95.8448 15.2866 97.2227 15.2866 98.9224C15.2866 100.622 38.8872 102 67.9999 102Z" fill="#F5F5F5"/>
<path d="M84.9316 48.1681C85.1715 47.5133 85.604 46.9464 86.1723 46.5422C86.7406 46.1379 87.4179 45.9152 88.1152 45.9034H109.879C110.255 45.8893 110.629 45.958 110.976 46.1045C111.323 46.251 111.633 46.4718 111.885 46.7512C112.137 47.0307 112.324 47.3621 112.434 47.722C112.544 48.0819 112.574 48.4616 112.521 48.8342L106.899 96.0067C106.78 96.8098 106.378 97.5442 105.767 98.0787C105.156 98.6131 104.375 98.9127 103.563 98.9239H34.5075C34.1327 98.9382 33.7593 98.8702 33.4137 98.7246C33.068 98.579 32.7584 98.3595 32.5068 98.0814C32.2551 97.8033 32.0675 97.4734 31.957 97.115C31.8466 96.7565 31.8161 96.3782 31.8676 96.0067L36.5819 56.3732C36.7012 55.5701 37.1023 54.8357 37.7134 54.3013C38.3246 53.7668 39.1059 53.4672 39.9177 53.456H77.4959C79.1242 53.4282 80.706 52.9082 82.0332 51.9644C83.3604 51.0206 84.3709 49.6971 84.9316 48.1681Z" fill="#707070"/>
<path d="M33.1101 96.7517H105.268L109.378 48.2008H37.2235L33.1101 96.7517Z" fill="#F0F0F0"/>
<path d="M33.1101 96.7517H105.268L108.242 48.2008H37.2235L33.1101 96.7517Z" fill="#E0E0E0"/>
<path d="M33.1101 96.752H105.268L107.747 46.6595H35.5923L33.1101 96.752Z" fill="#F0F0F0"/>
<path d="M33.1101 96.752H105.268L106.249 46.6595H35.5923L33.1101 96.752Z" fill="#E0E0E0"/>
<path d="M33.1101 96.7514H105.268L105.697 45.2996H33.5424L33.1101 96.7514Z" fill="#F0F0F0"/>
<path d="M33.11 96.7514H105.268L103.786 46.2729H32.0959L33.11 96.7514Z" fill="#E0E0E0"/>
<path d="M33.1101 96.752H105.268L103.125 46.6595H30.9705L33.1101 96.752Z" fill="#F0F0F0"/>
<path d="M33.11 96.7515H105.268L101.856 47.4149H29.7007L33.11 96.7515Z" fill="#E0E0E0"/>
<path d="M33.11 96.7509H105.268L101.312 47.8357H29.157L33.11 96.7509Z" fill="#F0F0F0"/>
<path d="M69.2445 51.2321C69.2485 50.9167 69.316 50.6053 69.4429 50.3164C69.5697 50.0276 69.7534 49.7673 69.983 49.5509C70.2125 49.3345 70.4833 49.1665 70.7791 49.057C71.075 48.9474 71.3898 48.8984 71.7049 48.913H93.4683C94.3109 48.9454 95.1189 49.2566 95.7655 49.7979C96.4121 50.3392 96.8606 51.0799 97.0407 51.9036L105.64 95.9469C105.961 97.5972 104.884 98.9375 103.234 98.9375H34.1784C32.5254 98.9375 30.916 97.5972 30.6033 95.9469L23.5102 59.6384C23.1894 57.9881 24.266 56.6478 25.9162 56.6478H63.4971C66.7596 56.6478 69.133 54.4021 69.2445 51.2321Z" fill="#707070"/>
<path opacity="0.2" d="M69.2445 51.2321C69.2485 50.9167 69.316 50.6053 69.4429 50.3164C69.5697 50.0276 69.7534 49.7673 69.983 49.5509C70.2125 49.3345 70.4833 49.1665 70.7791 49.057C71.075 48.9474 71.3898 48.8984 71.7049 48.913H93.4683C94.3109 48.9454 95.1189 49.2566 95.7655 49.7979C96.4121 50.3392 96.8606 51.0799 97.0407 51.9036L105.64 95.9469C105.961 97.5972 104.884 98.9375 103.234 98.9375H34.1784C32.5254 98.9375 30.916 97.5972 30.6033 95.9469L23.5102 59.6384C23.1894 57.9881 24.266 56.6478 25.9162 56.6478H63.4971C66.7596 56.6478 69.133 54.4021 69.2445 51.2321Z" fill="black"/>
</svg>
