<svg width="20" height="20" viewBox="0 0 20 20" fill="none" xmlns="http://www.w3.org/2000/svg">
<path d="M6.77076 18.7733V15.7156C6.77076 14.9351 7.40816 14.3023 8.19442 14.3023H11.0686C11.4462 14.3023 11.8083 14.4512 12.0753 14.7163C12.3423 14.9813 12.4923 15.3408 12.4923 15.7156V18.7733C12.4899 19.0978 12.6181 19.4099 12.8484 19.6402C13.0787 19.8705 13.392 20 13.7189 20H15.6798C16.5956 20.0024 17.4747 19.6428 18.1232 19.0008C18.7716 18.3588 19.136 17.487 19.136 16.5778V7.86686C19.136 7.13246 18.8081 6.43584 18.2406 5.96467L11.57 0.675869C10.4096 -0.251438 8.7471 -0.221498 7.62138 0.746979L1.103 5.96467C0.508727 6.42195 0.153539 7.12064 0.135986 7.86686V16.5689C0.135986 18.4639 1.68337 20 3.59216 20H5.50828C6.18721 20 6.73898 19.4562 6.7439 18.7822L6.77076 18.7733Z" fill="#1C1B1F"/>
</svg>
