<svg width="33" height="33" viewBox="0 0 33 33" fill="none" xmlns="http://www.w3.org/2000/svg">
<g clip-path="url(#clip0_2656_42881)">
<path fill-rule="evenodd" clip-rule="evenodd" d="M12.1659 19.2078C4.99153 19.2078 1.38353 24.4958 1.23473 24.7198C0.961129 25.131 0.89233 25.6446 1.04753 26.1134L2.64753 30.9134C2.86513 31.5678 3.47633 32.0078 4.16593 32.0078H20.1659C20.8539 32.0078 21.4651 31.5678 21.6827 30.9134L23.2827 26.1134C23.4395 25.6446 23.3707 25.131 23.0971 24.7198C22.9467 24.4958 19.3387 19.2078 12.1659 19.2078Z" fill="#423309"/>
<path fill-rule="evenodd" clip-rule="evenodd" d="M12.1641 16.0078C16.5753 16.0078 20.1641 12.419 20.1641 8.00781C20.1641 3.59661 16.5753 0.0078125 12.1641 0.0078125C7.75288 0.0078125 4.16406 3.59661 4.16406 8.00781C4.16406 12.419 7.75288 16.0078 12.1641 16.0078Z" fill="#423309"/>
<path fill-rule="evenodd" clip-rule="evenodd" d="M12.1657 3.20789C14.8121 3.20789 16.9657 5.36149 16.9657 8.00785C16.9657 10.6543 14.8121 12.8079 12.1657 12.8079C9.51932 12.8079 7.36572 10.6543 7.36572 8.00785C7.36572 5.36149 9.51932 3.20789 12.1657 3.20789Z" fill="#F5EAC9"/>
<path fill-rule="evenodd" clip-rule="evenodd" d="M19.0115 28.8078H5.31707L4.35547 25.9214C5.35067 24.795 7.95548 22.4078 12.1651 22.4078C16.3843 22.4078 18.9795 24.7902 19.9747 25.9182L19.0115 28.8078Z" fill="#F5EAC9"/>
<path fill-rule="evenodd" clip-rule="evenodd" d="M31.3641 14.4078H28.1641V11.2078C28.1641 10.323 27.4489 9.60779 26.5641 9.60779C25.6793 9.60779 24.9641 10.323 24.9641 11.2078V14.4078H21.7641C20.8793 14.4078 20.1641 15.123 20.1641 16.0078C20.1641 16.8926 20.8793 17.6078 21.7641 17.6078H24.9641V20.8078C24.9641 21.6926 25.6793 22.4078 26.5641 22.4078C27.4489 22.4078 28.1641 21.6926 28.1641 20.8078V17.6078H31.3641C32.2489 17.6078 32.9641 16.8926 32.9641 16.0078C32.9641 15.123 32.2489 14.4078 31.3641 14.4078Z" fill="#423309"/>
</g>
<defs>
<clipPath id="clip0_2656_42881">
<rect width="32" height="32" fill="white" transform="translate(0.966064 0.0078125)"/>
</clipPath>
</defs>
</svg>
