<svg width="32" height="33" viewBox="0 0 32 33" fill="none" xmlns="http://www.w3.org/2000/svg">
<path d="M32.0001 16.3866C32.0001 25.2232 24.8368 32.3867 16.0003 32.3867C7.16372 32.3867 0.000328064 25.2232 0.000328064 16.3866C0.000328064 7.55013 7.16372 0.386719 16.0003 0.386719C24.8367 0.386719 32.0001 7.55013 32.0001 16.3866Z" fill="#BEBEBE"/>
<path d="M28.6031 16.3868C28.6031 23.3468 22.9606 28.9898 16.0003 28.9898C9.03997 28.9898 3.39712 23.3468 3.39712 16.3868C3.39712 9.42625 9.03997 3.78369 16.0003 3.78369C22.9607 3.78369 28.6031 9.42615 28.6031 16.3868Z" fill="#BEBEBE"/>
<path d="M15.065 20.6609L16.1043 16.7477L18.5647 15.8488L19.1767 13.549L19.1558 13.492L16.7339 14.3768L18.4789 7.80603H13.5299L11.2478 16.381L9.34243 17.0771L8.71286 19.448L10.6168 18.7525L9.27177 23.8061H22.4429L23.2873 20.6609H15.065Z" fill="white"/>
</svg>
