<svg width="158" height="137" viewBox="0 0 158 137" fill="none" xmlns="http://www.w3.org/2000/svg">
<path d="M122.251 81.8282V81.8048C119.06 80.7449 114.163 81.1047 113.436 81.5388C112.663 82.0566 111.998 82.7209 111.48 83.4943C109.762 85.9331 108.529 88.6806 107.851 91.5862L73.1411 94.8127C71.8622 92.0516 69.9341 89.5759 67.9981 88.0819C67.445 87.6187 66.8075 87.2668 66.1209 87.0455C65.8186 87.0093 65.5126 87.0199 65.2135 87.0768C63.9542 83.4278 62.1708 79.9079 59.9415 79.685C55.2483 79.2157 47.0587 80.7879 44.8255 85.3403C42.5924 89.8927 41.8923 101.258 41.8923 101.258L40.3279 102.822C39.1869 100.6 37.5999 98.6358 35.666 97.0537C35.1147 96.5879 34.4767 96.2357 33.7887 96.0173C33.3976 95.9078 31.8332 96.1503 30.1945 96.6861C30.128 96.6235 30.0655 96.5609 29.9951 96.5023C28.4307 95.1921 25.2237 94.4764 23.4324 97.8164C21.6412 101.156 23.7922 107.48 24.8639 108.912C25.3843 109.643 26.0369 110.27 26.7881 110.762C28.0513 113.891 30.3079 117.88 33.7809 118.064C34.9705 118.128 36.1599 117.935 37.2686 117.499C38.3772 117.063 39.3792 116.394 40.2067 115.537C42.4594 113.19 42.7019 109.893 41.8532 106.667L42.2169 106.135C42.2169 106.135 43.0265 107.289 46.1279 106.823C47.027 106.731 47.8793 106.377 48.5801 105.807C50.035 109.518 52.3855 113.237 56.1205 113.793C57.7234 114.038 59.3604 113.935 60.9201 113.491C62.4797 113.047 63.9254 112.272 65.1588 111.219C65.8756 110.6 66.5011 109.883 67.0165 109.088C69.1078 108.972 71.0779 108.07 72.531 106.561C73.8311 105.175 74.5746 103.358 74.6194 101.457L79.2383 100.918C82.1378 102.211 85.3012 102.803 88.4722 102.646C91.5086 102.451 94.3829 101.207 96.6031 99.1265L107.128 98.227C107.304 102.306 108.77 106.049 112.212 108.11C113.53 108.897 115.002 109.388 116.528 109.551C118.054 109.713 119.597 109.544 121.051 109.053C125.904 107.426 127.054 100.214 127.367 95.8296C127.852 88.7898 125.607 82.8255 122.251 81.8282Z" fill="#263238" stroke="#263238" stroke-width="0.0571137" stroke-linecap="round" stroke-linejoin="round"/>
<path d="M57.9936 111.527C57.5901 112.043 57.0754 112.462 56.4879 112.751" stroke="white" stroke-width="0.0380758" stroke-linecap="round" stroke-linejoin="round"/>
<path d="M59.8906 102.258C59.8906 102.258 60.356 107.342 58.6234 110.569" stroke="white" stroke-width="0.0380758" stroke-linecap="round" stroke-linejoin="round"/>
<path d="M61.2634 107.875C60.8215 109.83 59.9415 111.727 58.2363 112.568" stroke="white" stroke-width="0.0380758" stroke-linecap="round" stroke-linejoin="round"/>
<path d="M63.3871 101.871C63.3871 101.871 64.1692 110.323 59.9884 112.364" stroke="white" stroke-width="0.0380758" stroke-linecap="round" stroke-linejoin="round"/>
<path d="M65.139 101.676C65.139 101.676 65.9212 110.131 61.7365 112.169" stroke="white" stroke-width="0.0380758" stroke-linecap="round" stroke-linejoin="round"/>
<path d="M117.902 107.602C117.453 108.169 116.894 108.641 116.26 108.99" stroke="white" stroke-width="0.0380758" stroke-linecap="round" stroke-linejoin="round"/>
<path d="M121.047 97.0449C121.047 97.0449 120.796 102.829 118.649 106.51" stroke="white" stroke-width="0.0380758" stroke-linecap="round" stroke-linejoin="round"/>
<path d="M121.606 103.451C120.902 105.677 119.776 107.835 117.996 108.774" stroke="white" stroke-width="0.0380758" stroke-linecap="round" stroke-linejoin="round"/>
<path d="M124.52 96.6152C124.52 96.6152 124.101 106.252 119.733 108.559" stroke="white" stroke-width="0.0380758" stroke-linecap="round" stroke-linejoin="round"/>
<path d="M126.264 96.4023C126.264 96.4023 125.846 106.035 121.477 108.347" stroke="white" stroke-width="0.0380758" stroke-linecap="round" stroke-linejoin="round"/>
<path d="M34.8839 116.758C34.5511 117.268 34.1122 117.7 33.5972 118.025" stroke="white" stroke-width="0.0380758" stroke-linecap="round" stroke-linejoin="round"/>
<path d="M35.5018 108.531C35.5018 108.531 36.6047 112.833 35.361 115.841" stroke="white" stroke-width="0.0380758" stroke-linecap="round" stroke-linejoin="round"/>
<path d="M37.5471 113.148C37.3711 114.889 36.7649 116.641 35.2513 117.603" stroke="white" stroke-width="0.0380758" stroke-linecap="round" stroke-linejoin="round"/>
<path d="M38.8027 107.695C38.8027 107.695 40.6409 114.833 36.902 117.183" stroke="white" stroke-width="0.0380758" stroke-linecap="round" stroke-linejoin="round"/>
<path d="M40.4531 107.271C40.4531 107.271 42.2952 114.409 38.5524 116.763" stroke="white" stroke-width="0.0380758" stroke-linecap="round" stroke-linejoin="round"/>
<path d="M53.9341 99.3599C54.8649 104.683 54.2822 109.235 52.6396 109.528C50.997 109.822 48.9046 105.731 47.9738 100.408C47.043 95.0852 47.6257 90.5328 49.2722 90.2395C50.9188 89.9461 53.0033 94.0331 53.9341 99.3599Z" fill="#2574F5" stroke="#263238" stroke-width="0.0761516" stroke-linecap="round" stroke-linejoin="round"/>
<path d="M53.1048 99.4734C53.363 101.515 53.1244 103.224 52.5651 103.294C52.0059 103.365 51.3488 101.769 51.0907 99.7276C50.8326 97.686 51.0907 95.973 51.6304 95.9026C52.1701 95.8322 52.8467 97.4318 53.1048 99.4734Z" fill="#2574F5" stroke="#263238" stroke-width="0.0761516" stroke-linecap="round" stroke-linejoin="round"/>
<path d="M49.1823 94.5923C49.2377 93.907 49.3462 93.2271 49.5069 92.5586" stroke="#263238" stroke-width="0.0571137" stroke-linecap="round" stroke-linejoin="round"/>
<path d="M51.7753 107.608C50.6931 105.441 49.919 103.134 49.4757 100.752C49.1812 99.0679 49.0619 97.3574 49.1198 95.6484" stroke="#263238" stroke-width="0.0571137" stroke-linecap="round" stroke-linejoin="round"/>
<path d="M30.9171 115.179C32.0994 114.851 32.1979 111.483 31.137 107.655C30.0762 103.827 28.2577 100.989 27.0754 101.317C25.8931 101.645 25.7947 105.013 26.8555 108.841C27.9164 112.669 29.7348 115.507 30.9171 115.179Z" fill="#2574F5" stroke="#263238" stroke-width="0.0761516" stroke-linecap="round" stroke-linejoin="round"/>
<path d="M30.7498 107.808C31.1213 109.263 31.1018 110.522 30.7029 110.624C30.3039 110.725 29.686 109.626 29.3145 108.176C28.9429 106.725 28.9625 105.457 29.3614 105.36C29.7603 105.262 30.3782 106.353 30.7498 107.808Z" stroke="#263238" stroke-width="0.0571137" stroke-linecap="round" stroke-linejoin="round"/>
<path d="M27.4725 104.629C27.4506 104.128 27.4676 103.625 27.5233 103.127" stroke="#263238" stroke-width="0.0571137" stroke-linecap="round" stroke-linejoin="round"/>
<path d="M30.5189 113.815C29.5409 112.344 28.7735 110.743 28.2388 109.059C27.8733 107.867 27.6322 106.64 27.5192 105.398" stroke="#263238" stroke-width="0.0571137" stroke-linecap="round" stroke-linejoin="round"/>
<path d="M114.754 42.3262C110.632 33.8198 108.852 33.0806 106.111 32.9398C103.369 32.799 96.8963 31.9934 89.6845 33.1471C89.6845 33.1471 69.5664 32.7951 54.0006 42.2245C37.7505 52.0685 29.8425 60.7157 28.7357 65.1977C27.6288 69.6796 23.8508 81.3579 22.0596 88.0535C20.2684 94.7491 19.0481 100.647 21.3322 106.067C22.7127 109.345 24.1833 110.33 26.0723 110.315C25.7833 109.796 25.5285 109.259 25.3096 108.707C23.4324 104.057 23.6592 97.4046 25.8024 96.9744C27.9456 96.5442 29.2245 100.999 30.5191 105.856C30.776 106.927 31.1241 107.974 31.5594 108.985C34.7625 107.777 39.8937 105.074 46.7145 102.266C46.067 97.9998 46.0525 93.6614 46.6714 89.391C47.6805 82.715 51.9474 81.2405 53.8051 85.3041C55.3421 88.6519 55.9131 96.1453 56.0656 98.6718C58.8033 97.7293 61.0952 97.1074 62.507 97.0214C62.507 97.0214 85.8478 91.7494 103.052 91.327C120.257 90.9046 128.865 90.4939 128.865 90.4939C128.865 90.4939 118.876 50.817 114.754 42.3262Z" fill="white"/>
<mask id="mask0_3092_51576" style="mask-type:luminance" maskUnits="userSpaceOnUse" x="20" y="32" width="109" height="79">
<path d="M114.754 42.3243C110.632 33.8179 108.852 33.0787 106.111 32.9379C103.369 32.7971 96.8966 31.9914 89.6847 33.1452C89.6847 33.1452 69.5666 32.7932 54.0009 42.2226C37.7507 52.0665 29.8427 60.7137 28.7359 65.1957C27.6291 69.6777 23.8511 81.3559 22.0598 88.0515C20.2686 94.7471 19.0484 100.645 21.3324 106.066C22.713 109.343 24.1835 110.328 26.0725 110.313C25.7835 109.794 25.5287 109.257 25.3099 108.705C23.4326 104.055 23.6594 97.4027 25.8027 96.9725C27.9459 96.5423 29.2248 100.997 30.5193 105.854C30.7763 106.925 31.1243 107.972 31.5596 108.983C34.7627 107.775 39.8939 105.072 46.7147 102.264C46.0672 97.9979 46.0527 93.6595 46.6717 89.3891C47.6807 82.713 51.9476 81.2386 53.8053 85.3021C55.3423 88.6499 55.9133 96.1434 56.0659 98.6699C58.8036 97.7273 61.0954 97.1055 62.5073 97.0194C62.5073 97.0194 85.848 91.7474 103.052 91.325C120.257 90.9026 128.865 90.492 128.865 90.492C128.865 90.492 118.876 50.815 114.754 42.3243Z" fill="white"/>
</mask>
<g mask="url(#mask0_3092_51576)">
<path d="M59.75 83.3672C59.75 83.3672 57.3839 86.6055 54.5054 87.2977C55.5222 91.0288 55.9407 96.5511 56.0698 98.6396C58.5141 97.7987 60.5909 97.2082 62.0145 97.0361C62.2217 95.8159 62.3469 95.0376 62.3469 95.0376L59.75 83.3672Z" fill="#2574F5"/>
<path opacity="0.2" d="M30.621 106.207C31.7083 106.317 32.4318 106.786 34.6415 106.235C38.5525 105.261 35.7405 97.7128 42.2288 94.6309C43.4883 93.9958 44.859 93.6106 46.265 93.4967C46.3233 92.1155 46.4538 90.7382 46.6561 89.3706C46.8283 88.0273 47.2249 86.7225 47.8293 85.5105C46.0577 84.9669 45.737 84.4467 42.7177 85.882C36.2255 88.9639 37.1993 96.9149 33.3079 97.8888C30.2025 98.671 30.0304 97.4234 27.6721 98.0022C28.775 99.5666 29.6276 102.613 30.488 105.824C30.5545 105.969 30.5858 106.074 30.621 106.207Z" fill="#2574F5"/>
<g style="mix-blend-mode:multiply">
<path opacity="0.2" d="M24.2342 99.5244C22.4156 100.776 21.3323 102.653 20.7144 104.237C20.882 104.862 21.0884 105.476 21.3323 106.075C22.7129 109.353 24.1834 110.338 26.0724 110.323C25.7834 109.804 25.5286 109.267 25.3098 108.715C24.1169 105.755 23.7962 101.988 24.2342 99.5244Z" fill="#2574F5"/>
</g>
<g style="mix-blend-mode:multiply" opacity="0.2">
<path d="M106.111 32.9395L105.403 32.8965C76.88 40.1944 65.2761 74.572 61.283 91.1389C61.4981 92.7854 61.7327 94.4007 61.9869 95.9729C62.4719 95.879 62.1356 97.021 62.5071 97.0015C62.5071 97.0015 85.8479 91.7295 103.052 91.3071C120.257 90.8847 128.865 90.474 128.865 90.474C128.865 90.474 118.876 50.8166 114.754 42.3259C110.632 33.8351 108.852 33.0647 106.111 32.9395Z" fill="#2574F5"/>
</g>
</g>
<path d="M114.754 42.3262C110.632 33.8198 108.852 33.0806 106.111 32.9398C103.369 32.799 96.8963 31.9934 89.6845 33.1471C89.6845 33.1471 69.5664 32.7951 54.0006 42.2245C37.7505 52.0685 29.8425 60.7157 28.7357 65.1977C27.6288 69.6797 23.8508 81.3579 22.0596 88.0535C20.2684 94.7491 19.0481 100.647 21.3322 106.067C22.7127 109.345 24.1833 110.33 26.0723 110.315C25.7833 109.796 25.5285 109.259 25.3096 108.707C23.4324 104.057 23.6592 97.4046 25.8024 96.9744C27.9456 96.5442 29.2245 100.999 30.5191 105.856C30.776 106.927 31.1241 107.974 31.5594 108.985C34.7625 107.777 39.8937 105.074 46.7145 102.266C46.067 97.9998 46.0525 93.6614 46.6714 89.391C47.6805 82.715 51.9474 81.2405 53.8051 85.3041C55.3421 88.6519 55.9131 96.1453 56.0656 98.6718C58.8033 97.7293 61.0952 97.1074 62.507 97.0214C62.507 97.0214 85.8478 91.7494 103.052 91.327C120.257 90.9046 128.865 90.4939 128.865 90.4939C128.865 90.4939 118.876 50.817 114.754 42.3262Z" stroke="#263238" stroke-width="0.0761516" stroke-linecap="round" stroke-linejoin="round"/>
<path opacity="0.2" d="M29.3771 85.2519C29.6456 85.4753 29.9723 85.6171 30.3188 85.6608C30.6653 85.7044 31.0171 85.6481 31.3326 85.4983C32.5645 85.0055 32.6897 83.1517 32.6897 83.1517L34.5357 83.0305L34.9072 77.2383L30.8398 78.8379C30.8398 78.8379 29.7486 84.5127 29.3771 85.2519Z" fill="#2574F5"/>
<path d="M24.0424 102.191C22.8746 102.812 21.7703 103.546 20.7455 104.382C20.9076 104.955 21.1035 105.517 21.3321 106.067C22.7127 109.345 24.1832 110.33 26.0722 110.315C25.7832 109.796 25.5285 109.259 25.3096 108.707C24.5078 106.626 24.0789 104.421 24.0424 102.191Z" fill="#263238" stroke="#263238" stroke-width="0.0571137" stroke-linecap="round" stroke-linejoin="round"/>
<path d="M30.2725 98.9608C30.1667 98.9603 30.0629 98.9313 29.9721 98.877C29.8813 98.8226 29.8067 98.7449 29.7563 98.6518C29.6851 98.5167 29.6698 98.359 29.7137 98.2128C29.7576 98.0665 29.8571 97.9433 29.9909 97.8696C30.0848 97.8188 37.6956 93.1022 44.0001 89.7504C44.0681 89.7142 44.1427 89.6918 44.2194 89.6844C44.2961 89.6769 44.3735 89.6847 44.4473 89.7072C44.521 89.7298 44.5896 89.7666 44.6491 89.8156C44.7085 89.8646 44.7578 89.9249 44.794 89.9929C44.8302 90.061 44.8527 90.1355 44.8601 90.2122C44.8675 90.2889 44.8597 90.3664 44.8372 90.4401C44.8147 90.5138 44.7779 90.5824 44.7289 90.6419C44.6798 90.7014 44.6196 90.7506 44.5515 90.7868C38.2509 94.1346 30.6441 98.8474 30.5502 98.8982C30.4646 98.9427 30.3689 98.9642 30.2725 98.9608Z" fill="#263238" stroke="#263238" stroke-width="0.0761516" stroke-miterlimit="10"/>
<path d="M40.2222 59.7571L39.9523 66.4722C39.8936 67.3874 40.4255 67.8293 41.1256 67.4343L51.9395 60.3945C52.337 60.1174 52.6576 59.7436 52.871 59.3085C53.0845 58.8734 53.1838 58.3912 53.1597 57.9072L53.0932 50.4176C53.015 49.7371 52.5535 49.4594 51.9864 49.7528C49.9527 50.8048 46.0261 54.3638 41.3329 57.6764C41.0149 57.9284 40.7522 58.2432 40.5611 58.6012C40.37 58.9591 40.2546 59.3526 40.2222 59.7571Z" fill="#2574F5" stroke="#263238" stroke-width="0.0761516" stroke-linecap="round" stroke-linejoin="round"/>
<path d="M47.528 57.8633L52.8117 59.1539" stroke="#263238" stroke-width="0.0761516" stroke-linecap="round" stroke-linejoin="round"/>
<path d="M40.3004 67.4658L43.5622 60.2617" stroke="#263238" stroke-width="0.0761516" stroke-linecap="round" stroke-linejoin="round"/>
<path d="M40.2848 59.5348L45.0797 60.1332C45.5764 60.2075 46.1943 59.7969 46.6441 59.0851L52.9016 50.125" stroke="#263238" stroke-width="0.0761516" stroke-linecap="round" stroke-linejoin="round"/>
<path d="M67.0555 47.2817L68.1662 64.0989C68.195 64.5844 68.3224 65.0589 68.5406 65.4934C68.7589 65.928 69.0634 66.3135 69.4357 66.6264C69.8079 66.9394 70.24 67.1732 70.7056 67.3135C71.1712 67.4539 71.6605 67.4979 72.1437 67.4428L109.501 62.5932C110.016 62.5339 110.512 62.3635 110.954 62.0939C111.397 61.8243 111.775 61.4618 112.064 61.0315C112.352 60.6012 112.544 60.1134 112.626 59.6018C112.707 59.0901 112.677 58.5669 112.536 58.0682L107.82 41.3917C107.597 40.5992 107.106 39.9082 106.432 39.4357C105.758 38.9632 104.941 38.7382 104.12 38.7987C98.0657 39.2446 83.5442 40.547 69.8362 43.6014C69.0131 43.7884 68.2826 44.2603 67.7738 44.9338C67.265 45.6072 67.0105 46.4388 67.0555 47.2817Z" fill="#2574F5" stroke="#263238" stroke-width="0.0761516" stroke-linecap="round" stroke-linejoin="round"/>
<path d="M94.8234 52.4941L111.879 60.5742" stroke="#263238" stroke-width="0.0761516" stroke-linecap="round" stroke-linejoin="round"/>
<path d="M69.5822 66.7031L83.9863 53.8125" stroke="#263238" stroke-width="0.0761516" stroke-linecap="round" stroke-linejoin="round"/>
<path d="M67.1808 46.8397L87.8504 55.3382C88.6265 55.6552 89.4779 55.7401 90.3013 55.5825C91.1247 55.4249 91.8846 55.0316 92.4888 54.4504L107.221 40.5391" stroke="#263238" stroke-width="0.0761516" stroke-linecap="round" stroke-linejoin="round"/>
<path d="M108.46 64.9721C111.971 64.8856 114.748 62.0183 114.664 58.5677C114.579 55.1171 111.663 52.3899 108.152 52.4763C104.641 52.5628 101.864 55.4301 101.949 58.8807C102.034 62.3313 104.949 65.0585 108.46 64.9721Z" fill="#3DA20B" stroke="#263238" stroke-width="0.0571137" stroke-linecap="round" stroke-linejoin="round"/>
<path d="M107.62 61.7082H107.601C107.477 61.7085 107.356 61.6796 107.246 61.6239C107.135 61.5681 107.04 61.4871 106.967 61.3875L104.468 57.938C104.346 57.7699 104.296 57.5604 104.329 57.3554C104.361 57.1504 104.474 56.9667 104.642 56.8449C104.81 56.723 105.02 56.6728 105.225 56.7055C105.43 56.7381 105.613 56.8509 105.735 57.0189L107.601 59.5923L112.059 53.4325C112.181 53.2645 112.365 53.1518 112.57 53.1191C112.775 53.0865 112.984 53.1366 113.152 53.2585C113.32 53.3804 113.433 53.564 113.466 53.769C113.498 53.974 113.448 54.1836 113.326 54.3516L108.242 61.3914C108.17 61.4887 108.076 61.568 107.969 61.623C107.861 61.678 107.741 61.7071 107.62 61.7082Z" fill="white" stroke="#263238" stroke-width="0.0761516" stroke-linecap="round" stroke-linejoin="round"/>
<path d="M83.998 78.5666C83.998 78.5666 97.2954 76.0167 106.408 76.1966L106.956 78.3867C106.956 78.3867 87.823 79.2941 84.178 81.1244L83.998 78.5666Z" fill="#263238" stroke="#263238" stroke-width="0.0571137" stroke-linecap="round" stroke-linejoin="round"/>
<path d="M84.1779 81.1146L84.569 83.3048C84.6094 83.5488 84.7438 83.7673 84.9433 83.9135C85.1429 84.0597 85.3918 84.122 85.6366 84.087C88.9727 83.6098 100.682 82.0024 106.756 82.151C106.906 82.1556 107.054 82.1248 107.19 82.0611C107.325 81.9974 107.444 81.9026 107.535 81.7844C107.627 81.6662 107.69 81.528 107.718 81.3811C107.747 81.2341 107.74 81.0825 107.699 80.9386L106.971 78.3926" stroke="#263238" stroke-width="0.0761516" stroke-linecap="round" stroke-linejoin="round"/>
<path d="M35.6541 77.2465L35.5798 68.2121L36.0296 58.9235C36.0329 58.8347 36.0094 58.7469 35.9621 58.6716C35.9148 58.5963 35.8458 58.537 35.7643 58.5016C35.6828 58.4661 35.5924 58.456 35.5051 58.4727C35.4178 58.4893 35.3375 58.532 35.2747 58.595C33.593 60.3158 30.7145 62.9205 29.8619 65.0559C28.7551 67.821 27.4449 81.4312 27.4449 81.4312L35.6541 77.2465Z" fill="#263238" stroke="#263238" stroke-width="0.0571137" stroke-linecap="round" stroke-linejoin="round"/>
<path d="M25.239 75.4336H23.9288C23.2614 75.4336 22.7203 75.9747 22.7203 76.6421V83.3925C22.7203 84.0599 23.2614 84.601 23.9288 84.601H25.239C25.9064 84.601 26.4475 84.0599 26.4475 83.3925V76.6421C26.4475 75.9747 25.9064 75.4336 25.239 75.4336Z" fill="#263238" stroke="#263238" stroke-width="0.0571137" stroke-linecap="round" stroke-linejoin="round"/>
<path d="M26.0646 69.1276C26.6848 69.2466 27.2905 69.4314 27.8714 69.6791C28.3532 69.9161 28.7909 70.2335 29.166 70.6177L31.1215 68.0325C31.1215 68.0325 28.2547 66.8319 27.7111 66.1005L27.1714 65.3652L26.0646 69.1276Z" fill="white"/>
<mask id="mask1_3092_51576" style="mask-type:luminance" maskUnits="userSpaceOnUse" x="26" y="65" width="6" height="6">
<path d="M26.0643 69.1296C26.6845 69.2485 27.2903 69.4334 27.8712 69.681C28.3529 69.9181 28.7907 70.2355 29.1657 70.6196L31.1212 68.0345C31.1212 68.0345 28.2545 66.8338 27.7109 66.1024L27.1711 65.3672L26.0643 69.1296Z" fill="white"/>
</mask>
<g mask="url(#mask1_3092_51576)">
<g style="mix-blend-mode:multiply" opacity="0.5">
<path d="M27.7069 66.1024L27.2024 65.4023L27.1438 65.4415L26.0643 69.1178C26.0643 69.1178 26.2716 69.1569 26.5649 69.2273L29.3613 67.2014C28.7501 66.934 28.1903 66.5621 27.7069 66.1024Z" fill="#2574F5"/>
</g>
</g>
<path d="M26.0646 69.1276C26.6848 69.2466 27.2905 69.4314 27.8714 69.6791C28.3532 69.9161 28.7909 70.2335 29.166 70.6177L31.1215 68.0325C31.1215 68.0325 28.2547 66.8319 27.7111 66.1005L27.1714 65.3652L26.0646 69.1276Z" stroke="#263238" stroke-width="0.0571137" stroke-linecap="round" stroke-linejoin="round"/>
<path d="M30.1944 66.9336L27.8048 69.9803L28.1294 71.0167L31.7706 67.2347L30.1944 66.9336Z" fill="#2574F5" stroke="#263238" stroke-width="0.0761516" stroke-linecap="round" stroke-linejoin="round"/>
<path d="M26.3696 58.3277C24.7543 57.0762 20.5461 57.8741 19.7209 60.8386C19.2124 62.665 19.494 65.4027 19.494 65.4027L24.2889 64.3858L24.68 64.9764C25.4622 66.1497 27.1557 65.3675 27.5937 64.9764C27.8323 64.7691 27.8166 64.159 27.754 63.6545L27.9457 63.6115C27.9457 63.6115 27.9809 59.5832 26.3696 58.3277Z" fill="#263238" stroke="#263238" stroke-width="0.0571137" stroke-linecap="round" stroke-linejoin="round"/>
<path d="M24.5782 64.0243C22.4737 63.7899 20.3434 63.9922 18.3207 64.6188C15.1919 65.6669 14.7108 66.5743 16.9518 66.5195C19.1928 66.4648 24.5782 64.0243 24.5782 64.0243Z" fill="#263238" stroke="#263238" stroke-width="0.0571137" stroke-linecap="round" stroke-linejoin="round"/>
<path d="M20.7143 62.887C21.0793 62.887 21.3753 62.4825 21.3753 61.9835C21.3753 61.4846 21.0793 61.0801 20.7143 61.0801C20.3493 61.0801 20.0533 61.4846 20.0533 61.9835C20.0533 62.4825 20.3493 62.887 20.7143 62.887Z" fill="#2574F5"/>
<path d="M35.5799 68.2129C35.5799 68.2129 31.2973 67.1256 29.9793 68.1268C28.6613 69.1281 28.325 70.7824 28.7474 72.7887C29.1698 74.7951 30.1984 80.071 30.1984 80.071L35.6542 77.2473L35.5799 68.2129Z" fill="#263238" stroke="#263238" stroke-width="0.0571137" stroke-linecap="round" stroke-linejoin="round"/>
<path d="M28.7825 79.2307C28.7825 79.2307 28.5517 81.2566 28.2819 81.5421C28.012 81.8276 20.894 75.8477 20.4599 75.2845C20.0258 74.7213 20.323 72.7111 20.4599 72.0814C20.5968 71.4517 20.366 71.1076 19.6777 71.5417C18.9894 71.9758 19.1732 73.7827 19.1732 73.7827C19.1732 73.7827 17.073 73.2782 16.6545 73.2195C16.236 73.1608 15.8723 73.681 15.9349 74.0956C15.9975 74.5101 16.5489 74.5453 16.5489 74.5453C16.4078 75.1456 16.4473 75.7743 16.6623 76.3522C17.03 77.1109 17.4445 77.5881 18.2267 77.7758C19.0338 77.9017 19.8508 77.9514 20.6672 77.9244C20.6672 77.9244 24.3044 81.3896 25.3604 82.6841C26.4163 83.9786 28.6417 85.7386 29.7485 85.4218C30.8553 85.105 31.9113 79.5788 31.9113 79.5788L28.7825 79.2307Z" fill="white"/>
<mask id="mask2_3092_51576" style="mask-type:luminance" maskUnits="userSpaceOnUse" x="15" y="71" width="17" height="15">
<path d="M28.7824 79.2287C28.7824 79.2287 28.5516 81.2546 28.2818 81.5401C28.0119 81.8256 20.8939 75.8457 20.4598 75.2825C20.0257 74.7194 20.3229 72.7091 20.4598 72.0795C20.5967 71.4498 20.3659 71.1056 19.6776 71.5397C18.9893 71.9739 19.1731 73.7807 19.1731 73.7807C19.1731 73.7807 17.0729 73.2762 16.6544 73.2176C16.2359 73.1589 15.8722 73.679 15.9348 74.0936C15.9974 74.5082 16.5488 74.5434 16.5488 74.5434C16.4077 75.1437 16.4472 75.7723 16.6622 76.3503C17.0299 77.109 17.4444 77.5861 18.2266 77.7739C19.0336 77.8997 19.8507 77.9495 20.6671 77.9225C20.6671 77.9225 24.3043 81.3876 25.3603 82.6821C26.4162 83.9767 28.6416 85.7366 29.7484 85.4198C30.8552 85.103 31.9112 79.5768 31.9112 79.5768L28.7824 79.2287Z" fill="white"/>
</mask>
<g mask="url(#mask2_3092_51576)">
<g style="mix-blend-mode:multiply" opacity="0.5">
<path d="M28.2819 81.5438L30.3625 82.2361C30.4285 82.6725 30.3363 83.1182 30.1025 83.4926C29.8687 83.867 29.5087 84.1454 29.0875 84.2776C28.1685 84.5827 26.518 83.5384 25.3447 82.6585L25.3799 82.7015C26.4554 84 28.6612 85.756 29.7681 85.4392C30.8749 85.1224 31.9308 79.5962 31.9308 79.5962L28.7825 79.2051C28.7825 79.2051 28.5517 81.2583 28.2819 81.5438Z" fill="#2574F5"/>
</g>
</g>
<path d="M28.7825 79.2307C28.7825 79.2307 28.5517 81.2566 28.2819 81.5421C28.012 81.8276 20.894 75.8477 20.4599 75.2845C20.0258 74.7213 20.323 72.7111 20.4599 72.0814C20.5968 71.4517 20.366 71.1076 19.6777 71.5417C18.9894 71.9758 19.1732 73.7827 19.1732 73.7827C19.1732 73.7827 17.073 73.2782 16.6545 73.2195C16.236 73.1608 15.8723 73.681 15.9349 74.0956C15.9975 74.5101 16.5489 74.5453 16.5489 74.5453C16.4078 75.1456 16.4473 75.7743 16.6623 76.3522C17.03 77.1109 17.4445 77.5881 18.2267 77.7758C19.0338 77.9017 19.8508 77.9514 20.6672 77.9244C20.6672 77.9244 24.3044 81.3896 25.3604 82.6841C26.4163 83.9786 28.6417 85.7386 29.7485 85.4218C30.8553 85.105 31.9113 79.5788 31.9113 79.5788L28.7825 79.2307Z" stroke="#263238" stroke-width="0.0571137" stroke-linecap="round" stroke-linejoin="round"/>
<path d="M21.6683 76.3828L20.6671 77.9394L21.1795 78.2875L22.2041 76.8209L21.6683 76.3828Z" fill="#263238" stroke="#263238" stroke-width="0.0761516" stroke-miterlimit="10"/>
<path d="M21.3243 77.8486C21.5403 77.8486 21.7154 77.6735 21.7154 77.4575C21.7154 77.2415 21.5403 77.0664 21.3243 77.0664C21.1083 77.0664 20.9332 77.2415 20.9332 77.4575C20.9332 77.6735 21.1083 77.8486 21.3243 77.8486Z" fill="white" stroke="#263238" stroke-width="0.0571137" stroke-linecap="round" stroke-linejoin="round"/>
<path d="M20.3661 65.9019C20.3661 65.9019 20.6047 66.4925 21.0036 67.5289C21.4025 68.5653 23.5457 70.7515 24.5939 70.8767C25.642 71.0018 26.8974 67.1925 27.0969 66.4064C27.1634 66.1483 27.2299 65.7338 27.2299 65.7338C27.2299 65.7338 28.5479 65.1119 28.2428 64.361C27.9378 63.6101 27.3198 63.2659 27.0265 63.4967C26.7332 63.7274 26.6823 64.7012 26.2443 64.7091C25.8063 64.7169 25.5677 64.58 25.1805 64.0638C24.7933 63.5475 20.7807 64.6191 20.3661 65.9019Z" fill="white"/>
<mask id="mask3_3092_51576" style="mask-type:luminance" maskUnits="userSpaceOnUse" x="20" y="63" width="9" height="8">
<path d="M20.3661 65.9C20.3661 65.9 20.6047 66.4905 21.0036 67.5269C21.4025 68.5634 23.5457 70.7496 24.5939 70.8747C25.642 70.9999 26.8974 67.1906 27.0969 66.4045C27.1634 66.1464 27.2299 65.7318 27.2299 65.7318C27.2299 65.7318 28.5479 65.1099 28.2428 64.359C27.9378 63.6081 27.3198 63.264 27.0265 63.4947C26.7332 63.7255 26.6823 64.6993 26.2443 64.7071C25.8063 64.7149 25.5677 64.5781 25.1805 64.0618C24.7933 63.5456 20.7807 64.6172 20.3661 65.9Z" fill="white"/>
</mask>
<g mask="url(#mask3_3092_51576)">
<path opacity="0.5" d="M25.1727 64.0644C24.7816 63.5521 20.7807 64.6237 20.3661 65.9026L20.5929 66.4814C22.1223 65.5591 23.7843 64.8771 25.5208 64.4594C25.391 64.3405 25.2743 64.2081 25.1727 64.0644Z" fill="#2574F5"/>
<g style="mix-blend-mode:multiply">
<path opacity="0.5" d="M28.1921 64.2576C27.8714 63.5849 27.3043 63.2798 27.0188 63.4989C26.8398 63.7323 26.7071 63.9978 26.6277 64.2811C27.1472 64.2229 27.6711 64.215 28.1921 64.2576Z" fill="#2574F5"/>
</g>
</g>
<path d="M20.3661 65.9019C20.3661 65.9019 20.6047 66.4925 21.0036 67.5289C21.4025 68.5653 23.5457 70.7515 24.5939 70.8767C25.642 71.0018 26.8974 67.1925 27.0969 66.4064C27.1634 66.1483 27.2299 65.7338 27.2299 65.7338C27.2299 65.7338 28.5479 65.1119 28.2428 64.361C27.9378 63.6101 27.3198 63.2659 27.0265 63.4967C26.7332 63.7274 26.6823 64.7012 26.2443 64.7091C25.8063 64.7169 25.5677 64.58 25.1805 64.0638C24.7933 63.5475 20.7807 64.6191 20.3661 65.9019Z" stroke="#263238" stroke-width="0.0571137" stroke-linecap="round" stroke-linejoin="round"/>
<path d="M21.7859 66.1828C21.8563 66.4214 21.8328 66.6404 21.7389 66.6678C21.6451 66.6952 21.5082 66.5231 21.4378 66.2767C21.3674 66.0303 21.3908 65.8191 21.4847 65.7917C21.5786 65.7643 21.7155 65.9521 21.7859 66.1828Z" fill="#263238" stroke="#263238" stroke-width="0.0761516" stroke-miterlimit="10"/>
<path d="M21.0582 65.5185C21.6058 65.3621 21.8404 65.7727 21.9069 66.1521L22.0086 66.6019L22.3489 68.3422L22.8651 68.1232" stroke="#263238" stroke-width="0.0380758" stroke-linecap="round" stroke-linejoin="round"/>
<path d="M23.2877 65.6515C23.4067 65.521 23.5547 65.4204 23.7199 65.3579C23.885 65.2954 24.0625 65.2727 24.2381 65.2917" stroke="#263238" stroke-width="0.0380758" stroke-linecap="round" stroke-linejoin="round"/>
<path d="M23.7415 64.5684C23.519 64.6149 23.3148 64.725 23.1537 64.8854C22.9926 65.0458 22.8816 65.2495 22.8341 65.4718" stroke="#263238" stroke-width="0.0380758" stroke-linecap="round" stroke-linejoin="round"/>
<path d="M23.3307 68.6868C23.3307 68.6868 24.4649 68.46 24.5548 67.6465" stroke="#263238" stroke-width="0.0380758" stroke-linecap="round" stroke-linejoin="round"/>
<path d="M32.9594 82.1635L27.2338 80.5678C27.2338 80.5678 27.7383 70.7904 28.6222 69.136C29.9988 66.5665 33.155 67.7242 33.7495 70.9546C34.3048 74.0052 32.9594 82.1635 32.9594 82.1635Z" fill="#2574F5" stroke="#263238" stroke-width="0.0761516" stroke-linecap="round" stroke-linejoin="round"/>
<path d="M27.3707 79.4805C27.3707 79.4805 30.4995 80.2001 32.4042 80.8258" stroke="#263238" stroke-width="0.0380758" stroke-linecap="round" stroke-linejoin="round"/>
<path d="M32.3258 67.4258C32.3258 67.4258 34.1874 67.5705 35.4038 68.5717" stroke="#2574F5" stroke-width="0.0380758" stroke-linecap="round" stroke-linejoin="round"/>
<path d="M65.1314 92.4373C65.1314 92.4373 56.7931 95.3784 56.0305 96.1801C55.2678 96.9819 55.3461 100.111 57.1451 101.632C58.9442 103.153 71.7683 99.7039 80.9357 98.6988C90.103 97.6937 110.229 96.2153 118.442 95.8164C126.655 95.4175 130.39 96.5008 131.11 93.9391C131.829 91.3774 131.739 88.6397 130.175 88.0844C128.611 87.529 100.107 82.9649 65.1314 92.4373Z" fill="#263238" stroke="#263238" stroke-width="0.0571137" stroke-linecap="round" stroke-linejoin="round"/>
<path d="M55.4359 97.8888C55.4359 97.8888 55.827 101.28 57.9116 101.8C59.9961 102.32 84.7683 97.6267 99.368 97.1066C113.968 96.5864 126.745 96.1953 126.745 96.1953" stroke="white" stroke-width="0.0380758" stroke-linecap="round" stroke-linejoin="round"/>
<path d="M67.5366 99.6115C77.2202 97.2649 97.1389 93.9484 130.656 94.8909" stroke="white" stroke-width="0.0380758" stroke-linecap="round" stroke-linejoin="round"/>
<path d="M59.5973 101.676C59.5973 101.676 61.8226 101.136 65.2057 100.213" stroke="white" stroke-width="0.0380758" stroke-linecap="round" stroke-linejoin="round"/>
<path d="M61.6389 102.062C61.7442 103.516 61.7049 104.977 61.5216 106.423" stroke="white" stroke-width="0.0380758" stroke-linecap="round" stroke-linejoin="round"/>
<path d="M61.2828 39.5215C61.2828 39.5215 59.4173 41.7077 59.2726 43.6671" stroke="#263238" stroke-width="0.0571137" stroke-linecap="round" stroke-linejoin="round"/>
<path d="M59.0772 45.248C59.0772 45.248 57.6731 67.5837 61.3886 91.3547" stroke="#263238" stroke-width="0.0571137" stroke-linecap="round" stroke-linejoin="round"/>
<path d="M59.5192 71.0567C59.5192 71.0567 56.4882 72.1126 56.4491 73.4815C56.3474 77.1617 56.7346 85.015 57.5363 85.7776C58.3381 86.5403 60.8294 84.5222 60.8294 84.5222C60.8294 84.5222 64.3492 84.8272 64.7403 84.0372C65.1314 83.2472 63.6648 72.1283 63.4458 71.1583C63.2268 70.1884 59.5192 71.0567 59.5192 71.0567Z" fill="#2574F5" stroke="#263238" stroke-width="0.0761516" stroke-linecap="round" stroke-linejoin="round"/>
<path d="M122.83 76.3521C123.619 76.7376 124.476 76.9635 125.353 77.017C124.383 73.3719 123.284 69.3123 122.15 65.2606C121.125 65.1902 119.803 65.1902 119.83 65.6517C119.85 66.4417 121.841 75.7811 122.83 76.3521Z" fill="#2574F5" stroke="#263238" stroke-width="0.0761516" stroke-linecap="round" stroke-linejoin="round"/>
<path d="M59.085 72.207C59.085 72.207 59.2179 79.2468 59.7381 81.9845" stroke="#263238" stroke-width="0.0571137" stroke-linecap="round" stroke-linejoin="round"/>
<path d="M95.6447 73.8318C95.6447 73.8318 113.095 71.0198 133.429 74.614" stroke="#263238" stroke-width="0.0761516" stroke-linecap="round" stroke-linejoin="round"/>
<path d="M148.772 84.8574C149.972 85.2172 151.153 85.5966 152.291 86.0033" stroke="#263238" stroke-width="0.0761516" stroke-linecap="round" stroke-linejoin="round"/>
<path d="M117.441 79.5469C117.441 79.5469 131.278 80.3877 144.528 83.7003" stroke="#263238" stroke-width="0.0761516" stroke-linecap="round" stroke-linejoin="round"/>
<path d="M75.3273 111.77C86.7206 110.029 98.2958 109.822 109.744 111.156" stroke="#263238" stroke-width="0.0761516" stroke-linecap="round" stroke-linejoin="round"/>
<path d="M73.8959 109.927C73.8959 109.927 82.0855 108.903 84.7489 108.699" stroke="#263238" stroke-width="0.0761516" stroke-linecap="round" stroke-linejoin="round"/>
<path d="M128.743 33.9688C129.917 34.1369 131.09 34.3598 132.154 34.6141" stroke="#263238" stroke-width="0.0761516" stroke-linecap="round" stroke-linejoin="round"/>
<path d="M111.883 33.5806C116.702 33.2402 121.54 33.2729 126.354 33.6784" stroke="#263238" stroke-width="0.0761516" stroke-linecap="round" stroke-linejoin="round"/>
<path d="M48.7833 80.9578C48.7833 80.9578 60.4694 75.4237 77.3766 73.8867" stroke="#263238" stroke-width="0.0761516" stroke-linecap="round" stroke-linejoin="round"/>
<path d="M68.4636 70.8116C68.4636 70.8116 75.5386 68.9695 86.3016 68.3516" stroke="#263238" stroke-width="0.0761516" stroke-linecap="round" stroke-linejoin="round"/>
<path d="M48.5919 109.885C50.0121 112.428 52.304 114.373 55.045 115.36" stroke="#263238" stroke-width="0.0761516" stroke-linecap="round" stroke-linejoin="round"/>
<path d="M48.2006 111.645C48.2006 111.645 49.9605 114.382 52.3071 115.556" stroke="#263238" stroke-width="0.0761516" stroke-linecap="round" stroke-linejoin="round"/>
<path d="M105.888 101.867C105.888 101.867 107.061 107.343 111.754 109.689" stroke="#263238" stroke-width="0.0761516" stroke-linecap="round" stroke-linejoin="round"/>
<path d="M106.474 106.756C107.404 108.118 108.689 109.2 110.19 109.885" stroke="#263238" stroke-width="0.0761516" stroke-linecap="round" stroke-linejoin="round"/>
<path d="M29.0992 117.301C29.0992 117.301 30.2725 119.256 34.3791 119.256" stroke="#263238" stroke-width="0.0761516" stroke-linecap="round" stroke-linejoin="round"/>
<path d="M28.317 118.473C29.8131 119.717 31.6572 120.468 33.5968 120.624" stroke="#263238" stroke-width="0.0761516" stroke-linecap="round" stroke-linejoin="round"/>
<path d="M81.1859 113.648C70.7989 114.213 60.4883 115.756 50.3907 118.255L50.6332 118.619C50.6332 118.619 59.2374 116.793 75.1395 120.704C91.0415 124.615 92.0897 127.744 109.556 127.744C127.023 127.744 143.973 123.574 143.973 123.574L141.853 122.401C126.17 115.764 104.675 112.334 81.1859 113.648Z" fill="#2574F5"/>
<path opacity="0.5" d="M81.1859 113.648C70.7989 114.213 60.4883 115.756 50.3907 118.255L50.6332 118.619C50.6332 118.619 59.2374 116.793 75.1395 120.704C91.0415 124.615 92.0897 127.744 109.556 127.744C127.023 127.744 143.973 123.574 143.973 123.574L141.853 122.401C126.17 115.764 104.675 112.334 81.1859 113.648Z" fill="white"/>
<path d="M42.9207 122.595C42.9207 122.595 63.4533 119.466 81.2483 131.395" stroke="#263238" stroke-width="0.0761516" stroke-linecap="round" stroke-linejoin="round"/>
<path d="M64.4313 127.094C64.4313 127.094 72.8399 129.636 77.9242 135.111" stroke="#263238" stroke-width="0.0761516" stroke-linecap="round" stroke-linejoin="round"/>
<path d="M114.101 117.121C114.101 117.121 126.029 118.294 136.784 124.748" stroke="#263238" stroke-width="0.0761516" stroke-linecap="round" stroke-linejoin="round"/>
<path d="M151.294 127.227C153.442 128.541 155.487 130.017 157.411 131.642" stroke="#263238" stroke-width="0.0761516" stroke-linecap="round" stroke-linejoin="round"/>
<path d="M11.3628 136.452C25.6183 124.328 51.3761 115.332 81.1857 113.647C108.394 112.102 132.936 116.975 148.846 125.771" stroke="#263238" stroke-width="0.0761516" stroke-linecap="round" stroke-linejoin="round"/>
<path d="M98.261 116.924C98.261 116.924 110.581 117.51 118.794 120.248" stroke="#263238" stroke-width="0.0761516" stroke-linecap="round" stroke-linejoin="round"/>
<path d="M42.4049 24.0743C42.4049 24.0743 42.0138 18.6654 34.0941 18.4698C26.1743 18.2743 28.2941 23.8826 26.1704 25.2358C24.0467 26.589 23.464 24.4536 21.3364 25.8147C19.2089 27.1757 20.1631 29.8743 18.4384 30.2615C16.7136 30.6487 14.3788 28.5211 12.2551 29.8704C10.1314 31.2197 10.1275 32.3812 9.16152 32.3812C8.19551 32.3812 6.26348 31.599 5.10583 32.3812C3.94818 33.1634 2.59106 34.1099 2.59106 34.1099H51.4784C51.4784 34.1099 52.0572 32.3695 49.914 31.2118C47.7708 30.0542 46.8204 31.0163 46.05 30.0385C45.2795 29.0608 48.201 26.589 42.4049 24.0743Z" fill="#2574F5"/>
<path d="M71.4516 3.37426C71.4516 3.37426 71.217 0.120315 66.4534 0.00298557C61.6898 -0.114344 62.9648 3.26084 61.6859 4.07432C60.407 4.88781 60.0589 3.60891 58.78 4.4224C57.5011 5.23589 58.0839 6.86286 57.0357 7.09361C55.9876 7.32435 54.5953 6.04937 53.3164 6.86286C52.0375 7.67634 52.0375 8.3725 51.4547 8.3725C50.872 8.3725 49.7104 7.911 49.0143 8.3725C48.3181 8.834 47.5046 9.42064 47.5046 9.42064H76.9153C76.9153 9.42064 77.2633 8.3725 75.9845 7.67634C74.7056 6.98019 74.1267 7.55901 73.6613 6.98019C73.1959 6.40136 74.9402 4.88781 71.4516 3.37426Z" fill="#2574F5"/>
<path opacity="0.7" d="M42.4049 24.0743C42.4049 24.0743 42.0138 18.6654 34.0941 18.4698C26.1743 18.2743 28.2941 23.8826 26.1704 25.2358C24.0467 26.589 23.464 24.4536 21.3364 25.8147C19.2089 27.1757 20.1631 29.8743 18.4384 30.2615C16.7136 30.6487 14.3788 28.5211 12.2551 29.8704C10.1314 31.2197 10.1275 32.3812 9.16152 32.3812C8.19551 32.3812 6.26348 31.599 5.10583 32.3812C3.94818 33.1634 2.59106 34.1099 2.59106 34.1099H51.4784C51.4784 34.1099 52.0572 32.3695 49.914 31.2118C47.7708 30.0542 46.8204 31.0163 46.05 30.0385C45.2795 29.0608 48.201 26.589 42.4049 24.0743Z" fill="white"/>
<path opacity="0.8" d="M71.4516 3.37426C71.4516 3.37426 71.217 0.120315 66.4534 0.00298557C61.6898 -0.114344 62.9648 3.26084 61.6859 4.07432C60.407 4.88781 60.0589 3.60891 58.78 4.4224C57.5011 5.23589 58.0839 6.86286 57.0357 7.09361C55.9876 7.32435 54.5953 6.04937 53.3164 6.86286C52.0375 7.67634 52.0375 8.3725 51.4547 8.3725C50.872 8.3725 49.7104 7.911 49.0143 8.3725C48.3181 8.834 47.5046 9.42064 47.5046 9.42064H76.9153C76.9153 9.42064 77.2633 8.3725 75.9845 7.67634C74.7056 6.98019 74.1267 7.55901 73.6613 6.98019C73.1959 6.40136 74.9402 4.88781 71.4516 3.37426Z" fill="white"/>
</svg>
