<svg width="32" height="33" viewBox="0 0 32 33" fill="none" xmlns="http://www.w3.org/2000/svg">
<g clip-path="url(#clip0_1181_26458)">
<path d="M20.1481 0.386719H11.8519C5.30625 0.386719 0 5.69297 0 12.2386V20.5349C0 27.0805 5.30625 32.3867 11.8519 32.3867H20.1481C26.6937 32.3867 32 27.0805 32 20.5349V12.2386C32 5.69297 26.6937 0.386719 20.1481 0.386719Z" fill="#8247E5"/>
<path d="M19.5151 13.8528C19.2443 13.698 18.8961 13.698 18.5867 13.8528L16.4203 15.1294L14.9502 15.9418L12.8225 17.2185C12.5517 17.3732 12.2036 17.3732 11.894 17.2185L10.2306 16.2126C9.95976 16.0579 9.76634 15.7484 9.76634 15.4002V13.4659C9.76634 13.1565 9.92106 12.847 10.2306 12.6535L11.894 11.6864C12.1649 11.5316 12.513 11.5316 12.8225 11.6864L14.486 12.6922C14.7568 12.847 14.9502 13.1565 14.9502 13.5046V14.7812L16.4203 13.9302V12.6148C16.4203 12.3054 16.2655 11.9959 15.956 11.8025L12.8612 9.98421C12.5904 9.82948 12.2423 9.82948 11.9327 9.98421L8.76053 11.8412C8.45102 11.9959 8.2963 12.3054 8.2963 12.6148V16.2513C8.2963 16.5608 8.45102 16.8703 8.76053 17.0637L11.894 18.8819C12.1649 19.0367 12.513 19.0367 12.8225 18.8819L14.9502 17.644L16.4203 16.7929L18.548 15.5549C18.8188 15.4002 19.1669 15.4002 19.4764 15.5549L21.1399 16.5221C21.4107 16.6768 21.6041 16.9863 21.6041 17.3345V19.2688C21.6041 19.5783 21.4494 19.8877 21.1399 20.0812L19.5151 21.0483C19.2443 21.2031 18.8961 21.2031 18.5867 21.0483L16.9232 20.0812C16.6524 19.9264 16.459 19.6169 16.459 19.2688V18.0308L14.9889 18.8819V20.1585C14.9889 20.468 15.1436 20.7775 15.4532 20.9709L18.5867 22.7892C18.8575 22.9439 19.2056 22.9439 19.5151 22.7892L22.6487 20.9709C22.9195 20.8162 23.1129 20.5067 23.1129 20.1585V16.4834C23.1129 16.1739 22.9581 15.8644 22.6487 15.671L19.5151 13.8528Z" fill="#FDFCFF"/>
</g>
<defs>
<clipPath id="clip0_1181_26458">
<rect width="32" height="32" fill="white" transform="translate(0 0.386719)"/>
</clipPath>
</defs>
</svg>
