<svg width="124" height="36" viewBox="0 0 124 36" fill="none" xmlns="http://www.w3.org/2000/svg">
<path d="M28.6105 27.742L19.0215 31.1847C18.7383 31.2857 18.4323 31.3043 18.1389 31.2384C17.8455 31.1725 17.5769 31.0248 17.364 30.8125C17.1512 30.6001 17.0029 30.3318 16.9363 30.0385C16.8698 29.7453 16.8877 29.4393 16.988 29.1558L18.3123 25.4263C18.4383 25.078 18.4384 24.6966 18.3127 24.3482C18.1869 23.9999 17.9432 23.7065 17.6238 23.519L10.7385 19.5324C10.5365 19.4152 10.3112 19.3439 10.0785 19.3236C9.84586 19.3034 9.61161 19.3347 9.39244 19.4154C9.17327 19.496 8.97459 19.624 8.81054 19.7903C8.6465 19.9565 8.52113 20.1568 8.44336 20.377L3.58692 33.9939C2.9879 35.6808 0.5 35.2493 0.5 33.4614L0.548197 9.75069C0.548951 9.42385 0.650522 9.1052 0.839053 8.83822C1.02758 8.57123 1.29389 8.36892 1.60165 8.25887L11.1906 4.82769C11.4736 4.72601 11.7797 4.70678 12.0732 4.77223C12.3668 4.83769 12.6357 4.98514 12.8487 5.19743C13.0617 5.40973 13.2101 5.67814 13.2765 5.97144C13.343 6.26475 13.3248 6.57089 13.2241 6.85426L12.189 9.76675C12.0658 10.1169 12.0687 10.4992 12.1974 10.8474C12.326 11.1957 12.5723 11.488 12.8936 11.674L19.7789 15.6583C19.9808 15.776 20.2061 15.8476 20.4389 15.8681C20.6717 15.8885 20.9061 15.8573 21.1254 15.7766C21.3447 15.6959 21.5434 15.5677 21.7074 15.4012C21.8714 15.2348 21.9966 15.0342 22.074 14.8137L26.6275 2.00241C27.2242 0.320096 29.7167 0.751576 29.7121 2.53717L29.6639 26.2502C29.6638 26.5772 29.5625 26.8962 29.3739 27.1633C29.1853 27.4304 28.9186 27.6326 28.6105 27.742Z" fill="#2574F5"/>
<path d="M40.4736 25.0958V7.06774H44.0724V10.5999L43.6478 10.1248C44.0441 9.04668 44.7962 8.13591 45.7799 7.54283C46.8093 6.93941 47.986 6.63352 49.179 6.65921C50.4117 6.63455 51.6294 6.93285 52.7111 7.52447C53.7174 8.0873 54.5477 8.91838 55.1095 9.92515C55.703 11.0063 56.0021 12.2243 55.9771 13.4573V25.0866H52.2383V14.4649C52.2622 13.6638 52.0905 12.8689 51.738 12.1491C51.4197 11.5322 50.9273 11.0222 50.3219 10.6825C49.68 10.3435 48.9651 10.1662 48.2391 10.1662C47.5132 10.1662 46.7982 10.3435 46.1563 10.6825C45.5475 11.0261 45.0546 11.543 44.7402 12.1675C44.3913 12.8811 44.2197 13.6684 44.2399 14.4626V25.0935L40.4736 25.0958Z" fill="#101028"/>
<path d="M64.2534 25.5018C63.1475 25.5259 62.05 25.304 61.0403 24.8522C60.1707 24.4631 59.4262 23.8402 58.8898 23.0529C58.3675 22.2453 58.1003 21.2992 58.1232 20.3378C58.0961 19.4002 58.3314 18.4737 58.8026 17.6627C59.2738 16.8516 59.9622 16.1884 60.7901 15.7476C61.8547 15.1627 63.0178 14.7784 64.2213 14.6138L70.4869 13.581V16.5325L64.9557 17.4987C63.9551 17.6762 63.2222 17.9929 62.757 18.4489C62.525 18.6756 62.3429 18.9483 62.2224 19.2494C62.1018 19.5506 62.0455 19.8736 62.057 20.1978C62.0485 20.5196 62.1147 20.839 62.2505 21.1309C62.3863 21.4229 62.588 21.6793 62.8396 21.8801C63.412 22.3306 64.127 22.561 64.8547 22.5296C65.7923 22.55 66.7184 22.3203 67.5377 21.864C68.282 21.4411 68.8981 20.8249 69.321 20.0807C69.7469 19.3231 69.9654 18.4665 69.9545 17.5974V12.9659C69.9652 12.5514 69.8823 12.1399 69.7118 11.762C69.5413 11.384 69.2877 11.0495 68.9699 10.7832C68.3165 10.2171 67.4452 9.93405 66.3557 9.93405C65.4231 9.91395 64.5077 10.1878 63.7393 10.7167C63.0103 11.2194 62.4383 11.918 62.0891 12.7318L58.9563 11.1665C59.3023 10.2621 59.8631 9.45555 60.5904 8.81633C61.3657 8.12701 62.2644 7.59048 63.239 7.23501C64.2671 6.85381 65.3557 6.66176 66.4521 6.66812C67.7573 6.6428 69.051 6.91599 70.2345 7.46681C71.2772 7.95421 72.164 8.72179 72.7958 9.68389C73.4176 10.6639 73.7369 11.8055 73.7139 12.9659V25.0955H70.1174V21.8296L70.884 21.9306C70.4699 22.6568 69.9252 23.3003 69.2774 23.8286C68.6115 24.3685 67.8555 24.7865 67.0443 25.0634C66.145 25.3643 65.2017 25.5125 64.2534 25.5018Z" fill="#101028"/>
<path d="M76.4819 25.0954V21.9971L87.0807 9.16741L87.6798 10.4664H76.9823V7.06738H91.0123V10.1245L80.5489 22.9771L79.9475 21.6459H91.0444V25.0886L76.4819 25.0954Z" fill="#101028"/>
<path d="M92.1782 25.0954V21.9971L102.775 9.16741L103.376 10.4664H92.6786V7.06738H106.706V10.1245L96.2429 22.9771L95.6438 21.6459H106.741V25.0886L92.1782 25.0954Z" fill="#101028"/>
<path d="M114.216 25.5018C113.11 25.5254 112.012 25.3036 111.003 24.8522C110.133 24.4638 109.389 23.8407 108.854 23.0529C108.331 22.2458 108.064 21.2994 108.088 20.3378C108.062 19.4007 108.298 18.475 108.768 17.6643C109.239 16.8536 109.926 16.1899 110.752 15.7476C111.821 15.1613 112.988 14.777 114.195 14.6138L120.447 13.5672V16.5325L114.916 17.4987C113.915 17.6762 113.182 17.9929 112.717 18.4489C112.486 18.6759 112.304 18.9487 112.183 19.2497C112.063 19.5508 112.006 19.8737 112.017 20.1978C112.009 20.5195 112.076 20.8388 112.211 21.1306C112.347 21.4224 112.548 21.6789 112.8 21.8801C113.373 22.3309 114.089 22.5614 114.817 22.5296C115.754 22.5505 116.679 22.3207 117.498 21.864C118.242 21.4411 118.858 20.8249 119.281 20.0807C119.707 19.3231 119.925 18.4665 119.915 17.5974V12.9659C119.925 12.5512 119.842 12.1396 119.671 11.7617C119.5 11.3837 119.246 11.0493 118.928 10.7832C118.271 10.2171 117.399 9.93405 116.311 9.93405C115.379 9.91395 114.463 10.1878 113.695 10.7167C112.966 11.2198 112.393 11.9182 112.042 12.7318L108.912 11.1665C109.258 10.2612 109.821 9.45434 110.55 8.81633C111.323 8.128 112.218 7.59151 113.19 7.23501C114.218 6.85401 115.307 6.66196 116.403 6.66812C117.708 6.6428 119.002 6.91599 120.185 7.46681C121.23 7.95288 122.119 8.72066 122.751 9.68389C123.374 10.6635 123.693 11.8053 123.669 12.9659V25.0955H120.075V21.8296L120.842 21.9306C120.428 22.6567 119.883 23.3001 119.235 23.8286C118.57 24.3689 117.815 24.787 117.004 25.0634C116.106 25.3636 115.163 25.5118 114.216 25.5018Z" fill="#101028"/>
</svg>
