<svg width="130" height="36" viewBox="0 0 130 36" fill="none" xmlns="http://www.w3.org/2000/svg">
<g clip-path="url(#clip0_1837_4775)">
<path d="M29.5631 28.1294L19.5119 31.738C19.2151 31.8439 18.8943 31.8634 18.5868 31.7944C18.2793 31.7253 17.9977 31.5705 17.7745 31.3479C17.5514 31.1253 17.396 30.844 17.3263 30.5367C17.2565 30.2293 17.2753 29.9085 17.3805 29.6114L18.7686 25.7021C18.9006 25.337 18.9008 24.9372 18.769 24.5721C18.6371 24.2069 18.3817 23.8994 18.0469 23.7029L10.8296 19.5241C10.618 19.4012 10.3818 19.3265 10.1379 19.3053C9.89401 19.2841 9.64847 19.3169 9.41873 19.4014C9.189 19.486 8.98074 19.6201 8.80879 19.7944C8.63684 19.9686 8.50542 20.1786 8.42391 20.4094L3.33337 34.6827C2.70547 36.4509 0.0976562 35.9986 0.0976562 34.1245L0.148177 9.27088C0.148966 8.92829 0.255433 8.59428 0.453053 8.31443C0.650672 8.03457 0.929819 7.8225 1.25241 7.70715L11.3036 4.11058C11.6002 4.004 11.9211 3.98384 12.2288 4.05245C12.5364 4.12106 12.8183 4.27562 13.0416 4.49815C13.2649 4.72067 13.4204 5.00202 13.49 5.30946C13.5597 5.61691 13.5406 5.93781 13.4351 6.23484L12.3501 9.28772C12.2209 9.65479 12.224 10.0555 12.3589 10.4205C12.4937 10.7855 12.7518 11.092 13.0886 11.2869L20.3058 15.4632C20.5174 15.5866 20.7537 15.6617 20.9977 15.6831C21.2417 15.7045 21.4874 15.6718 21.7172 15.5872C21.9471 15.5026 22.1554 15.3683 22.3273 15.1938C22.4992 15.0193 22.6304 14.809 22.7116 14.5779L27.4846 1.14911C28.11 -0.614291 30.7227 -0.162013 30.7179 1.70965L30.6673 26.5657C30.6673 26.9085 30.5611 27.2428 30.3633 27.5228C30.1656 27.8028 29.8861 28.0147 29.5631 28.1294Z" fill="white"/>
<path d="M41.9983 25.3557V6.4586H45.7705V10.161L45.3254 9.66304C45.7409 8.53293 46.5292 7.57825 47.5604 6.95658C48.6394 6.32408 49.8728 6.00344 51.1233 6.03038C52.4154 6.00453 53.6918 6.3172 54.8257 6.93734C55.8804 7.52731 56.7507 8.39844 57.3397 9.45374C57.9617 10.587 58.2753 11.8637 58.249 13.1562V25.346H54.3301V14.2123C54.3551 13.3726 54.1751 12.5394 53.8057 11.7849C53.472 11.1382 52.9559 10.6037 52.3213 10.2476C51.6485 9.89223 50.899 9.70646 50.1381 9.70646C49.3772 9.70646 48.6277 9.89223 47.9549 10.2476C47.3167 10.6078 46.8001 11.1496 46.4706 11.8041C46.1048 12.5522 45.9249 13.3775 45.9461 14.2099V25.3533L41.9983 25.3557Z" fill="white"/>
<path d="M66.9243 25.7815C65.765 25.8068 64.6146 25.5742 63.5562 25.1007C62.6447 24.6928 61.8644 24.0398 61.3021 23.2146C60.7546 22.3681 60.4746 21.3764 60.4986 20.3686C60.4702 19.3858 60.7168 18.4146 61.2107 17.5645C61.7046 16.7144 62.4262 16.0192 63.294 15.5571C64.41 14.944 65.6291 14.5412 66.8906 14.3687L73.4583 13.2861V16.3799L67.6604 17.3927C66.6115 17.5787 65.8433 17.9107 65.3557 18.3887C65.1125 18.6263 64.9217 18.9121 64.7953 19.2278C64.669 19.5434 64.6099 19.882 64.622 20.2218C64.6131 20.5592 64.6825 20.894 64.8248 21.2C64.9672 21.506 65.1786 21.7748 65.4423 21.9852C66.0423 22.4575 66.7917 22.699 67.5546 22.6661C68.5373 22.6874 69.5081 22.4466 70.3669 21.9684C71.147 21.5251 71.7928 20.8792 72.2361 20.0991C72.6825 19.305 72.9116 18.4071 72.9001 17.4961V12.6414C72.9114 12.2069 72.8244 11.7755 72.6457 11.3794C72.467 10.9833 72.2012 10.6326 71.8681 10.3535C71.1832 9.76009 70.2699 9.46338 69.1279 9.46338C68.1503 9.44231 67.1909 9.72931 66.3854 10.2837C65.6213 10.8107 65.0217 11.5429 64.6557 12.396L61.3718 10.7553C61.7345 9.80729 62.3224 8.96181 63.0847 8.29179C63.8974 7.56924 64.8393 7.00684 65.8609 6.63424C66.9386 6.23467 68.0796 6.03335 69.229 6.04002C70.597 6.01349 71.9531 6.29984 73.1936 6.87722C74.2866 7.3881 75.2161 8.19269 75.8784 9.20116C76.5302 10.2285 76.8649 11.425 76.8407 12.6414V25.3557H73.0709V21.9323L73.8745 22.0382C73.4404 22.7994 72.8695 23.4739 72.1904 24.0277C71.4925 24.5936 70.7 25.0317 69.8497 25.322C68.907 25.6374 67.9182 25.7927 66.9243 25.7815Z" fill="white"/>
<path d="M79.742 25.3556V22.1078L90.8516 8.65974L91.4795 10.0214H80.2664V6.4585H94.9727V9.66294L84.0049 23.1351L83.3746 21.7397H95.0063V25.3483L79.742 25.3556Z" fill="white"/>
<path d="M96.1949 25.3556V22.1078L107.302 8.65974L107.932 10.0214H96.7193V6.4585H111.423V9.66294L100.455 23.1351L99.8275 21.7397H111.459V25.3483L96.1949 25.3556Z" fill="white"/>
<path d="M119.295 25.7815C118.135 25.8063 116.985 25.5738 115.927 25.1007C115.015 24.6935 114.236 24.0403 113.675 23.2146C113.126 22.3686 112.846 21.3766 112.871 20.3686C112.844 19.3864 113.091 18.416 113.585 17.5663C114.078 16.7165 114.798 16.0208 115.664 15.5571C116.784 14.9426 118.007 14.5397 119.273 14.3687L125.826 13.2717V16.3799L120.028 17.3927C118.979 17.5787 118.211 17.9107 117.724 18.3887C117.481 18.6267 117.29 18.9125 117.164 19.2281C117.038 19.5437 116.978 19.8821 116.99 20.2218C116.982 20.5591 117.051 20.8937 117.194 21.1996C117.336 21.5055 117.547 21.7744 117.81 21.9852C118.411 22.4578 119.161 22.6994 119.925 22.6661C120.907 22.6879 121.877 22.4471 122.735 21.9684C123.515 21.5251 124.161 20.8792 124.604 20.0991C125.05 19.305 125.28 18.4071 125.268 17.4961V12.6414C125.279 12.2067 125.192 11.7752 125.013 11.3791C124.833 10.9829 124.567 10.6323 124.234 10.3535C123.546 9.76009 122.631 9.46338 121.491 9.46338C120.513 9.44231 119.554 9.72931 118.749 10.2837C117.984 10.8111 117.384 11.5431 117.016 12.396L113.735 10.7553C114.098 9.80629 114.688 8.96055 115.453 8.29179C116.262 7.57027 117.201 7.00793 118.219 6.63424C119.297 6.23487 120.438 6.03357 121.587 6.04002C122.955 6.01349 124.311 6.29984 125.552 6.87722C126.647 7.38672 127.579 8.1915 128.242 9.20116C128.894 10.228 129.229 11.4248 129.204 12.6414V25.3557H125.436V21.9323L126.24 22.0382C125.806 22.7993 125.235 23.4737 124.556 24.0277C123.859 24.5941 123.067 25.0323 122.218 25.322C121.276 25.6367 120.288 25.792 119.295 25.7815Z" fill="white"/>
</g>
<defs>
<clipPath id="clip0_1837_4775">
<rect width="129.118" height="35.7565" fill="white" transform="translate(0.0976562 0.0410156)"/>
</clipPath>
</defs>
</svg>
