<svg width="24" height="27" viewBox="0 0 24 27" fill="none" xmlns="http://www.w3.org/2000/svg">
<path fill-rule="evenodd" clip-rule="evenodd" d="M18.7071 11.7143C18.7071 12.9702 19.039 13.7105 19.7695 14.5636C20.3231 15.192 20.5 15.9988 20.5 16.874C20.5 17.7482 20.2128 18.5781 19.6373 19.2519C18.884 20.0596 17.8215 20.5753 16.7372 20.6649C15.1659 20.7989 13.5937 20.9117 12.0005 20.9117C10.4063 20.9117 8.83505 20.8442 7.26375 20.6649C6.17846 20.5753 5.11602 20.0596 4.36367 19.2519C3.78822 18.5781 3.5 17.7482 3.5 16.874C3.5 15.9988 3.6779 15.192 4.23049 14.5636C4.98384 13.7105 5.29392 12.9702 5.29392 11.7143V11.2883C5.29392 9.60631 5.71333 8.50649 6.577 7.42983C7.86106 5.85967 9.91935 4.91797 11.9558 4.91797H12.0452C14.1254 4.91797 16.2502 5.90499 17.5125 7.54263C18.3314 8.59713 18.7071 9.65062 18.7071 11.2883V11.7143ZM9.07367 22.9788C9.07367 22.4752 9.53582 22.2446 9.96318 22.1459C10.4631 22.0401 13.5093 22.0401 14.0092 22.1459C14.4366 22.2446 14.8987 22.4752 14.8987 22.9788C14.8738 23.4582 14.5926 23.8832 14.204 24.1532C13.7001 24.5459 13.1088 24.7947 12.4906 24.8844C12.1487 24.9287 11.8128 24.9297 11.4828 24.8844C10.8636 24.7947 10.2723 24.5459 9.76938 24.1521C9.37978 23.8832 9.09852 23.4582 9.07367 22.9788Z" fill="#E9F1FF"/>
<circle cx="16.8746" cy="5.79257" r="4.8746" fill="#D53A32"/>
</svg>
