<svg width="32" height="32" viewBox="0 0 32 32" fill="none" xmlns="http://www.w3.org/2000/svg">
<rect width="32" height="32" rx="16" fill="#E9F1FF"/>
<path fill-rule="evenodd" clip-rule="evenodd" d="M14.4825 8.50325L14.8097 12.2025C14.8097 12.8537 15.3417 13.3817 16.0004 13.3817C16.6581 13.3817 17.1912 12.8537 17.1912 12.2025L17.5183 8.50325C17.5183 7.67308 16.8387 7 16.0004 7C15.1622 7 14.4825 7.67308 14.4825 8.50325ZM14.7501 24.5141C14.8064 24.5653 14.8495 24.6046 14.8698 24.6247C15.1915 24.8702 15.5847 25 16.0077 25C16.3866 25 16.7656 24.8844 17.0718 24.6531C17.2844 24.5047 17.6258 24.1622 17.6258 24.1622C18.9532 22.9491 20.9502 19.9317 21.5924 18.4012C21.6057 18.4012 21.9857 17.4914 22 17.0583V17.0005C22 16.3361 21.6211 15.7154 21.0086 15.3979C20.7554 15.2668 20.1349 15.1437 19.8408 15.0854C19.746 15.0666 19.6851 15.0545 19.6813 15.051C18.8067 14.9212 17.465 14.835 15.9934 14.835C14.4469 14.835 13.0479 14.9212 12.1876 15.0794C12.1733 15.0794 11.3857 15.2387 11.1236 15.3401C10.7446 15.4994 10.423 15.7874 10.2192 16.1485C10.0738 16.4376 10 16.7408 10 17.0583C10.0154 17.391 10.2335 18.0117 10.336 18.2572C10.9782 19.8739 13.0766 22.9644 14.3598 24.148C14.4934 24.2803 14.6448 24.4181 14.7501 24.5141Z" fill="#2574F5"/>
</svg>
