<svg width="1120" height="312" viewBox="0 0 1120 312" fill="none" xmlns="http://www.w3.org/2000/svg">
<g clip-path="url(#clip0_4_57)">
<rect width="1120" height="312" rx="8" fill="#FDE5C8"/>
<g clip-path="url(#clip1_4_57)">
<path d="M1072.88 103.009C1072.5 103.009 1072.13 102.942 1071.77 102.81C1071.08 102.573 1070.5 102.093 1070.14 101.461C1069.78 100.828 1069.67 100.085 1069.81 99.3726L1074.49 74.2192C1074.57 73.7993 1074.55 73.3671 1074.45 72.9535C1074.34 72.5399 1074.14 72.155 1073.87 71.8262C1073.6 71.4975 1073.25 71.2329 1072.87 71.0514C1072.48 70.8699 1072.06 70.7759 1071.63 70.7762H1056.65C1055.97 70.776 1055.31 71.0139 1054.79 71.4485C1054.27 71.8832 1053.91 72.4871 1053.79 73.1556L1052.71 78.8706C1052.61 79.443 1052.34 79.9733 1051.94 80.4C1051.55 80.8267 1051.04 81.1321 1050.48 81.2807C1049.91 81.4293 1049.32 81.4149 1048.77 81.2393C1048.21 81.0636 1047.72 80.734 1047.34 80.2886L1034.96 65.6574C1034.55 65.1747 1034.31 64.5787 1034.25 63.9502C1034.2 63.3217 1034.33 62.6913 1034.65 62.1446L1056.93 23.4718C1057.3 22.8457 1057.87 22.3675 1058.55 22.1217C1059.23 21.8758 1059.97 21.878 1060.65 22.1279C1061.33 22.3778 1061.9 22.8594 1062.26 23.4875C1062.61 24.1157 1062.74 24.8501 1062.61 25.5612L1057.63 52.326C1057.55 52.7458 1057.57 53.1776 1057.68 53.5908C1057.79 54.004 1057.98 54.3885 1058.25 54.717C1058.53 55.0456 1058.87 55.3101 1059.26 55.4919C1059.64 55.6737 1060.06 55.7683 1060.49 55.769H1075.48C1076.16 55.7691 1076.81 55.5313 1077.34 55.0966C1077.86 54.662 1078.21 54.058 1078.34 53.3895L1079.7 46.0632C1079.8 45.4908 1080.07 44.9605 1080.47 44.5338C1080.86 44.1071 1081.37 43.8017 1081.93 43.6531C1082.5 43.5046 1083.09 43.5189 1083.65 43.6945C1084.2 43.8702 1084.69 44.1998 1085.07 44.6452L1097.45 59.2764C1097.86 59.7591 1098.1 60.3552 1098.16 60.9836C1098.22 61.6121 1098.08 62.2425 1097.76 62.7892L1075.48 101.462C1075.22 101.931 1074.85 102.323 1074.39 102.595C1073.94 102.868 1073.41 103.011 1072.88 103.009ZM1056.64 70.6097H1071.63C1072.07 70.61 1072.52 70.7094 1072.93 70.9006C1073.33 71.0919 1073.69 71.3703 1073.98 71.7163C1074.27 72.0623 1074.48 72.4673 1074.59 72.9026C1074.7 73.338 1074.72 73.7929 1074.64 74.2353L1069.96 99.3888C1069.84 100.06 1069.96 100.751 1070.3 101.341C1070.64 101.932 1071.18 102.384 1071.82 102.621C1072.46 102.857 1073.16 102.862 1073.8 102.635C1074.44 102.407 1074.98 101.962 1075.33 101.376L1097.62 62.7032C1097.91 62.1845 1098.05 61.5865 1097.99 60.9907C1097.94 60.3948 1097.7 59.83 1097.32 59.3731L1084.96 44.7418C1084.61 44.3207 1084.14 44.0092 1083.61 43.8436C1083.09 43.678 1082.52 43.6651 1081.99 43.8063C1081.46 43.9475 1080.98 44.2371 1080.6 44.6414C1080.23 45.0457 1079.98 45.548 1079.88 46.09L1078.52 53.411C1078.38 54.1156 1078.01 54.7519 1077.46 55.21C1076.91 55.6681 1076.21 55.919 1075.5 55.9194V55.9194H1060.51C1060.06 55.9192 1059.62 55.8197 1059.21 55.6282C1058.8 55.4366 1058.44 55.1576 1058.15 54.811C1057.87 54.4644 1057.66 54.0587 1057.54 53.6227C1057.43 53.1867 1057.42 52.7312 1057.5 52.2884L1062.47 25.5289C1062.59 24.858 1062.47 24.1672 1062.13 23.5767C1061.79 22.9861 1061.25 22.5333 1060.62 22.2969C1059.98 22.0606 1059.27 22.0557 1058.63 22.2831C1057.99 22.5105 1057.45 22.9558 1057.1 23.5416L1034.82 62.2145C1034.52 62.7327 1034.38 63.331 1034.44 63.9272C1034.49 64.5235 1034.73 65.0884 1035.12 65.5446L1047.47 80.1759C1047.83 80.597 1048.29 80.9084 1048.82 81.0741C1049.35 81.2397 1049.91 81.2526 1050.44 81.1114C1050.97 80.9702 1051.45 80.6806 1051.83 80.2763C1052.2 79.872 1052.46 79.3697 1052.56 78.8277L1053.63 73.1127C1053.76 72.4054 1054.14 71.767 1054.69 71.3093C1055.25 70.8516 1055.95 70.6039 1056.67 70.6097H1056.64Z" fill="#001D4B"/>
<path d="M1127.79 81.9913C1127.41 81.9887 1127.04 81.9215 1126.68 81.7926C1125.99 81.5545 1125.41 81.0736 1125.05 80.4399C1124.69 79.8062 1124.58 79.0631 1124.73 78.3497L1129.4 53.2015C1129.48 52.7812 1129.47 52.3486 1129.36 51.9346C1129.25 51.5206 1129.06 51.1354 1128.78 50.8065C1128.51 50.4777 1128.17 50.2132 1127.78 50.0321C1127.39 49.8509 1126.97 49.7575 1126.54 49.7586H1111.56C1110.88 49.7595 1110.22 49.9977 1109.7 50.4322C1109.18 50.8666 1108.82 51.47 1108.7 52.138L1107.62 57.853C1107.52 58.4271 1107.25 58.9597 1106.86 59.3885C1106.46 59.8172 1105.95 60.1243 1105.39 60.2737C1104.83 60.4232 1104.23 60.4087 1103.68 60.232C1103.12 60.0554 1102.63 59.7239 1102.25 59.2764L1089.9 44.6452C1089.49 44.1631 1089.24 43.5673 1089.19 42.9388C1089.13 42.3103 1089.27 41.6796 1089.58 41.1324L1111.87 2.45951C1112.23 1.83543 1112.8 1.35951 1113.48 1.11537C1114.16 0.871229 1114.91 0.874479 1115.58 1.12455C1116.26 1.37461 1116.83 1.8555 1117.19 2.48274C1117.55 3.10998 1117.67 3.84345 1117.54 4.5543L1112.56 31.3138C1112.49 31.734 1112.5 32.1662 1112.61 32.5798C1112.72 32.9934 1112.92 33.3782 1113.19 33.7068C1113.46 34.0355 1113.8 34.2999 1114.19 34.4814C1114.58 34.6628 1115 34.7568 1115.43 34.7567H1130.41C1131.09 34.7569 1131.75 34.519 1132.27 34.0844C1132.79 33.6498 1133.15 33.0458 1133.27 32.3773L1134.64 25.0563C1134.74 24.4822 1135 23.9496 1135.4 23.5208C1135.79 23.0921 1136.3 22.785 1136.87 22.6356C1137.43 22.4862 1138.03 22.5006 1138.58 22.6773C1139.14 22.8539 1139.63 23.1854 1140.01 23.6329L1152.38 38.2964C1152.78 38.7797 1153.03 39.3763 1153.09 40.0056C1153.15 40.6348 1153.01 41.2663 1152.69 41.8145L1130.41 80.4874C1130.15 80.9508 1129.77 81.3353 1129.31 81.6C1128.85 81.8648 1128.32 82 1127.79 81.9913V81.9913ZM1111.55 49.576H1126.54C1126.99 49.5773 1127.43 49.6774 1127.84 49.8692C1128.24 50.061 1128.6 50.3399 1128.89 50.6861C1129.18 51.0324 1129.39 51.4376 1129.5 51.8731C1129.62 52.3087 1129.63 52.764 1129.55 53.2069L1124.88 78.3604C1124.76 79.0307 1124.88 79.7204 1125.22 80.3095C1125.56 80.8987 1126.1 81.3502 1126.74 81.5857C1127.37 81.8212 1128.08 81.8257 1128.72 81.5986C1129.36 81.3715 1129.9 80.927 1130.25 80.3424L1152.53 41.6695C1152.83 41.1503 1152.96 40.5518 1152.91 39.9552C1152.86 39.3586 1152.62 38.7927 1152.24 38.334L1139.86 23.7027C1139.5 23.2816 1139.03 22.9701 1138.51 22.8045C1137.98 22.6389 1137.42 22.626 1136.89 22.7672C1136.35 22.9084 1135.87 23.198 1135.5 23.6023C1135.12 24.0066 1134.87 24.5089 1134.77 25.0509L1133.41 32.3773C1133.28 33.0818 1132.9 33.7182 1132.35 34.1763C1131.8 34.6344 1131.11 34.8853 1130.39 34.8856V34.8856H1115.41C1114.96 34.8851 1114.52 34.7858 1114.11 34.5946C1113.7 34.4034 1113.34 34.125 1113.05 33.7791C1112.77 33.4333 1112.56 33.0284 1112.44 32.5931C1112.33 32.1578 1112.31 31.7027 1112.39 31.2601L1117.37 4.50058C1117.49 3.82967 1117.37 3.13884 1117.03 2.54831C1116.69 1.95778 1116.15 1.50494 1115.51 1.26859C1114.88 1.03224 1114.17 1.02735 1113.53 1.25476C1112.89 1.48217 1112.35 1.92749 1112 2.51323L1089.72 41.1861C1089.42 41.7059 1089.29 42.3046 1089.34 42.9012C1089.39 43.4979 1089.63 44.0635 1090.02 44.5216L1102.42 59.1582C1102.78 59.5798 1103.25 59.8918 1103.77 60.0577C1104.3 60.2236 1104.86 60.2367 1105.39 60.0953C1105.92 59.954 1106.41 59.6641 1106.78 59.2595C1107.15 58.8548 1107.41 58.3522 1107.5 57.8101L1108.58 52.0951C1108.71 51.3953 1109.07 50.7614 1109.62 50.3018C1110.16 49.8423 1110.84 49.5857 1111.55 49.576V49.576Z" fill="#001D4B"/>
<path d="M1061.75 165.922C1061.37 165.923 1060.99 165.855 1060.63 165.723C1059.94 165.485 1059.36 165.005 1059.01 164.373C1058.65 163.74 1058.53 162.999 1058.67 162.286L1063.35 137.132C1063.43 136.713 1063.42 136.281 1063.31 135.868C1063.2 135.454 1063 135.07 1062.73 134.741C1062.46 134.413 1062.12 134.148 1061.73 133.967C1061.34 133.785 1060.92 133.69 1060.5 133.689H1045.51C1044.83 133.689 1044.17 133.927 1043.65 134.362C1043.13 134.796 1042.77 135.4 1042.65 136.069L1041.57 141.784C1041.47 142.359 1041.21 142.893 1040.81 143.322C1040.42 143.752 1039.9 144.059 1039.34 144.208C1038.78 144.357 1038.18 144.342 1037.62 144.163C1037.07 143.985 1036.57 143.651 1036.2 143.202L1023.82 128.571C1023.41 128.089 1023.17 127.493 1023.11 126.864C1023.05 126.236 1023.19 125.605 1023.5 125.058L1045.79 86.385C1046.15 85.7536 1046.72 85.2704 1047.4 85.0213C1048.09 84.7723 1048.83 84.7737 1049.52 85.0252C1050.2 85.2766 1050.77 85.762 1051.13 86.3946C1051.48 87.0273 1051.6 87.7662 1051.47 88.4798L1046.49 115.239C1046.41 115.659 1046.42 116.092 1046.53 116.505C1046.64 116.919 1046.84 117.304 1047.11 117.632C1047.38 117.961 1047.73 118.225 1048.11 118.407C1048.5 118.588 1048.92 118.682 1049.35 118.682H1064.33C1065.01 118.683 1065.67 118.446 1066.19 118.011C1066.71 117.576 1067.07 116.971 1067.19 116.303L1068.55 108.982C1068.66 108.408 1068.92 107.875 1069.32 107.446C1069.71 107.018 1070.22 106.71 1070.79 106.561C1071.35 106.412 1071.94 106.426 1072.5 106.603C1073.06 106.779 1073.55 107.111 1073.92 107.558L1086.28 122.19C1086.68 122.672 1086.93 123.268 1086.99 123.896C1087.05 124.525 1086.91 125.155 1086.59 125.702L1064.31 164.375C1064.06 164.839 1063.69 165.227 1063.24 165.499C1062.79 165.771 1062.27 165.917 1061.75 165.922V165.922ZM1045.49 133.523H1060.47C1060.92 133.523 1061.37 133.623 1061.78 133.814C1062.18 134.006 1062.55 134.285 1062.83 134.631C1063.12 134.978 1063.33 135.384 1063.44 135.82C1063.55 136.256 1063.57 136.711 1063.49 137.154L1058.81 162.302C1058.69 162.973 1058.81 163.664 1059.15 164.254C1059.49 164.845 1060.03 165.298 1060.67 165.534C1061.31 165.77 1062.01 165.775 1062.65 165.548C1063.29 165.32 1063.83 164.875 1064.18 164.289L1086.47 125.616C1086.77 125.096 1086.9 124.498 1086.84 123.901C1086.79 123.305 1086.56 122.739 1086.17 122.281L1073.79 107.65C1073.43 107.228 1072.97 106.916 1072.44 106.75C1071.92 106.584 1071.35 106.571 1070.82 106.713C1070.29 106.854 1069.81 107.144 1069.43 107.548C1069.06 107.953 1068.81 108.456 1068.71 108.998L1067.34 116.319C1067.21 117.023 1066.84 117.66 1066.29 118.119C1065.74 118.577 1065.05 118.828 1064.33 118.827V118.827H1049.35C1048.9 118.827 1048.46 118.728 1048.05 118.536C1047.64 118.344 1047.28 118.065 1046.99 117.719C1046.7 117.372 1046.5 116.967 1046.38 116.531C1046.27 116.095 1046.25 115.639 1046.34 115.196L1051.31 88.4368C1051.43 87.7659 1051.31 87.0751 1050.97 86.4845C1050.63 85.894 1050.09 85.4412 1049.45 85.2048C1048.81 84.9685 1048.11 84.9636 1047.47 85.191C1046.83 85.4184 1046.29 85.8637 1045.94 86.4495L1023.65 125.122C1023.35 125.642 1023.22 126.241 1023.28 126.837C1023.33 127.434 1023.56 127.999 1023.95 128.458L1036.3 143.089C1036.66 143.509 1037.13 143.819 1037.65 143.983C1038.18 144.148 1038.74 144.16 1039.27 144.019C1039.8 143.878 1040.28 143.589 1040.66 143.186C1041.03 142.783 1041.28 142.282 1041.38 141.741L1042.46 136.026C1042.59 135.321 1042.97 134.684 1043.52 134.227C1044.07 133.77 1044.77 133.521 1045.49 133.523V133.523Z" fill="#001D4B"/>
<path d="M1116.66 145.055C1116.28 145.055 1115.9 144.988 1115.54 144.856C1114.85 144.618 1114.28 144.138 1113.92 143.506C1113.56 142.873 1113.44 142.131 1113.59 141.419L1118.26 116.271C1118.34 115.851 1118.33 115.418 1118.22 115.005C1118.11 114.592 1117.91 114.207 1117.64 113.878C1117.37 113.549 1117.03 113.284 1116.64 113.101C1116.25 112.919 1115.83 112.824 1115.41 112.822H1100.42C1099.74 112.822 1099.08 113.06 1098.56 113.495C1098.04 113.929 1097.68 114.533 1097.56 115.202L1096.48 120.917C1096.38 121.491 1096.11 122.023 1095.72 122.452C1095.32 122.881 1094.81 123.188 1094.25 123.337C1093.69 123.487 1093.09 123.472 1092.54 123.296C1091.98 123.119 1091.49 122.788 1091.11 122.34L1078.73 107.709C1078.32 107.226 1078.08 106.629 1078.02 106C1077.96 105.37 1078.1 104.739 1078.41 104.191L1100.7 65.5178C1101.06 64.8864 1101.63 64.4031 1102.31 64.1541C1103 63.9051 1103.74 63.9064 1104.43 64.1579C1105.11 64.4094 1105.68 64.8947 1106.04 65.5274C1106.39 66.1601 1106.51 66.899 1106.38 67.6126L1101.4 94.372C1101.32 94.7922 1101.34 95.2245 1101.44 95.6381C1101.55 96.0517 1101.75 96.4364 1102.02 96.7651C1102.29 97.0937 1102.64 97.3582 1103.02 97.5396C1103.41 97.7211 1103.83 97.8151 1104.26 97.815H1119.24C1119.92 97.816 1120.58 97.5783 1121.1 97.1434C1121.62 96.7085 1121.98 96.1041 1122.1 95.4355L1123.46 88.1145C1123.57 87.5405 1123.83 87.0079 1124.23 86.5791C1124.62 86.1503 1125.13 85.8432 1125.7 85.6938C1126.26 85.5444 1126.85 85.5589 1127.41 85.7355C1127.97 85.9122 1128.46 86.2437 1128.83 86.6912L1141.19 101.322C1141.6 101.805 1141.84 102.4 1141.9 103.029C1141.96 103.657 1141.82 104.288 1141.5 104.835L1119.22 143.508C1118.97 143.971 1118.6 144.359 1118.15 144.631C1117.7 144.904 1117.18 145.05 1116.66 145.055V145.055ZM1100.42 112.656H1115.41C1115.86 112.657 1116.3 112.757 1116.71 112.949C1117.11 113.141 1117.48 113.42 1117.76 113.766C1118.05 114.112 1118.26 114.518 1118.37 114.953C1118.48 115.389 1118.5 115.844 1118.42 116.287L1113.74 141.424C1113.62 142.095 1113.75 142.786 1114.08 143.376C1114.42 143.967 1114.96 144.42 1115.6 144.656C1116.24 144.892 1116.94 144.897 1117.58 144.67C1118.22 144.442 1118.76 143.997 1119.11 143.411L1141.4 104.739C1141.7 104.219 1141.83 103.62 1141.78 103.023C1141.72 102.427 1141.49 101.861 1141.1 101.403L1128.74 86.8147C1128.39 86.3931 1127.92 86.0812 1127.39 85.9153C1126.87 85.7493 1126.31 85.7363 1125.77 85.8776C1125.24 86.0189 1124.76 86.3088 1124.39 86.7135C1124.01 87.1181 1123.76 87.6208 1123.66 88.1629L1122.3 95.4892C1122.17 96.1928 1121.79 96.8285 1121.24 97.2857C1120.69 97.743 1120 97.993 1119.28 97.9922V97.9922H1104.3C1103.85 97.9919 1103.41 97.8926 1103 97.7013C1102.6 97.5101 1102.24 97.2316 1101.95 96.8856C1101.66 96.5396 1101.45 96.1346 1101.34 95.6993C1101.22 95.264 1101.21 94.809 1101.29 94.3667L1106.26 67.6018C1106.38 66.9315 1106.26 66.2418 1105.92 65.6527C1105.58 65.0635 1105.04 64.612 1104.4 64.3765C1103.76 64.141 1103.06 64.1365 1102.42 64.3636C1101.78 64.5907 1101.24 65.0352 1100.89 65.6198L1078.6 104.293C1078.31 104.813 1078.17 105.411 1078.23 106.008C1078.28 106.604 1078.52 107.17 1078.9 107.628L1091.28 122.259C1091.64 122.681 1092.11 122.993 1092.63 123.159C1093.16 123.325 1093.72 123.338 1094.25 123.197C1094.78 123.055 1095.27 122.765 1095.64 122.361C1096.01 121.956 1096.27 121.453 1096.37 120.911L1097.44 115.196C1097.56 114.492 1097.93 113.853 1098.47 113.389C1099.02 112.926 1099.71 112.666 1100.42 112.656V112.656Z" fill="#001D4B"/>
<path d="M1049.84 229.775C1049.46 229.773 1049.08 229.706 1048.73 229.577C1048.04 229.339 1047.46 228.858 1047.1 228.224C1046.74 227.59 1046.62 226.847 1046.77 226.134L1051.45 200.986C1051.53 200.565 1051.52 200.133 1051.41 199.719C1051.3 199.305 1051.1 198.919 1050.83 198.591C1050.56 198.262 1050.21 197.997 1049.83 197.816C1049.44 197.635 1049.02 197.542 1048.59 197.543H1033.61C1032.93 197.543 1032.27 197.78 1031.75 198.215C1031.22 198.65 1030.87 199.254 1030.74 199.922L1029.67 205.637C1029.57 206.211 1029.3 206.744 1028.91 207.173C1028.51 207.601 1028 207.908 1027.44 208.058C1026.87 208.207 1026.28 208.193 1025.72 208.016C1025.17 207.839 1024.67 207.508 1024.3 207.06L1011.95 192.429C1011.54 191.947 1011.29 191.351 1011.23 190.723C1011.18 190.094 1011.31 189.464 1011.63 188.916L1033.91 150.244C1034.28 149.616 1034.85 149.137 1035.53 148.891C1036.21 148.645 1036.95 148.647 1037.63 148.898C1038.31 149.149 1038.88 149.632 1039.24 150.261C1039.6 150.891 1039.72 151.627 1039.59 152.338L1034.61 179.098C1034.53 179.518 1034.55 179.951 1034.65 180.365C1034.76 180.779 1034.96 181.164 1035.23 181.493C1035.51 181.822 1035.85 182.086 1036.24 182.267C1036.62 182.448 1037.05 182.542 1037.47 182.541H1052.46C1053.13 182.541 1053.79 182.304 1054.32 181.871C1054.84 181.437 1055.19 180.834 1055.32 180.167L1056.68 172.84C1056.79 172.266 1057.05 171.734 1057.45 171.305C1057.84 170.876 1058.35 170.569 1058.91 170.42C1059.48 170.27 1060.07 170.285 1060.63 170.461C1061.19 170.638 1061.68 170.97 1062.05 171.417L1074.41 186.048C1074.81 186.532 1075.06 187.128 1075.12 187.757C1075.18 188.387 1075.04 189.018 1074.72 189.566L1052.44 228.239C1052.18 228.706 1051.81 229.096 1051.35 229.366C1050.89 229.637 1050.37 229.778 1049.84 229.775V229.775ZM1033.61 197.371H1048.59C1049.04 197.372 1049.48 197.472 1049.89 197.664C1050.3 197.856 1050.66 198.135 1050.95 198.481C1051.23 198.827 1051.44 199.232 1051.56 199.668C1051.67 200.103 1051.69 200.559 1051.61 201.002L1046.93 226.155C1046.81 226.826 1046.94 227.515 1047.28 228.104C1047.62 228.694 1048.15 229.145 1048.79 229.381C1049.43 229.616 1050.13 229.621 1050.77 229.393C1051.41 229.166 1051.95 228.722 1052.3 228.137L1074.58 189.464C1074.88 188.945 1075.02 188.347 1074.96 187.75C1074.91 187.153 1074.67 186.587 1074.29 186.129L1061.91 171.498C1061.55 171.076 1061.08 170.765 1060.56 170.599C1060.03 170.434 1059.47 170.421 1058.94 170.562C1058.41 170.703 1057.92 170.993 1057.55 171.397C1057.17 171.801 1056.92 172.304 1056.82 172.846L1055.46 180.172C1055.33 180.877 1054.96 181.513 1054.41 181.971C1053.86 182.429 1053.16 182.68 1052.44 182.68V182.68H1037.46C1037.01 182.68 1036.57 182.581 1036.16 182.389C1035.75 182.198 1035.39 181.92 1035.11 181.574C1034.82 181.228 1034.61 180.823 1034.5 180.388C1034.38 179.953 1034.36 179.498 1034.45 179.055L1039.42 152.295C1039.54 151.624 1039.42 150.934 1039.08 150.343C1038.74 149.753 1038.21 149.3 1037.57 149.063C1036.93 148.827 1036.23 148.822 1035.58 149.05C1034.94 149.277 1034.4 149.722 1034.05 150.308L1011.77 188.981C1011.47 189.501 1011.34 190.099 1011.39 190.696C1011.45 191.293 1011.68 191.858 1012.07 192.316L1024.42 206.948C1024.78 207.369 1025.25 207.681 1025.77 207.847C1026.3 208.013 1026.86 208.026 1027.39 207.885C1027.92 207.743 1028.4 207.454 1028.78 207.049C1029.15 206.644 1029.4 206.142 1029.5 205.6L1030.58 199.885C1030.71 199.177 1031.08 198.537 1031.64 198.077C1032.19 197.618 1032.89 197.368 1033.61 197.371V197.371Z" fill="#001D4B"/>
<path d="M1104.73 208.752C1104.35 208.753 1103.97 208.686 1103.62 208.554C1102.93 208.317 1102.35 207.837 1101.99 207.204C1101.63 206.571 1101.52 205.828 1101.67 205.116L1106.34 179.963C1106.42 179.543 1106.4 179.111 1106.29 178.698C1106.19 178.285 1105.99 177.9 1105.72 177.572C1105.44 177.243 1105.1 176.979 1104.72 176.797C1104.33 176.615 1103.91 176.52 1103.48 176.52H1088.5C1087.82 176.52 1087.16 176.757 1086.63 177.192C1086.11 177.627 1085.76 178.231 1085.63 178.899L1084.56 184.614C1084.46 185.189 1084.19 185.723 1083.8 186.152C1083.4 186.582 1082.89 186.889 1082.33 187.038C1081.76 187.187 1081.17 187.172 1080.61 186.994C1080.05 186.815 1079.56 186.482 1079.19 186.032L1066.81 171.401C1066.4 170.919 1066.15 170.323 1066.09 169.694C1066.04 169.066 1066.18 168.435 1066.49 167.888L1088.78 129.215C1089.13 128.585 1089.71 128.103 1090.39 127.854C1091.07 127.606 1091.82 127.607 1092.5 127.857C1093.18 128.108 1093.75 128.592 1094.11 129.223C1094.47 129.854 1094.59 130.592 1094.45 131.305L1089.5 158.075C1089.42 158.495 1089.44 158.927 1089.55 159.341C1089.65 159.755 1089.85 160.139 1090.12 160.468C1090.4 160.797 1090.74 161.061 1091.13 161.242C1091.51 161.424 1091.94 161.518 1092.36 161.518H1107.34C1108.02 161.518 1108.68 161.28 1109.21 160.845C1109.73 160.411 1110.08 159.807 1110.21 159.138L1111.57 151.812C1111.67 151.24 1111.94 150.709 1112.33 150.283C1112.73 149.856 1113.24 149.551 1113.8 149.402C1114.36 149.253 1114.96 149.268 1115.51 149.443C1116.07 149.619 1116.56 149.949 1116.94 150.394L1129.29 165.025C1129.7 165.507 1129.95 166.103 1130 166.732C1130.06 167.36 1129.92 167.991 1129.61 168.538L1107.32 207.211C1107.07 207.677 1106.7 208.067 1106.24 208.338C1105.78 208.609 1105.26 208.753 1104.73 208.752V208.752ZM1088.5 176.337H1103.48C1103.93 176.337 1104.38 176.437 1104.78 176.628C1105.19 176.82 1105.55 177.099 1105.84 177.445C1106.13 177.792 1106.34 178.198 1106.45 178.634C1106.56 179.07 1106.58 179.525 1106.5 179.968L1101.82 205.116C1101.7 205.787 1101.82 206.478 1102.16 207.068C1102.5 207.659 1103.04 208.112 1103.67 208.348C1104.31 208.584 1105.01 208.589 1105.66 208.362C1106.3 208.135 1106.84 207.689 1107.19 207.103L1129.47 168.431C1129.77 167.911 1129.9 167.312 1129.85 166.715C1129.79 166.119 1129.56 165.553 1129.17 165.095L1116.79 150.464C1116.44 150.042 1115.97 149.73 1115.44 149.564C1114.92 149.398 1114.36 149.385 1113.82 149.527C1113.29 149.668 1112.81 149.958 1112.44 150.363C1112.06 150.767 1111.81 151.27 1111.71 151.812L1110.35 159.133C1110.22 159.838 1109.84 160.474 1109.29 160.933C1108.74 161.391 1108.05 161.642 1107.33 161.641V161.641H1092.35C1091.9 161.641 1091.46 161.542 1091.05 161.35C1090.64 161.159 1090.28 160.88 1089.99 160.533C1089.71 160.186 1089.5 159.781 1089.39 159.345C1089.27 158.909 1089.26 158.453 1089.34 158.01L1094.31 131.251C1094.43 130.58 1094.31 129.889 1093.97 129.299C1093.63 128.708 1093.09 128.255 1092.46 128.019C1091.82 127.783 1091.12 127.778 1090.47 128.005C1089.83 128.233 1089.29 128.678 1088.94 129.264L1066.66 167.936C1066.36 168.456 1066.23 169.054 1066.28 169.651C1066.33 170.247 1066.57 170.813 1066.95 171.272L1079.33 185.925C1079.68 186.344 1080.15 186.653 1080.68 186.818C1081.2 186.982 1081.76 186.994 1082.3 186.853C1082.83 186.712 1083.31 186.424 1083.68 186.021C1084.06 185.618 1084.31 185.117 1084.41 184.577L1085.49 178.862C1085.62 178.156 1085.99 177.517 1086.54 177.056C1087.09 176.595 1087.78 176.341 1088.5 176.337V176.337Z" fill="#001D4B"/>
<path d="M1038.68 292.689C1038.3 292.689 1037.93 292.622 1037.57 292.49C1036.88 292.253 1036.3 291.772 1035.94 291.138C1035.58 290.504 1035.47 289.761 1035.62 289.047L1040.29 263.899C1040.37 263.479 1040.35 263.047 1040.24 262.634C1040.14 262.221 1039.94 261.836 1039.67 261.508C1039.39 261.179 1039.05 260.915 1038.67 260.733C1038.28 260.551 1037.86 260.457 1037.43 260.456H1022.45C1021.77 260.456 1021.11 260.694 1020.59 261.128C1020.07 261.563 1019.71 262.167 1019.59 262.835L1018.51 268.545C1018.41 269.119 1018.15 269.652 1017.75 270.08C1017.35 270.509 1016.85 270.816 1016.28 270.966C1015.72 271.115 1015.12 271.101 1014.57 270.924C1014.01 270.747 1013.52 270.416 1013.14 269.968L1000.79 255.337C1000.38 254.854 1000.14 254.259 1000.08 253.631C1000.02 253.002 1000.16 252.372 1000.47 251.824L1022.76 213.151C1023.12 212.524 1023.7 212.045 1024.38 211.799C1025.06 211.553 1025.8 211.555 1026.48 211.806C1027.16 212.057 1027.73 212.54 1028.09 213.169C1028.44 213.799 1028.57 214.535 1028.43 215.246L1023.47 242.011C1023.39 242.431 1023.4 242.863 1023.51 243.277C1023.62 243.69 1023.81 244.075 1024.09 244.404C1024.36 244.733 1024.7 244.997 1025.09 245.179C1025.47 245.36 1025.9 245.454 1026.32 245.454H1041.3C1041.98 245.453 1042.64 245.215 1043.16 244.78C1043.69 244.346 1044.04 243.743 1044.17 243.075L1045.53 235.748C1045.63 235.175 1045.9 234.643 1046.29 234.214C1046.69 233.786 1047.2 233.48 1047.76 233.331C1048.32 233.182 1048.92 233.197 1049.47 233.374C1050.03 233.551 1050.52 233.883 1050.9 234.33L1063.25 248.961C1063.66 249.443 1063.91 250.039 1063.96 250.668C1064.02 251.296 1063.88 251.927 1063.57 252.474L1041.28 291.147C1041.03 291.616 1040.65 292.007 1040.2 292.279C1039.74 292.55 1039.22 292.692 1038.68 292.689ZM1022.45 260.284H1037.43C1037.88 260.284 1038.32 260.384 1038.73 260.575C1039.13 260.766 1039.5 261.045 1039.78 261.391C1040.07 261.737 1040.28 262.142 1040.39 262.577C1040.51 263.012 1040.52 263.467 1040.44 263.91L1035.76 289.063C1035.65 289.732 1035.78 290.417 1036.12 291.003C1036.46 291.589 1036.99 292.038 1037.63 292.273C1038.26 292.508 1038.96 292.515 1039.6 292.291C1040.24 292.068 1040.78 291.63 1041.13 291.05L1063.42 252.378C1063.72 251.858 1063.85 251.259 1063.79 250.662C1063.74 250.066 1063.5 249.5 1063.12 249.042L1050.76 234.411C1050.41 233.992 1049.94 233.682 1049.41 233.518C1048.89 233.354 1048.33 233.341 1047.79 233.482C1047.26 233.623 1046.78 233.912 1046.41 234.315C1046.03 234.718 1045.78 235.218 1045.68 235.759L1044.31 243.085C1044.18 243.79 1043.81 244.427 1043.26 244.885C1042.71 245.343 1042.02 245.594 1041.3 245.594V245.594H1026.32C1025.87 245.593 1025.42 245.493 1025.02 245.301C1024.61 245.109 1024.25 244.83 1023.96 244.483C1023.67 244.137 1023.47 243.732 1023.35 243.296C1023.24 242.861 1023.22 242.405 1023.31 241.963L1028.3 215.225C1028.42 214.554 1028.3 213.863 1027.96 213.272C1027.62 212.682 1027.08 212.229 1026.44 211.993C1025.8 211.756 1025.1 211.752 1024.46 211.979C1023.82 212.206 1023.28 212.652 1022.93 213.237L1000.64 251.91C1000.34 252.43 1000.21 253.029 1000.27 253.626C1000.32 254.223 1000.56 254.788 1000.94 255.246L1013.3 269.877C1013.65 270.298 1014.12 270.61 1014.65 270.775C1015.17 270.941 1015.74 270.954 1016.27 270.813C1016.8 270.671 1017.28 270.382 1017.66 269.977C1018.03 269.573 1018.28 269.071 1018.39 268.529L1019.46 262.814C1019.58 262.11 1019.95 261.473 1020.5 261.011C1021.04 260.549 1021.73 260.292 1022.45 260.284V260.284Z" fill="#001D4B"/>
<path d="M1093.59 271.821C1093.21 271.822 1092.84 271.755 1092.48 271.623C1091.79 271.386 1091.21 270.906 1090.85 270.273C1090.49 269.64 1090.38 268.898 1090.53 268.185L1095.2 243.032C1095.28 242.612 1095.27 242.18 1095.16 241.766C1095.05 241.353 1094.85 240.968 1094.58 240.641C1094.31 240.309 1093.97 240.04 1093.58 239.854C1093.19 239.668 1092.77 239.57 1092.34 239.567H1077.36C1076.68 239.567 1076.02 239.805 1075.5 240.24C1074.98 240.674 1074.62 241.278 1074.5 241.947L1073.42 247.662C1073.32 248.235 1073.05 248.767 1072.66 249.195C1072.26 249.623 1071.75 249.93 1071.19 250.079C1070.63 250.227 1070.03 250.213 1069.48 250.036C1068.92 249.859 1068.43 249.527 1068.05 249.08L1055.69 234.459C1055.29 233.976 1055.04 233.381 1054.98 232.753C1054.93 232.124 1055.06 231.494 1055.38 230.946L1077.67 192.273C1078.03 191.647 1078.6 191.169 1079.28 190.923C1079.96 190.678 1080.7 190.68 1081.38 190.93C1082.06 191.18 1082.63 191.661 1082.99 192.289C1083.35 192.917 1083.47 193.652 1083.34 194.363L1078.37 221.128C1078.29 221.548 1078.3 221.979 1078.41 222.393C1078.52 222.806 1078.72 223.19 1078.99 223.519C1079.26 223.847 1079.6 224.112 1079.99 224.294C1080.37 224.475 1080.8 224.57 1081.22 224.571H1096.2C1096.88 224.571 1097.54 224.333 1098.07 223.898C1098.59 223.464 1098.94 222.86 1099.07 222.191L1100.43 214.865C1100.53 214.293 1100.8 213.762 1101.19 213.336C1101.59 212.909 1102.1 212.603 1102.66 212.455C1103.22 212.306 1103.82 212.321 1104.37 212.496C1104.93 212.672 1105.42 213.002 1105.8 213.447L1118.15 228.078C1118.56 228.561 1118.8 229.157 1118.86 229.785C1118.92 230.414 1118.78 231.044 1118.46 231.591L1096.18 270.264C1095.93 270.733 1095.56 271.126 1095.1 271.4C1094.65 271.675 1094.12 271.82 1093.59 271.821V271.821ZM1077.36 239.422H1092.34C1092.79 239.423 1093.23 239.522 1093.64 239.713C1094.05 239.904 1094.41 240.183 1094.69 240.529C1094.98 240.875 1095.19 241.28 1095.3 241.715C1095.42 242.15 1095.43 242.605 1095.35 243.048L1090.67 268.201C1090.55 268.872 1090.68 269.563 1091.01 270.153C1091.35 270.744 1091.89 271.197 1092.53 271.433C1093.17 271.67 1093.87 271.674 1094.51 271.447C1095.15 271.22 1095.69 270.774 1096.04 270.189L1118.33 231.516C1118.63 230.997 1118.76 230.399 1118.7 229.803C1118.65 229.207 1118.41 228.642 1118.03 228.186L1105.67 213.554C1105.32 213.133 1104.85 212.822 1104.32 212.656C1103.8 212.49 1103.24 212.478 1102.7 212.619C1102.17 212.76 1101.69 213.05 1101.31 213.454C1100.94 213.858 1100.69 214.36 1100.59 214.902L1099.2 222.25C1099.07 222.955 1098.7 223.592 1098.15 224.05C1097.6 224.508 1096.9 224.759 1096.19 224.759V224.759H1081.21C1080.76 224.758 1080.31 224.659 1079.9 224.468C1079.5 224.276 1079.14 223.997 1078.85 223.65C1078.56 223.304 1078.35 222.898 1078.24 222.462C1078.13 222.026 1078.11 221.57 1078.19 221.128L1083.17 194.368C1083.28 193.697 1083.16 193.007 1082.82 192.416C1082.48 191.825 1081.95 191.373 1081.31 191.136C1080.67 190.9 1079.97 190.895 1079.33 191.122C1078.69 191.35 1078.14 191.795 1077.8 192.381L1055.51 231.054C1055.21 231.572 1055.08 232.17 1055.13 232.767C1055.19 233.363 1055.42 233.928 1055.81 234.384L1068.17 249.015C1068.52 249.436 1068.99 249.748 1069.52 249.913C1070.04 250.079 1070.6 250.092 1071.14 249.951C1071.67 249.81 1072.15 249.52 1072.53 249.116C1072.9 248.711 1073.15 248.209 1073.25 247.667L1074.33 241.952C1074.45 241.241 1074.82 240.597 1075.38 240.134C1075.93 239.671 1076.63 239.419 1077.36 239.422V239.422Z" fill="#001D4B"/>
<path d="M1147.9 250.954C1147.52 250.955 1147.14 250.887 1146.78 250.755C1146.09 250.517 1145.51 250.036 1145.15 249.402C1144.8 248.768 1144.68 248.025 1144.83 247.313L1149.5 222.164C1149.58 221.744 1149.57 221.312 1149.46 220.899C1149.35 220.485 1149.16 220.1 1148.88 219.771C1148.61 219.443 1148.27 219.178 1147.88 218.997C1147.49 218.815 1147.07 218.721 1146.65 218.721H1131.66C1130.98 218.721 1130.32 218.959 1129.8 219.394C1129.27 219.828 1128.92 220.432 1128.8 221.101L1127.72 226.811C1127.62 227.385 1127.35 227.917 1126.96 228.346C1126.56 228.775 1126.05 229.082 1125.49 229.231C1124.93 229.381 1124.33 229.366 1123.78 229.19C1123.22 229.013 1122.73 228.681 1122.35 228.234L1110 213.603C1109.59 213.121 1109.34 212.525 1109.28 211.896C1109.23 211.268 1109.37 210.637 1109.68 210.09L1131.97 171.417C1132.33 170.793 1132.9 170.317 1133.58 170.073C1134.26 169.829 1135.01 169.832 1135.68 170.082C1136.36 170.332 1136.93 170.813 1137.29 171.44C1137.65 172.067 1137.77 172.801 1137.64 173.512L1132.66 200.271C1132.58 200.692 1132.6 201.124 1132.71 201.538C1132.81 201.952 1133.01 202.337 1133.29 202.666C1133.56 202.995 1133.9 203.26 1134.29 203.441C1134.68 203.622 1135.1 203.715 1135.53 203.714H1150.51C1151.19 203.713 1151.84 203.475 1152.37 203.041C1152.89 202.606 1153.24 202.003 1153.37 201.335L1154.73 194.008C1154.83 193.435 1155.1 192.903 1155.49 192.475C1155.89 192.047 1156.4 191.74 1156.96 191.591C1157.53 191.443 1158.12 191.457 1158.68 191.634C1159.23 191.811 1159.73 192.143 1160.1 192.59L1172.45 207.222C1172.86 207.704 1173.11 208.3 1173.17 208.928C1173.22 209.557 1173.09 210.187 1172.77 210.734L1150.49 249.407C1150.23 249.875 1149.86 250.266 1149.4 250.538C1148.95 250.811 1148.43 250.954 1147.9 250.954ZM1131.66 218.55H1146.65C1147.1 218.55 1147.54 218.649 1147.95 218.84C1148.35 219.032 1148.71 219.31 1149 219.656C1149.29 220.002 1149.5 220.407 1149.61 220.843C1149.72 221.278 1149.74 221.733 1149.66 222.175L1144.98 247.329C1144.86 248 1144.98 248.69 1145.32 249.281C1145.66 249.871 1146.2 250.324 1146.84 250.561C1147.48 250.797 1148.18 250.802 1148.82 250.574C1149.46 250.347 1150 249.902 1150.35 249.316L1172.64 210.643C1172.93 210.123 1173.07 209.525 1173.01 208.928C1172.96 208.331 1172.72 207.766 1172.34 207.308L1159.98 192.676C1159.63 192.257 1159.16 191.947 1158.63 191.782C1158.11 191.618 1157.55 191.605 1157.02 191.746C1156.48 191.887 1156 192.176 1155.63 192.579C1155.25 192.983 1155 193.484 1154.9 194.024L1153.54 201.351C1153.41 202.055 1153.03 202.692 1152.48 203.151C1151.93 203.609 1151.24 203.86 1150.52 203.859V203.859H1135.54C1135.09 203.858 1134.65 203.758 1134.24 203.566C1133.83 203.374 1133.47 203.095 1133.19 202.749C1132.9 202.403 1132.69 201.997 1132.58 201.562C1132.46 201.126 1132.45 200.671 1132.53 200.228L1137.5 173.469C1137.62 172.798 1137.5 172.107 1137.16 171.517C1136.82 170.926 1136.28 170.473 1135.65 170.237C1135.01 170 1134.31 169.996 1133.66 170.223C1133.02 170.45 1132.48 170.896 1132.13 171.481L1109.85 210.154C1109.55 210.673 1109.42 211.272 1109.47 211.869C1109.52 212.465 1109.76 213.032 1110.14 213.49L1122.52 228.121C1122.88 228.542 1123.35 228.854 1123.87 229.019C1124.4 229.185 1124.96 229.198 1125.49 229.057C1126.03 228.915 1126.51 228.626 1126.88 228.222C1127.26 227.817 1127.51 227.315 1127.61 226.773L1128.68 221.058C1128.81 220.361 1129.18 219.731 1129.72 219.274C1130.27 218.817 1130.95 218.561 1131.66 218.55V218.55Z" fill="#001D4B"/>
<path d="M1136.74 313.867C1136.36 313.868 1135.98 313.801 1135.62 313.669C1134.94 313.432 1134.36 312.952 1134 312.319C1133.64 311.686 1133.52 310.944 1133.67 310.231L1138.35 285.078C1138.42 284.657 1138.41 284.225 1138.3 283.812C1138.19 283.398 1138 283.013 1137.72 282.685C1137.45 282.356 1137.11 282.091 1136.72 281.91C1136.33 281.729 1135.91 281.635 1135.48 281.635H1120.5C1119.82 281.633 1119.16 281.871 1118.64 282.306C1118.12 282.741 1117.76 283.345 1117.64 284.014L1116.57 289.729C1116.46 290.301 1116.19 290.832 1115.8 291.258C1115.4 291.685 1114.89 291.991 1114.33 292.139C1113.77 292.288 1113.17 292.273 1112.62 292.098C1112.06 291.922 1111.57 291.592 1111.2 291.147L1098.84 276.516C1098.43 276.034 1098.19 275.438 1098.13 274.809C1098.07 274.181 1098.21 273.55 1098.52 273.003L1120.81 234.33C1121.17 233.704 1121.74 233.226 1122.42 232.98C1123.1 232.734 1123.85 232.736 1124.53 232.986C1125.2 233.236 1125.77 233.718 1126.13 234.346C1126.49 234.974 1126.61 235.709 1126.48 236.42L1121.51 263.184C1121.43 263.604 1121.45 264.036 1121.55 264.449C1121.66 264.862 1121.86 265.247 1122.13 265.575C1122.4 265.904 1122.74 266.169 1123.13 266.35C1123.52 266.532 1123.94 266.627 1124.37 266.627H1139.35C1140.03 266.628 1140.69 266.39 1141.21 265.955C1141.74 265.52 1142.09 264.916 1142.21 264.248L1143.58 256.922C1143.68 256.348 1143.95 255.816 1144.34 255.388C1144.74 254.96 1145.25 254.653 1145.81 254.505C1146.38 254.356 1146.97 254.371 1147.53 254.548C1148.08 254.725 1148.58 255.056 1148.95 255.504L1161.33 270.135C1161.74 270.617 1161.99 271.213 1162.04 271.841C1162.1 272.47 1161.96 273.1 1161.65 273.648L1139.36 312.321C1139.1 312.794 1138.72 313.189 1138.26 313.461C1137.8 313.734 1137.27 313.875 1136.74 313.867V313.867ZM1120.5 281.468H1135.48C1135.93 281.468 1136.38 281.568 1136.78 281.759C1137.19 281.95 1137.55 282.229 1137.84 282.575C1138.13 282.921 1138.34 283.326 1138.45 283.761C1138.56 284.196 1138.58 284.651 1138.5 285.094L1133.82 310.247C1133.71 310.918 1133.83 311.609 1134.17 312.199C1134.51 312.79 1135.04 313.243 1135.68 313.479C1136.32 313.716 1137.02 313.72 1137.66 313.493C1138.31 313.266 1138.85 312.82 1139.2 312.235L1161.48 273.562C1161.78 273.044 1161.91 272.446 1161.86 271.85C1161.81 271.254 1161.57 270.689 1161.19 270.232L1148.8 255.6C1148.45 255.179 1147.98 254.868 1147.46 254.702C1146.93 254.536 1146.37 254.524 1145.83 254.665C1145.3 254.806 1144.82 255.096 1144.45 255.5C1144.07 255.904 1143.82 256.406 1143.72 256.948L1142.36 264.269C1142.23 264.975 1141.85 265.611 1141.3 266.07C1140.75 266.528 1140.06 266.779 1139.34 266.778V266.778H1124.35C1123.9 266.778 1123.46 266.678 1123.05 266.487C1122.64 266.295 1122.28 266.016 1122 265.669C1121.71 265.323 1121.5 264.917 1121.39 264.481C1121.27 264.045 1121.26 263.59 1121.34 263.147L1126.32 236.387C1126.44 235.716 1126.32 235.026 1125.98 234.435C1125.64 233.845 1125.1 233.392 1124.46 233.155C1123.82 232.919 1123.12 232.914 1122.48 233.142C1121.84 233.369 1121.3 233.814 1120.95 234.4L1098.66 273.073C1098.37 273.592 1098.23 274.19 1098.29 274.785C1098.34 275.381 1098.58 275.946 1098.96 276.403L1111.35 291.034C1111.7 291.456 1112.17 291.768 1112.69 291.934C1113.22 292.1 1113.78 292.113 1114.31 291.971C1114.85 291.83 1115.33 291.54 1115.7 291.136C1116.08 290.731 1116.33 290.228 1116.43 289.686L1117.5 283.971C1117.63 283.27 1118 282.636 1118.55 282.179C1119.1 281.722 1119.79 281.471 1120.5 281.468V281.468Z" fill="#001D4B"/>
<path d="M1026.78 356.536C1026.4 356.537 1026.02 356.47 1025.66 356.338C1024.98 356.1 1024.4 355.62 1024.04 354.987C1023.68 354.355 1023.56 353.613 1023.71 352.9L1028.39 327.747C1028.46 327.327 1028.45 326.895 1028.34 326.482C1028.23 326.069 1028.04 325.684 1027.76 325.356C1027.49 325.027 1027.15 324.763 1026.76 324.581C1026.38 324.399 1025.96 324.304 1025.53 324.304H1010.54C1009.86 324.304 1009.2 324.541 1008.68 324.976C1008.16 325.411 1007.8 326.015 1007.68 326.683L1006.61 332.398C1006.5 332.973 1006.24 333.507 1005.84 333.936C1005.45 334.366 1004.94 334.673 1004.37 334.822C1003.81 334.971 1003.21 334.956 1002.66 334.778C1002.1 334.599 1001.61 334.266 1001.23 333.816L988.854 319.185C988.447 318.703 988.198 318.107 988.142 317.479C988.085 316.85 988.223 316.219 988.538 315.672L1010.82 276.999C1011.18 276.368 1011.75 275.885 1012.44 275.636C1013.12 275.387 1013.87 275.388 1014.55 275.639C1015.23 275.891 1015.8 276.376 1016.16 277.009C1016.52 277.642 1016.64 278.381 1016.5 279.094L1011.52 305.854C1011.44 306.274 1011.46 306.706 1011.57 307.12C1011.67 307.533 1011.87 307.918 1012.14 308.247C1012.42 308.575 1012.76 308.84 1013.15 309.021C1013.53 309.203 1013.96 309.297 1014.38 309.296H1029.36C1030.04 309.297 1030.7 309.059 1031.23 308.624C1031.75 308.19 1032.1 307.586 1032.23 306.917L1033.59 299.596C1033.69 299.022 1033.95 298.489 1034.35 298.061C1034.75 297.632 1035.25 297.325 1035.82 297.175C1036.38 297.026 1036.98 297.04 1037.53 297.217C1038.09 297.394 1038.58 297.725 1038.96 298.173L1051.31 312.804C1051.72 313.286 1051.97 313.882 1052.02 314.51C1052.08 315.139 1051.94 315.77 1051.63 316.317L1029.34 354.99C1029.09 355.453 1028.72 355.841 1028.27 356.113C1027.82 356.385 1027.31 356.531 1026.78 356.536V356.536ZM1010.54 324.137H1025.53C1025.98 324.137 1026.42 324.237 1026.83 324.428C1027.24 324.62 1027.6 324.899 1027.89 325.246C1028.18 325.592 1028.38 325.998 1028.5 326.434C1028.61 326.87 1028.63 327.325 1028.54 327.768L1023.86 352.916C1023.75 353.587 1023.87 354.278 1024.21 354.869C1024.55 355.459 1025.08 355.912 1025.72 356.148C1026.36 356.385 1027.06 356.39 1027.7 356.162C1028.35 355.935 1028.89 355.489 1029.24 354.904L1051.52 316.231C1051.82 315.711 1051.95 315.112 1051.9 314.516C1051.84 313.919 1051.61 313.353 1051.22 312.895L1038.84 298.264C1038.48 297.842 1038.02 297.53 1037.49 297.365C1036.97 297.199 1036.4 297.186 1035.87 297.327C1035.34 297.468 1034.86 297.758 1034.48 298.163C1034.11 298.567 1033.86 299.07 1033.76 299.612L1032.39 306.933C1032.26 307.638 1031.89 308.275 1031.34 308.733C1030.79 309.191 1030.1 309.442 1029.38 309.442V309.442H1014.4C1013.95 309.441 1013.5 309.342 1013.1 309.15C1012.69 308.959 1012.33 308.68 1012.04 308.333C1011.75 307.987 1011.55 307.581 1011.43 307.145C1011.32 306.709 1011.3 306.253 1011.39 305.811L1016.36 279.051C1016.48 278.38 1016.36 277.689 1016.02 277.099C1015.68 276.508 1015.14 276.055 1014.5 275.819C1013.86 275.583 1013.16 275.578 1012.52 275.805C1011.88 276.033 1011.34 276.478 1010.99 277.064L988.704 315.737C988.405 316.256 988.274 316.854 988.326 317.451C988.379 318.048 988.614 318.613 988.999 319.072L1001.38 333.714C1001.74 334.133 1002.2 334.443 1002.73 334.607C1003.26 334.771 1003.82 334.784 1004.35 334.643C1004.88 334.502 1005.36 334.213 1005.74 333.81C1006.11 333.407 1006.36 332.907 1006.47 332.366L1007.54 326.651C1007.67 325.948 1008.04 325.313 1008.59 324.854C1009.14 324.395 1009.83 324.142 1010.54 324.137Z" fill="#001D4B"/>
<path d="M1081.67 335.519C1081.29 335.517 1080.91 335.45 1080.56 335.32C1079.87 335.083 1079.29 334.602 1078.93 333.968C1078.57 333.334 1078.45 332.591 1078.6 331.877L1083.28 306.729C1083.36 306.309 1083.34 305.876 1083.24 305.462C1083.13 305.048 1082.93 304.663 1082.66 304.334C1082.39 304.005 1082.04 303.741 1081.66 303.56C1081.27 303.378 1080.85 303.285 1080.42 303.286H1065.44C1064.76 303.286 1064.1 303.523 1063.58 303.956C1063.05 304.39 1062.7 304.993 1062.57 305.66L1061.5 311.375C1061.39 311.948 1061.13 312.479 1060.73 312.906C1060.34 313.334 1059.83 313.64 1059.27 313.789C1058.7 313.938 1058.11 313.924 1057.55 313.749C1057 313.573 1056.5 313.244 1056.13 312.799L1043.77 298.157C1043.36 297.674 1043.12 297.078 1043.06 296.449C1043 295.821 1043.14 295.19 1043.46 294.644L1065.74 255.971C1066.1 255.344 1066.68 254.865 1067.36 254.618C1068.04 254.372 1068.78 254.375 1069.46 254.625C1070.14 254.876 1070.71 255.359 1071.07 255.989C1071.43 256.618 1071.55 257.354 1071.42 258.066L1066.44 284.836C1066.36 285.256 1066.37 285.688 1066.48 286.102C1066.59 286.515 1066.78 286.9 1067.06 287.229C1067.33 287.558 1067.67 287.822 1068.06 288.004C1068.44 288.185 1068.87 288.279 1069.29 288.279H1084.28C1084.96 288.278 1085.62 288.04 1086.14 287.605C1086.66 287.171 1087.02 286.567 1087.14 285.899L1088.5 278.573C1088.61 277.999 1088.87 277.467 1089.27 277.039C1089.66 276.611 1090.17 276.305 1090.74 276.156C1091.3 276.007 1091.89 276.022 1092.45 276.199C1093.01 276.376 1093.5 276.708 1093.87 277.155L1106.25 291.819C1106.65 292.301 1106.9 292.897 1106.96 293.526C1107.01 294.154 1106.87 294.785 1106.56 295.331L1084.27 334.004C1084.02 334.469 1083.64 334.855 1083.18 335.122C1082.72 335.388 1082.2 335.526 1081.67 335.519V335.519ZM1065.43 303.098H1080.41C1080.86 303.098 1081.31 303.198 1081.71 303.389C1082.12 303.58 1082.48 303.859 1082.77 304.205C1083.06 304.551 1083.26 304.956 1083.38 305.391C1083.49 305.826 1083.51 306.281 1083.43 306.724L1078.75 331.877C1078.64 332.548 1078.76 333.239 1079.1 333.829C1079.44 334.42 1079.97 334.873 1080.61 335.109C1081.25 335.346 1081.95 335.35 1082.59 335.123C1083.23 334.896 1083.78 334.45 1084.12 333.865L1106.41 295.192C1106.71 294.672 1106.84 294.073 1106.78 293.477C1106.73 292.88 1106.49 292.314 1106.11 291.856L1093.75 277.225C1093.4 276.806 1092.93 276.496 1092.4 276.332C1091.88 276.168 1091.32 276.155 1090.79 276.296C1090.25 276.437 1089.77 276.726 1089.4 277.129C1089.02 277.532 1088.77 278.032 1088.67 278.573L1087.31 285.899C1087.18 286.604 1086.8 287.24 1086.25 287.698C1085.7 288.157 1085.01 288.407 1084.29 288.408V288.408H1069.3C1068.85 288.407 1068.41 288.307 1068 288.115C1067.6 287.923 1067.24 287.644 1066.95 287.297C1066.66 286.951 1066.45 286.546 1066.34 286.11C1066.23 285.675 1066.21 285.219 1066.29 284.777L1071.27 258.017C1071.39 257.346 1071.27 256.656 1070.93 256.065C1070.59 255.475 1070.05 255.022 1069.41 254.785C1068.77 254.549 1068.07 254.544 1067.43 254.772C1066.79 254.999 1066.25 255.444 1065.9 256.03L1043.61 294.703C1043.32 295.223 1043.19 295.821 1043.24 296.418C1043.29 297.015 1043.53 297.58 1043.91 298.038L1056.27 312.67C1056.62 313.091 1057.09 313.402 1057.62 313.568C1058.14 313.733 1058.71 313.746 1059.24 313.605C1059.77 313.464 1060.25 313.174 1060.63 312.77C1061 312.366 1061.25 311.863 1061.36 311.321L1062.43 305.606C1062.56 304.904 1062.93 304.269 1063.48 303.811C1064.03 303.353 1064.72 303.101 1065.43 303.098V303.098Z" fill="#001D4B"/>
<path d="M1124.83 377.715C1124.45 377.716 1124.08 377.648 1123.72 377.517C1123.03 377.28 1122.45 376.8 1122.09 376.167C1121.73 375.534 1121.62 374.792 1121.77 374.079L1126.44 348.925C1126.52 348.505 1126.51 348.073 1126.4 347.659C1126.29 347.246 1126.09 346.861 1125.82 346.532C1125.55 346.204 1125.2 345.939 1124.82 345.758C1124.43 345.576 1124.01 345.482 1123.58 345.482H1108.6C1107.92 345.482 1107.26 345.72 1106.74 346.155C1106.22 346.589 1105.86 347.193 1105.74 347.862L1104.66 353.577C1104.56 354.15 1104.29 354.681 1103.9 355.108C1103.5 355.535 1102.99 355.841 1102.43 355.991C1101.87 356.14 1101.27 356.126 1100.72 355.951C1100.16 355.775 1099.67 355.446 1099.29 355L1086.91 340.369C1086.51 339.885 1086.26 339.288 1086.2 338.659C1086.15 338.03 1086.29 337.399 1086.6 336.851L1108.89 298.178C1109.25 297.551 1109.82 297.072 1110.5 296.825C1111.18 296.579 1111.93 296.582 1112.61 296.833C1113.28 297.083 1113.85 297.566 1114.21 298.196C1114.57 298.826 1114.69 299.561 1114.56 300.273L1109.58 327.032C1109.51 327.452 1109.52 327.884 1109.63 328.297C1109.74 328.71 1109.93 329.095 1110.21 329.423C1110.48 329.752 1110.82 330.016 1111.21 330.198C1111.59 330.38 1112.01 330.475 1112.44 330.475H1127.43C1128.11 330.475 1128.77 330.238 1129.29 329.803C1129.81 329.368 1130.17 328.764 1130.29 328.096L1131.65 320.775C1131.75 320.202 1132.02 319.671 1132.42 319.244C1132.81 318.816 1133.32 318.51 1133.88 318.361C1134.45 318.212 1135.04 318.226 1135.6 318.401C1136.15 318.577 1136.64 318.906 1137.02 319.351L1149.37 333.983C1149.78 334.465 1150.03 335.061 1150.08 335.69C1150.14 336.318 1150 336.949 1149.69 337.495L1127.4 376.168C1127.15 376.633 1126.78 377.022 1126.33 377.294C1125.88 377.566 1125.36 377.712 1124.83 377.715ZM1108.6 345.316H1123.58C1124.03 345.316 1124.47 345.416 1124.88 345.607C1125.29 345.799 1125.65 346.078 1125.93 346.424C1126.22 346.771 1126.43 347.177 1126.54 347.613C1126.66 348.049 1126.67 348.504 1126.59 348.947L1121.92 374.095C1121.8 374.766 1121.92 375.457 1122.26 376.047C1122.6 376.638 1123.13 377.091 1123.77 377.327C1124.41 377.563 1125.11 377.568 1125.76 377.341C1126.4 377.113 1126.94 376.668 1127.29 376.082L1149.57 337.41C1149.87 336.89 1150 336.291 1149.95 335.694C1149.9 335.097 1149.66 334.531 1149.27 334.074L1136.92 319.443C1136.56 319.022 1136.09 318.71 1135.57 318.545C1135.04 318.379 1134.48 318.366 1133.95 318.507C1133.42 318.648 1132.93 318.938 1132.56 319.342C1132.18 319.747 1131.93 320.249 1131.83 320.791L1130.47 328.117C1130.34 328.821 1129.97 329.456 1129.41 329.913C1128.86 330.37 1128.17 330.62 1127.45 330.62V330.62H1112.47C1112.02 330.62 1111.57 330.521 1111.17 330.329C1110.76 330.138 1110.4 329.86 1110.11 329.514C1109.82 329.168 1109.62 328.763 1109.5 328.327C1109.39 327.892 1109.37 327.437 1109.45 326.995L1114.43 300.23C1114.54 299.56 1114.42 298.87 1114.08 298.281C1113.74 297.692 1113.21 297.24 1112.57 297.005C1111.93 296.769 1111.23 296.765 1110.59 296.992C1109.95 297.219 1109.4 297.663 1109.06 298.248L1086.77 336.921C1086.47 337.441 1086.34 338.039 1086.4 338.636C1086.45 339.233 1086.69 339.798 1087.07 340.256L1099.43 354.888C1099.78 355.307 1100.25 355.616 1100.78 355.78C1101.3 355.945 1101.86 355.957 1102.39 355.816C1102.93 355.675 1103.41 355.387 1103.78 354.984C1104.16 354.581 1104.41 354.08 1104.51 353.539L1105.59 347.824C1105.72 347.121 1106.09 346.485 1106.64 346.026C1107.19 345.568 1107.88 345.317 1108.6 345.316V345.316Z" fill="#001D4B"/>
</g>
<g clip-path="url(#clip2_4_57)">
<path d="M-17.1925 13.5116C-17.5723 13.5103 -17.949 13.4412 -18.3045 13.3075C-18.9919 13.0694 -19.5691 12.5892 -19.928 11.9564C-20.2868 11.3237 -20.4027 10.582 -20.2542 9.8699L-15.5759 -15.2782C-15.4968 -15.6986 -15.5115 -16.1312 -15.6189 -16.5452C-15.7263 -16.9592 -15.924 -17.3443 -16.1975 -17.6732C-16.4709 -18.0021 -16.8134 -18.2665 -17.2009 -18.4477C-17.5884 -18.6288 -18.0111 -18.7222 -18.4388 -18.7212H-33.419C-34.0983 -18.7211 -34.7564 -18.483 -35.2784 -18.0483C-35.8005 -17.6136 -36.1536 -17.0098 -36.2766 -16.3417L-37.3509 -10.6267C-37.4543 -10.0527 -37.7191 -9.52004 -38.1146 -9.09128C-38.5101 -8.66252 -39.02 -8.35543 -39.5838 -8.20601C-40.1477 -8.0566 -40.7421 -8.07107 -41.298 -8.24772C-41.8539 -8.42436 -42.348 -8.75587 -42.7221 -9.20335L-55.076 -23.8346C-55.4838 -24.3163 -55.7331 -24.9122 -55.7898 -25.5409C-55.8466 -26.1695 -55.7079 -26.8004 -55.3928 -27.3474L-33.1074 -66.0202C-32.7459 -66.6474 -32.1742 -67.1266 -31.4934 -67.3728C-30.8126 -67.6191 -30.067 -67.6166 -29.3879 -67.3658C-28.7088 -67.115 -28.1401 -66.632 -27.7829 -66.0024C-27.4256 -65.3728 -27.3027 -64.6371 -27.4356 -63.9255L-32.4092 -37.166C-32.4872 -36.7462 -32.4722 -36.3144 -32.3647 -35.9012C-32.2572 -35.488 -32.0598 -35.1035 -31.7871 -34.775C-31.5145 -34.4465 -31.1732 -34.1819 -30.7869 -34.0001C-30.4005 -33.8183 -29.9785 -33.7237 -29.5516 -33.723H-14.5662C-13.8862 -33.7229 -13.2275 -33.9607 -12.7046 -34.3954C-12.1817 -34.83 -11.8275 -35.434 -11.7033 -36.1025L-10.3389 -43.4235C-10.2355 -43.9975 -9.97068 -44.5301 -9.57522 -44.9589C-9.17975 -45.3877 -8.66982 -45.6948 -8.10599 -45.8442C-7.54217 -45.9936 -6.94771 -45.9791 -6.39182 -45.8025C-5.83592 -45.6258 -5.34186 -45.2943 -4.96771 -44.8468L7.38613 -30.2156C7.79166 -29.7316 8.03917 -29.1351 8.09582 -28.5062C8.15247 -27.8773 8.01546 -27.2461 7.70295 -26.6974L-14.5877 11.9754C-14.8414 12.444 -15.2176 12.8345 -15.6766 13.1052C-16.1356 13.3758 -16.6597 13.5163 -17.1925 13.5116V13.5116ZM-33.43 -18.893H-18.4493C-17.9992 -18.8919 -17.5551 -18.7919 -17.1479 -18.6C-16.7407 -18.4081 -16.3805 -18.1291 -16.0931 -17.7828C-15.8056 -17.4364 -15.5976 -17.0311 -15.4841 -16.5955C-15.3706 -16.1599 -15.3545 -15.7047 -15.4364 -15.2621L-20.1094 9.89139C-20.2249 10.5617 -20.1017 11.2513 -19.7617 11.8405C-19.4217 12.4297 -18.886 12.8812 -18.2479 13.1167C-17.6097 13.3521 -16.9095 13.3567 -16.2683 13.1296C-15.6271 12.9025 -15.0859 12.458 -14.7382 11.8734L7.54716 -26.7995C7.84651 -27.3188 7.97813 -27.9179 7.9243 -28.5149C7.87047 -29.1118 7.63403 -29.6777 7.2466 -30.135L-5.10723 -44.7663C-5.46291 -45.1874 -5.93111 -45.4989 -6.45686 -45.6645C-6.98261 -45.8301 -7.54432 -45.8431 -8.07715 -45.7018C-8.60997 -45.5606 -9.09193 -45.271 -9.46664 -44.8667C-9.84134 -44.4625 -10.0932 -43.9601 -10.1936 -43.4181L-11.5527 -36.0917C-11.6852 -35.3876 -12.0591 -34.7518 -12.6102 -34.2939C-13.1612 -33.8361 -13.8549 -33.5848 -14.5714 -33.5834V-33.5834H-29.5574C-30.0072 -33.5837 -30.4515 -33.683 -30.8587 -33.8743C-31.2659 -34.0655 -31.626 -34.344 -31.9136 -34.69C-32.2011 -35.036 -32.409 -35.441 -32.5225 -35.8763C-32.6361 -36.3116 -32.6522 -36.7666 -32.5703 -37.2089L-27.5914 -63.9684C-27.474 -64.6393 -27.5956 -65.3302 -27.935 -65.9207C-28.2743 -66.5112 -28.81 -66.9641 -29.4488 -67.2004C-30.0876 -67.4368 -30.789 -67.4417 -31.431 -67.2142C-32.073 -66.9868 -32.615 -66.5415 -32.9626 -65.9558L-55.248 -27.2829C-55.5458 -26.7632 -55.6763 -26.1644 -55.6225 -25.5678C-55.5687 -24.9711 -55.3329 -24.4055 -54.9469 -23.9474L-42.5931 -9.31614C-42.2374 -8.89503 -41.7697 -8.58355 -41.244 -8.41793C-40.7182 -8.25231 -40.156 -8.23936 -39.6232 -8.38059C-39.0903 -8.52181 -38.6089 -8.8114 -38.2342 -9.21568C-37.8595 -9.61996 -37.6071 -10.1223 -37.5067 -10.6643L-36.4324 -16.3793C-36.3044 -17.0831 -35.9339 -17.7198 -35.3855 -18.179C-34.837 -18.6381 -34.1453 -18.8908 -33.43 -18.893V-18.893Z" fill="#001D4B"/>
<path d="M26.5615 55.5576C26.1803 55.5579 25.802 55.4906 25.4442 55.3588C24.7562 55.1218 24.1782 54.6417 23.8192 54.0087C23.4602 53.3757 23.3449 52.6334 23.4945 51.9213L28.1676 26.7678C28.2456 26.348 28.23 25.9162 28.1225 25.503C28.015 25.0898 27.8182 24.7053 27.5455 24.3768C27.2728 24.0482 26.931 23.7837 26.5447 23.6019C26.1584 23.4201 25.7369 23.3255 25.31 23.3248H10.324C9.64404 23.3247 8.98588 23.5625 8.46296 23.9972C7.94003 24.4318 7.58529 25.0358 7.46109 25.7043L6.38685 31.4193C6.28261 31.9929 6.01734 32.5249 5.62155 32.953C5.22576 33.3811 4.71603 33.6875 4.15233 33.8363C3.58863 33.9851 2.99419 33.9702 2.43868 33.7932C1.88316 33.6163 1.38941 33.2847 1.01562 32.8373L-11.3382 18.206C-11.7439 17.7255 -11.9924 17.132 -12.05 16.5057C-12.1076 15.8794 -11.9715 15.2505 -11.6603 14.704L10.6303 -23.9689C10.992 -24.5949 11.5634 -25.0731 12.2433 -25.319C12.9232 -25.5649 13.6677 -25.5627 14.3461 -25.3127C15.0246 -25.0628 15.5928 -24.5813 15.9507 -23.9531C16.3086 -23.3249 16.433 -22.5905 16.3021 -21.8795L11.3285 4.88538C11.2489 5.30468 11.2631 5.7364 11.3699 6.14962C11.4767 6.56283 11.6736 6.94733 11.9464 7.27558C12.2184 7.60764 12.5597 7.87594 12.9467 8.06156C13.3337 8.24718 13.7569 8.34558 14.1861 8.34983H29.1663C29.8463 8.34998 30.505 8.1121 31.0279 7.67747C31.5508 7.24285 31.905 6.63888 32.0292 5.97036L33.3883 -1.35599C33.4945 -1.92831 33.7608 -2.45869 34.1567 -2.88536C34.5527 -3.31203 35.0621 -3.61743 35.6249 -3.76602C36.1877 -3.9146 36.781 -3.90024 37.336 -3.72461C37.8909 -3.54898 38.3847 -3.21933 38.7595 -2.77401L51.1134 11.8572C51.5206 12.3393 51.7695 12.9351 51.8262 13.5636C51.8829 14.1921 51.7445 14.8228 51.4302 15.37L29.1448 54.0429C28.8896 54.5038 28.5151 54.8876 28.0606 55.1541C27.6061 55.4206 27.0884 55.56 26.5615 55.5576V55.5576ZM10.324 23.1583H25.31C25.7598 23.1587 26.2041 23.258 26.6113 23.4492C27.0185 23.6405 27.3786 23.919 27.6662 24.2649C27.9537 24.6109 28.1616 25.0159 28.2751 25.4513C28.3887 25.8866 28.4053 26.3415 28.3234 26.7839L23.6451 51.9374C23.5277 52.6083 23.6493 53.2991 23.9886 53.8896C24.328 54.4802 24.8637 54.933 25.5025 55.1694C26.1412 55.4057 26.8427 55.4106 27.4847 55.1832C28.1267 54.9558 28.6687 54.5105 29.0163 53.9247L51.3012 15.2518C51.5993 14.7331 51.7305 14.1351 51.6767 13.5393C51.6229 12.9434 51.3869 12.3786 51.0006 11.9217L38.62 -2.70955C38.2651 -3.13113 37.7975 -3.44308 37.272 -3.609C36.7464 -3.77492 36.1843 -3.78798 35.6517 -3.64665C35.119 -3.50532 34.6374 -3.21542 34.2632 -2.81079C33.8891 -2.40616 33.6381 -1.90346 33.5388 -1.36137L32.1745 5.95962C32.0451 6.6642 31.6724 7.30108 31.1218 7.7594C30.5712 8.21772 29.8775 8.46848 29.1611 8.46799H14.1809C13.7305 8.46779 13.2856 8.36836 12.878 8.1768C12.4703 7.98524 12.1097 7.70625 11.8221 7.35964C11.5344 7.01302 11.3267 6.60731 11.2136 6.17132C11.1005 5.73533 11.0846 5.27978 11.1675 4.83704L16.1411 -21.9224C16.2585 -22.5934 16.1369 -23.2842 15.7975 -23.8747C15.4581 -24.4652 14.9225 -24.9181 14.2837 -25.1544C13.6449 -25.3908 12.9435 -25.3957 12.3015 -25.1683C11.6595 -24.9409 11.1174 -24.4955 10.7699 -23.9098L-11.5155 14.7631C-11.8144 15.2812 -11.946 15.8789 -11.8932 16.4748C-11.8403 17.0706 -11.6051 17.6357 -11.2197 18.0932L1.16091 32.7245C1.51659 33.1456 1.98426 33.4571 2.51001 33.6227C3.03577 33.7883 3.598 33.8012 4.13082 33.66C4.66365 33.5188 5.14561 33.2292 5.52032 32.8249C5.89502 32.4206 6.14691 31.9183 6.24732 31.3763L7.32157 25.6613C7.45373 24.9604 7.82544 24.3274 8.37326 23.8707C8.92108 23.414 9.6108 23.1622 10.324 23.1583Z" fill="#001D4B"/>
<path d="M14.6588 119.255C14.2795 119.253 13.9033 119.186 13.5468 119.056C12.858 118.818 12.2795 118.337 11.9197 117.704C11.5598 117.07 11.4435 116.327 11.5919 115.613L16.2649 90.4652C16.3439 90.0453 16.329 89.6132 16.2219 89.1996C16.1148 88.786 15.9178 88.4011 15.6449 88.0723C15.3721 87.7435 15.0304 87.479 14.6436 87.2975C14.2568 87.116 13.8345 87.022 13.4073 87.0223H-1.57292C-2.25211 87.0219 -2.9101 87.259 -3.43291 87.6926C-3.95573 88.1261 -4.31051 88.7288 -4.43582 89.3964L-5.51007 95.1114C-5.61352 95.6854 -5.87885 96.218 -6.27432 96.6468C-6.66978 97.0756 -7.17919 97.3826 -7.74301 97.532C-8.30684 97.6815 -8.90129 97.667 -9.45719 97.4903C-10.0131 97.3137 -10.5072 96.9822 -10.8813 96.5347L-23.2619 81.9035C-23.6677 81.4207 -23.916 80.825 -23.9726 80.1969C-24.0293 79.5688 -23.892 78.9384 -23.5792 78.3907L-1.28862 39.7178C-0.927118 39.0906 -0.355387 38.6115 0.325375 38.3653C1.00614 38.119 1.75228 38.1215 2.43138 38.3723C3.11048 38.6231 3.67917 39.1061 4.03646 39.7357C4.39374 40.3653 4.51665 41.101 4.3837 41.8126L-0.589938 68.5721C-0.668913 68.992 -0.654568 69.4241 -0.54745 69.8377C-0.440333 70.2513 -0.243329 70.6362 0.0295373 70.965C0.302404 71.2938 0.644607 71.5583 1.0314 71.7398C1.41819 71.9213 1.83995 72.0153 2.2672 72.0151H17.2479C17.9271 72.0154 18.5851 71.7783 19.1079 71.3448C19.6307 70.9112 19.9855 70.3085 20.1108 69.641L21.4694 62.3146C21.5728 61.7406 21.8381 61.2079 22.2336 60.7792C22.6291 60.3504 23.1385 60.0433 23.7023 59.8939C24.2661 59.7445 24.8606 59.7589 25.4165 59.9356C25.9724 60.1122 26.4664 60.4437 26.8406 60.8912L39.1944 75.5225C39.6005 76.0063 39.8484 76.6033 39.9041 77.2325C39.9598 77.8618 39.8207 78.4929 39.506 79.0406L17.2206 117.714C16.9711 118.177 16.6019 118.564 16.1511 118.835C15.7003 119.107 15.1849 119.252 14.6588 119.255ZM-1.57869 86.8504H13.402C13.8521 86.8516 14.2962 86.9516 14.7034 87.1434C15.1106 87.3353 15.4708 87.6143 15.7582 87.9607C16.0457 88.3071 16.2537 88.7124 16.3672 89.148C16.4807 89.5835 16.4968 90.0387 16.4149 90.4814L11.7366 115.635C11.6212 116.305 11.7444 116.995 12.0844 117.584C12.4244 118.173 12.96 118.625 13.5982 118.86C14.2364 119.096 14.9366 119.1 15.5778 118.873C16.219 118.646 16.7602 118.201 17.1079 117.617L39.3932 78.9439C39.6911 78.4242 39.8221 77.8254 39.7683 77.2288C39.7145 76.6322 39.4787 76.0665 39.0927 75.6084L26.7388 60.9772C26.3821 60.5581 25.9139 60.2486 25.3887 60.0842C24.8635 59.9199 24.3024 59.9075 23.7705 60.0485C23.2385 60.1895 22.7574 60.4781 22.3826 60.881C22.0077 61.2839 21.7542 61.7846 21.6519 62.3254L20.2881 69.6517C20.1577 70.3558 19.7847 70.9921 19.2343 71.4502C18.684 71.9084 17.9907 72.1595 17.2747 72.1601V72.1601H2.29448C1.8446 72.1597 1.40031 72.0604 0.993107 71.8692C0.585902 71.6779 0.225295 71.3994 -0.0622562 71.0534C-0.349808 70.7075 -0.557703 70.3024 -0.671241 69.8671C-0.784778 69.4318 -0.800913 68.9768 -0.718973 68.5345L4.25466 41.775C4.37203 41.1041 4.25047 40.4133 3.91109 39.8227C3.57171 39.2322 3.03607 38.7794 2.39729 38.543C1.7585 38.3067 1.05709 38.3018 0.41507 38.5292C-0.226947 38.7566 -0.768983 39.2019 -1.11657 39.7877L-23.4019 78.4605C-23.7013 78.9798 -23.8329 79.5789 -23.7791 80.1759C-23.7252 80.7729 -23.4883 81.3387 -23.1009 81.7961L-10.747 96.4273C-10.3913 96.8484 -9.92367 97.1599 -9.39792 97.3255C-8.87216 97.4911 -8.30993 97.5041 -7.77711 97.3629C-7.24428 97.2216 -6.76284 96.932 -6.38814 96.5278C-6.01344 96.1235 -5.76102 95.6211 -5.66061 95.0791L-4.58637 89.3641C-4.45792 88.6635 -4.08957 88.0295 -3.54464 87.5708C-2.99971 87.1121 -2.3119 86.8574 -1.59967 86.8504H-1.57869Z" fill="#001D4B"/>
<path d="M3.49738 182.324C3.11757 182.323 2.7414 182.254 2.38589 182.12C1.69687 181.884 1.1178 181.404 0.757734 180.771C0.397665 180.138 0.281084 179.395 0.430425 178.682L5.10875 153.534C5.18781 153.114 5.17316 152.681 5.06574 152.267C4.95831 151.853 4.76116 151.468 4.4877 151.139C4.21424 150.81 3.87119 150.546 3.48374 150.365C3.09629 150.184 2.67355 150.09 2.24584 150.091L-12.7343 150.059C-13.414 150.06 -14.0722 150.298 -14.5949 150.733C-15.1176 151.167 -15.4721 151.77 -15.5972 152.438L-16.6715 158.153C-16.7749 158.728 -17.0398 159.26 -17.4352 159.689C-17.8307 160.118 -18.3406 160.425 -18.9044 160.574C-19.4683 160.724 -20.0627 160.709 -20.6186 160.532C-21.1745 160.356 -21.6686 160.024 -22.0427 159.577L-34.3966 144.946C-34.8029 144.463 -35.0505 143.867 -35.1063 143.238C-35.162 142.61 -35.0232 141.979 -34.7081 141.433L-12.4228 102.76C-12.0613 102.133 -11.4895 101.654 -10.8088 101.407C-10.128 101.161 -9.38239 101.164 -8.70329 101.414C-8.0242 101.665 -7.45551 102.148 -7.09822 102.778C-6.74093 103.407 -6.61802 104.143 -6.75098 104.855L-11.7246 131.614C-11.8026 132.034 -11.787 132.466 -11.6795 132.879C-11.572 133.292 -11.3752 133.677 -11.1025 134.005C-10.8298 134.334 -10.488 134.598 -10.1017 134.78C-9.71538 134.962 -9.2939 135.056 -8.86695 135.057H6.11848C6.79844 135.057 7.45712 134.819 7.98005 134.385C8.50297 133.95 8.85718 133.346 8.98138 132.678L10.3405 125.357C10.4459 124.784 10.7117 124.253 11.1073 123.826C11.503 123.398 12.012 123.092 12.575 122.943C13.1379 122.794 13.7317 122.808 14.287 122.983C14.8424 123.158 15.3365 123.488 15.7117 123.933L28.0655 138.565C28.4716 139.048 28.7195 139.645 28.7752 140.275C28.8309 140.904 28.6918 141.535 28.3771 142.083L6.09172 180.756C5.84318 181.229 5.4705 181.625 5.01328 181.901C4.55607 182.177 4.03165 182.324 3.49738 182.324V182.324ZM-12.7343 149.919H2.24584C2.69596 149.921 3.14055 150.021 3.54773 150.212C3.95492 150.404 4.31512 150.683 4.60257 151.03C4.89003 151.376 5.09752 151.781 5.21103 152.217C5.32454 152.653 5.34113 153.108 5.25929 153.55L0.586212 178.704C0.470765 179.374 0.593999 180.064 0.933978 180.653C1.27396 181.242 1.8091 181.694 2.44726 181.929C3.08542 182.165 3.78619 182.169 4.42738 181.942C5.06856 181.715 5.60979 181.27 5.95744 180.686L28.2428 142.013C28.5422 141.494 28.6738 140.895 28.62 140.298C28.5661 139.701 28.3297 139.135 27.9423 138.677L15.5884 124.046C15.2327 123.625 14.7645 123.314 14.2388 123.148C13.713 122.982 13.1513 122.969 12.6185 123.111C12.0857 123.252 11.6037 123.541 11.229 123.946C10.8543 124.35 10.6019 124.852 10.5015 125.394L9.14294 132.721C9.0104 133.425 8.636 134.061 8.08496 134.518C7.53391 134.976 6.8407 135.228 6.12425 135.229V135.229H-8.8617C-9.31158 135.229 -9.75587 135.129 -10.1631 134.938C-10.5703 134.747 -10.9304 134.468 -11.2179 134.122C-11.5055 133.776 -11.7134 133.371 -11.8269 132.936C-11.9404 132.501 -11.9571 132.046 -11.8752 131.603L-6.89575 104.844C-6.77837 104.173 -6.89994 103.482 -7.23932 102.892C-7.5787 102.301 -8.11434 101.848 -8.75312 101.612C-9.3919 101.376 -10.0933 101.371 -10.7353 101.598C-11.3774 101.826 -11.9194 102.271 -12.267 102.857L-34.5523 141.53C-34.8502 142.049 -34.9812 142.648 -34.9274 143.245C-34.8736 143.841 -34.6373 144.407 -34.2513 144.865L-21.8974 159.496C-21.5417 159.917 -21.0741 160.229 -20.5483 160.394C-20.0226 160.56 -19.4603 160.573 -18.9275 160.432C-18.3947 160.291 -17.9133 160.001 -17.5385 159.597C-17.1638 159.192 -16.9114 158.69 -16.811 158.148L-15.7368 152.433C-15.6088 151.729 -15.2383 151.093 -14.6898 150.633C-14.1413 150.174 -13.4496 149.922 -12.7343 149.919Z" fill="#001D4B"/>
<path d="M-8.4375 246.016C-8.817 246.017 -9.1937 245.949 -9.54952 245.817C-10.2378 245.58 -10.8162 245.101 -11.1761 244.468C-11.536 243.835 -11.6526 243.093 -11.5045 242.38L-6.82613 217.226C-6.74806 216.806 -6.76344 216.374 -6.87124 215.96C-6.97905 215.547 -7.17654 215.162 -7.4498 214.833C-7.72307 214.505 -8.06521 214.24 -8.45219 214.059C-8.83917 213.877 -9.26163 213.783 -9.68904 213.783H-24.6692C-25.3488 213.782 -26.0075 214.02 -26.5297 214.455C-27.052 214.89 -27.4048 215.494 -27.5269 216.163L-28.6011 221.878C-28.7054 222.451 -28.9712 222.983 -29.3669 223.412C-29.7627 223.84 -30.2719 224.146 -30.8356 224.295C-31.3993 224.444 -31.9938 224.429 -32.5493 224.252C-33.1048 224.075 -33.5986 223.743 -33.9724 223.296L-46.3262 208.665C-46.7341 208.183 -46.9834 207.587 -47.0401 206.958C-47.0968 206.33 -46.9581 205.699 -46.643 205.152L-24.3576 166.479C-23.9961 165.852 -23.4244 165.373 -22.7437 165.126C-22.0629 164.88 -21.3173 164.883 -20.6382 165.133C-19.9591 165.384 -19.3904 165.867 -19.0331 166.497C-18.6758 167.126 -18.5529 167.862 -18.6859 168.574L-23.6595 195.333C-23.7375 195.753 -23.7224 196.185 -23.6149 196.598C-23.5074 197.011 -23.3101 197.396 -23.0374 197.724C-22.7647 198.053 -22.4234 198.317 -22.0371 198.499C-21.6508 198.681 -21.2288 198.775 -20.8018 198.776H-5.8164C-5.13644 198.776 -4.47776 198.538 -3.95483 198.104C-3.43191 197.669 -3.0777 197.065 -2.9535 196.397L-1.58918 189.076C-1.48574 188.502 -1.22092 187.969 -0.82546 187.54C-0.429997 187.111 0.079934 186.804 0.643761 186.655C1.20759 186.506 1.80204 186.52 2.35794 186.697C2.91384 186.873 3.4079 187.205 3.78205 187.652L16.1626 202.284C16.5698 202.766 16.8188 203.361 16.8755 203.99C16.9322 204.618 16.7938 205.249 16.4795 205.796L-5.81116 244.469C-6.06513 244.943 -6.44422 245.338 -6.90744 245.611C-7.37065 245.884 -7.89997 246.024 -8.4375 246.016V246.016ZM-24.675 213.617H-9.69429C-9.24386 213.617 -8.799 213.716 -8.39134 213.908C-7.98368 214.1 -7.6231 214.379 -7.33546 214.725C-7.04781 215.072 -6.84012 215.478 -6.727 215.914C-6.61387 216.35 -6.59853 216.805 -6.68136 217.248L-11.3539 242.396C-11.4713 243.067 -11.3497 243.758 -11.0103 244.348C-10.671 244.939 -10.1353 245.392 -9.49654 245.628C-8.85776 245.864 -8.15634 245.869 -7.51432 245.642C-6.87231 245.414 -6.33027 244.969 -5.98268 244.383L16.3022 205.71C16.6015 205.191 16.7337 204.593 16.6809 203.996C16.628 203.399 16.3927 202.833 16.0068 202.375L3.65301 187.744C3.29733 187.322 2.82967 187.011 2.30391 186.845C1.77816 186.68 1.21593 186.667 0.683101 186.808C0.150277 186.949 -0.331164 187.239 -0.705866 187.643C-1.08057 188.047 -1.33298 188.55 -1.4334 189.092L-2.79246 196.413C-2.92403 197.117 -3.29762 197.754 -3.84888 198.212C-4.40013 198.67 -5.09442 198.921 -5.81116 198.921V198.921H-20.7966C-21.247 198.921 -21.6919 198.822 -22.0995 198.63C-22.5072 198.438 -22.8678 198.159 -23.1554 197.813C-23.4431 197.466 -23.6507 197.06 -23.7639 196.624C-23.877 196.189 -23.8929 195.733 -23.81 195.29L-18.8306 168.531C-18.7204 167.862 -18.8464 167.176 -19.1868 166.591C-19.5272 166.005 -20.061 165.556 -20.6964 165.321C-21.3318 165.086 -22.029 165.079 -22.6686 165.302C-23.3083 165.525 -23.8504 165.964 -24.2019 166.543L-46.4872 205.216C-46.7851 205.736 -46.9161 206.335 -46.8623 206.931C-46.8085 207.528 -46.5727 208.094 -46.1867 208.552L-33.8328 223.183C-33.4768 223.603 -33.0092 223.913 -32.4843 224.077C-31.9593 224.242 -31.3984 224.254 -30.8666 224.113C-30.3348 223.972 -29.8535 223.683 -29.4792 223.28C-29.1049 222.877 -28.8529 222.376 -28.7517 221.835L-27.6774 216.12C-27.5469 215.416 -27.1736 214.781 -26.6231 214.323C-26.0726 213.866 -25.3796 213.616 -24.664 213.617H-24.675Z" fill="#001D4B"/>
<path d="M-19.5666 309.085C-19.946 309.085 -20.3225 309.018 -20.6786 308.886C-21.3669 308.649 -21.9452 308.17 -22.3052 307.537C-22.6651 306.904 -22.7817 306.162 -22.6335 305.449L-17.9552 280.295C-17.8772 279.876 -17.8928 279.444 -18.0003 279.031C-18.1078 278.617 -18.3046 278.233 -18.5773 277.904C-18.85 277.576 -19.1918 277.311 -19.5781 277.129C-19.9644 276.948 -20.3859 276.853 -20.8129 276.852H-35.7988C-36.4788 276.852 -37.1369 277.09 -37.6599 277.525C-38.1828 277.959 -38.537 278.563 -38.6612 279.232L-39.7354 284.947C-39.8416 285.519 -40.1084 286.05 -40.5044 286.476C-40.9004 286.903 -41.4092 287.208 -41.972 287.357C-42.5349 287.505 -43.1286 287.491 -43.6836 287.315C-44.2386 287.14 -44.7318 286.81 -45.1067 286.365L-57.4605 271.734C-57.8677 271.251 -58.1166 270.656 -58.1733 270.027C-58.23 269.399 -58.0922 268.768 -57.7778 268.221L-35.4925 229.548C-35.1328 228.918 -34.5612 228.435 -33.8795 228.187C-33.1979 227.938 -32.4503 227.939 -31.7693 228.19C-31.0884 228.44 -30.5184 228.924 -30.1606 229.556C-29.8027 230.187 -29.6803 230.924 -29.8149 231.637L-34.7943 258.402C-34.8724 258.822 -34.857 259.255 -34.7492 259.668C-34.6414 260.082 -34.4434 260.467 -34.1701 260.795C-33.8969 261.124 -33.5547 261.388 -33.1677 261.57C-32.7808 261.751 -32.3588 261.845 -31.9314 261.845H-16.9507C-16.2705 261.846 -15.6118 261.609 -15.0886 261.174C-14.5655 260.739 -14.211 260.135 -14.0878 259.466L-12.724 252.139C-12.6198 251.566 -12.354 251.034 -11.9582 250.606C-11.5624 250.178 -11.0527 249.871 -10.489 249.722C-9.92527 249.573 -9.33083 249.588 -8.77532 249.765C-8.2198 249.942 -7.72657 250.274 -7.35278 250.721L4.99056 265.374C5.39775 265.856 5.64671 266.452 5.70341 267.08C5.76011 267.709 5.62171 268.34 5.30738 268.887L-16.978 307.56C-17.2327 308.023 -17.6072 308.409 -18.0627 308.678C-18.5183 308.946 -19.0378 309.087 -19.5666 309.085ZM-35.7988 276.686H-20.8129C-20.3627 276.687 -19.9181 276.787 -19.511 276.979C-19.1038 277.171 -18.7441 277.45 -18.4566 277.796C-18.1692 278.143 -17.9612 278.548 -17.8477 278.983C-17.7342 279.419 -17.7176 279.874 -17.7994 280.317L-22.4777 305.465C-22.5951 306.136 -22.4735 306.827 -22.1342 307.417C-21.7948 308.008 -21.2591 308.461 -20.6204 308.697C-19.9816 308.933 -19.2802 308.938 -18.6381 308.711C-17.9961 308.483 -17.4541 308.038 -17.1065 307.452L5.17835 268.779C5.47766 268.26 5.60992 267.662 5.55706 267.065C5.5042 266.468 5.26891 265.902 4.88303 265.444L-7.4708 250.813C-7.82575 250.391 -8.29332 250.079 -8.81885 249.913C-9.34439 249.747 -9.90594 249.734 -10.4386 249.876C-10.9713 250.017 -11.4529 250.307 -11.8271 250.711C-12.2012 251.116 -12.4527 251.619 -12.552 252.161L-13.9163 259.482C-14.0469 260.187 -14.4202 260.824 -14.9716 261.282C-15.5231 261.74 -16.218 261.991 -16.935 261.99V261.99H-31.9152C-32.3657 261.99 -32.8108 261.89 -33.2186 261.699C-33.6265 261.507 -33.987 261.228 -34.275 260.882C-34.5631 260.535 -34.7718 260.13 -34.8856 259.694C-34.9994 259.258 -35.0158 258.802 -34.9338 258.359L-29.9544 231.6C-29.8371 230.929 -29.9586 230.238 -30.298 229.647C-30.6374 229.057 -31.1736 228.604 -31.8123 228.368C-32.4511 228.131 -33.1525 228.127 -33.7946 228.354C-34.4366 228.581 -34.9781 229.027 -35.3257 229.612L-57.6163 268.285C-57.9129 268.804 -58.0435 269.402 -57.9898 269.998C-57.936 270.593 -57.7006 271.158 -57.3157 271.615L-44.9619 286.247C-44.6069 286.668 -44.1394 286.98 -43.6138 287.146C-43.0883 287.312 -42.5262 287.325 -41.9936 287.184C-41.4609 287.042 -40.9798 286.753 -40.6056 286.348C-40.2315 285.943 -39.98 285.441 -39.8807 284.898L-38.8065 279.189C-38.6751 278.487 -38.3029 277.852 -37.7537 277.395C-37.2046 276.938 -36.5132 276.687 -35.7988 276.686V276.686Z" fill="#001D4B"/>
</g>
</g>
<defs>
<clipPath id="clip0_4_57">
<rect width="1120" height="312" rx="8" fill="white"/>
</clipPath>
<clipPath id="clip1_4_57">
<rect width="470.257" height="482.073" fill="white" transform="translate(977 0.917969)"/>
</clipPath>
<clipPath id="clip2_4_57">
<rect width="470.257" height="482.073" fill="white" transform="translate(-407.257 -152.121)"/>
</clipPath>
</defs>
</svg>
