<svg width="1440" height="357" viewBox="0 0 1440 357" fill="none" xmlns="http://www.w3.org/2000/svg">
<g opacity="0.3" clip-path="url(#clip0_1146_21055)">
<path d="M107.408 126.005C106.033 126.006 104.668 125.762 103.378 125.284C100.883 124.425 98.7879 122.686 97.4834 120.392C96.1789 118.099 95.7554 115.408 96.2923 112.825L113.249 21.6568C113.532 20.1337 113.476 18.567 113.085 17.068C112.695 15.569 111.978 14.1744 110.987 12.9832C109.997 11.7921 108.757 10.8336 107.354 10.1759C105.952 9.51828 104.421 9.17751 102.872 9.17784H48.5761C46.1129 9.17427 43.7265 10.0357 41.8337 11.6119C39.9408 13.1881 38.662 15.379 38.2196 17.8021L34.326 38.5159C33.951 40.5965 32.9903 42.5271 31.557 44.0811C30.1236 45.6351 28.2773 46.7482 26.2337 47.2898C24.1901 47.8313 22.0346 47.7789 20.0198 47.1386C18.0049 46.4984 16.2142 45.2968 14.8581 43.675L-29.918 -9.35548C-31.398 -11.1046 -32.3027 -13.2677 -32.5083 -15.5497C-32.7138 -17.8317 -32.2109 -20.1216 -31.0672 -22.107L49.7054 -162.276C51.0157 -164.549 53.0879 -166.285 55.5553 -167.178C58.0227 -168.071 60.7261 -168.061 63.1875 -167.152C65.6488 -166.243 67.7091 -164.493 69.0041 -162.211C70.2991 -159.929 70.7455 -157.262 70.2636 -154.683L52.1389 -57.6552C51.8562 -56.1338 51.9118 -54.5688 52.3014 -53.0712C52.6911 -51.5736 53.4054 -50.18 54.3937 -48.9892C55.382 -47.7984 56.6199 -46.8396 58.0201 -46.1807C59.4203 -45.5218 60.948 -45.1789 62.4955 -45.1764H116.812C119.276 -45.1759 121.662 -46.038 123.558 -47.6133C125.453 -49.1886 126.737 -51.3776 127.187 -53.8006L132.132 -80.3354C132.507 -82.4159 133.468 -84.3465 134.901 -85.9005C136.334 -87.4545 138.181 -88.5676 140.224 -89.1092C142.268 -89.6507 144.424 -89.5983 146.439 -88.9581C148.454 -88.3178 150.244 -87.1163 151.6 -85.4944L196.376 -32.4639C197.847 -30.714 198.746 -28.5551 198.951 -26.2784C199.156 -24.0017 198.659 -21.7168 197.525 -19.7319L116.734 120.437C115.823 122.117 114.476 123.522 112.835 124.502C111.194 125.481 109.32 126.001 107.408 126.005ZM48.5571 8.57434H102.852C104.485 8.57509 106.097 8.93542 107.575 9.62973C109.052 10.324 110.359 11.3353 111.402 12.5916C112.444 13.8479 113.197 15.3183 113.607 16.8986C114.017 18.4788 114.075 20.1299 113.774 21.7346L96.915 112.922C96.4896 115.354 96.9302 117.858 98.1602 119.998C99.3903 122.138 101.332 123.78 103.647 124.636C105.962 125.493 108.504 125.511 110.831 124.687C113.158 123.862 115.123 122.248 116.383 120.125L197.155 -20.0434C198.24 -21.9245 198.719 -24.0941 198.527 -26.2571C198.336 -28.4202 197.483 -30.4717 196.084 -32.1329L151.211 -85.1633C149.922 -86.6897 148.226 -87.8187 146.32 -88.419C144.415 -89.0192 142.378 -89.0662 140.447 -88.5543C138.516 -88.0424 136.769 -86.9928 135.411 -85.5275C134.052 -84.0622 133.139 -82.2415 132.775 -80.277L127.85 -53.7228C127.369 -51.1728 126.012 -48.8707 124.014 -47.2143C122.016 -45.5579 119.504 -44.6511 116.909 -44.6507H62.5934C60.9628 -44.652 59.3525 -45.012 57.8766 -45.7052C56.4007 -46.3983 55.0946 -47.4077 54.0524 -48.6617C53.0102 -49.9157 52.2567 -51.3837 51.8452 -52.9615C51.4337 -54.5393 51.3742 -56.1882 51.6712 -57.7915L69.66 -154.761C70.0784 -157.191 69.6327 -159.69 68.4005 -161.826C67.1682 -163.961 65.2277 -165.597 62.9147 -166.451C60.6017 -167.304 58.0627 -167.321 55.7387 -166.498C53.4148 -165.675 51.4522 -164.064 50.1921 -161.945L-30.5805 -21.776C-31.66 -19.8921 -32.1339 -17.722 -31.9389 -15.5596C-31.7439 -13.3971 -30.8893 -11.3469 -29.4902 -9.68652L15.2859 43.3439C16.575 44.8702 18.271 45.9993 20.1766 46.5995C22.0822 47.1998 24.119 47.2467 26.0502 46.7349C27.9815 46.223 29.7283 45.1734 31.0864 43.7081C32.4445 42.2428 33.3584 40.422 33.7224 38.4576L37.6159 17.7437C38.0694 15.1724 39.4152 12.8433 41.4164 11.1662C43.4175 9.48909 45.9461 8.5713 48.5571 8.57434Z" fill="#01307C"/>
<path d="M306.429 50.3914C305.054 50.3836 303.69 50.1399 302.398 49.6709C299.902 48.808 297.806 47.065 296.502 44.7682C295.197 42.4714 294.775 39.778 295.312 37.1921L312.269 -53.9565C312.555 -55.48 312.502 -57.048 312.113 -58.5485C311.724 -60.049 311.007 -61.4451 310.016 -62.6371C309.025 -63.829 307.783 -64.7876 306.379 -65.4441C304.975 -66.1007 303.443 -66.4391 301.892 -66.4353H247.596C245.134 -66.4351 242.75 -65.5723 240.858 -63.9967C238.966 -62.4212 237.686 -60.2325 237.24 -57.8111L233.346 -37.0972C232.971 -35.0166 232.01 -33.0861 230.577 -31.5321C229.144 -29.9781 227.297 -28.8651 225.254 -28.3235C223.21 -27.782 221.055 -27.8344 219.04 -28.4747C217.025 -29.1149 215.234 -30.3165 213.878 -31.9383L169.102 -84.9688C167.624 -86.7148 166.72 -88.8745 166.515 -91.1531C166.309 -93.4317 166.812 -95.7183 167.954 -97.7007L248.726 -237.869C250.036 -240.143 252.108 -241.879 254.575 -242.772C257.043 -243.664 259.746 -243.655 262.208 -242.746C264.669 -241.837 266.729 -240.087 268.024 -237.805C269.319 -235.523 269.766 -232.856 269.284 -230.277L251.256 -133.288C250.97 -131.766 251.023 -130.2 251.411 -128.701C251.799 -127.202 252.513 -125.807 253.502 -124.615C254.491 -123.423 255.731 -122.464 257.133 -121.807C258.535 -121.149 260.065 -120.808 261.613 -120.809H315.929C318.39 -120.808 320.775 -121.667 322.67 -123.239C324.565 -124.81 325.851 -126.994 326.305 -129.414L331.25 -155.968C331.625 -158.049 332.585 -159.979 334.018 -161.533C335.451 -163.087 337.299 -164.2 339.342 -164.742C341.386 -165.283 343.541 -165.231 345.556 -164.591C347.571 -163.95 349.362 -162.749 350.718 -161.127L395.591 -108.097C397.066 -106.345 397.967 -104.182 398.173 -101.902C398.378 -99.621 397.877 -97.3322 396.739 -95.3452L315.948 44.8235C315.024 46.5349 313.647 47.9595 311.969 48.9415C310.29 49.9234 308.373 50.425 306.429 50.3914ZM247.577 -67.0583H301.872C303.504 -67.0541 305.115 -66.6916 306.591 -65.9962C308.067 -65.3008 309.371 -64.2896 310.413 -63.0342C311.455 -61.7787 312.208 -60.3096 312.62 -58.7309C313.031 -57.1522 313.091 -55.5023 312.795 -53.898L295.857 37.2699C295.439 39.6996 295.884 42.1991 297.117 44.3345C298.349 46.4699 300.29 48.1064 302.603 48.9599C304.916 49.8134 307.454 49.83 309.778 49.0068C312.102 48.1837 314.065 46.5727 315.325 44.4536L396.098 -95.7151C397.18 -97.597 397.657 -99.766 397.466 -101.928C397.274 -104.091 396.422 -106.142 395.026 -107.805L350.153 -160.835C348.864 -162.361 347.168 -163.49 345.263 -164.091C343.357 -164.691 341.32 -164.738 339.389 -164.226C337.458 -163.714 335.712 -162.664 334.354 -161.199C332.996 -159.734 332.081 -157.913 331.717 -155.949L326.792 -129.394C326.311 -126.842 324.955 -124.538 322.958 -122.878C320.961 -121.219 318.447 -120.308 315.851 -120.303H261.536C259.905 -120.304 258.295 -120.664 256.819 -121.357C255.343 -122.051 254.038 -123.06 252.996 -124.314C251.953 -125.568 251.2 -127.036 250.788 -128.614C250.377 -130.191 250.317 -131.841 250.614 -133.444L268.661 -230.433C269.086 -232.864 268.645 -235.368 267.415 -237.509C266.185 -239.649 264.243 -241.29 261.928 -242.147C259.613 -243.004 257.071 -243.021 254.744 -242.197C252.417 -241.373 250.453 -239.759 249.193 -237.636L168.421 -97.4671C167.341 -95.5832 166.867 -93.4131 167.062 -91.2507C167.257 -89.0882 168.112 -87.038 169.511 -85.3776L214.287 -32.3471C215.576 -30.8208 217.272 -29.6919 219.178 -29.0916C221.083 -28.4913 223.12 -28.4444 225.051 -28.9563C226.983 -29.4681 228.728 -30.5177 230.087 -31.983C231.445 -33.4483 232.359 -35.2691 232.723 -37.2335L236.616 -57.9474C237.082 -60.5113 238.436 -62.8292 240.44 -64.4951C242.444 -66.1609 244.971 -67.0684 247.577 -67.0583Z" fill="#01307C"/>
<path d="M462.911 202.786C461.528 202.781 460.157 202.53 458.862 202.046C456.367 201.187 454.271 199.448 452.966 197.154C451.662 194.86 451.238 192.17 451.775 189.587L468.732 98.438C469.019 96.9161 468.966 95.3498 468.578 93.8507C468.189 92.3515 467.475 90.9565 466.486 89.7648C465.497 88.5732 464.257 87.6144 462.855 86.9566C461.453 86.2988 459.924 85.9581 458.375 85.9591H404.06C401.596 85.9623 399.211 86.8259 397.316 88.4005C395.422 89.9751 394.137 92.162 393.683 94.5833L389.79 115.297C389.415 117.378 388.454 119.308 387.021 120.862C385.587 122.416 383.741 123.529 381.697 124.071C379.654 124.613 377.498 124.56 375.483 123.92C373.469 123.28 371.678 122.078 370.322 120.456L325.546 67.4257C324.07 65.6784 323.169 63.5189 322.963 61.2409C322.758 58.963 323.258 56.677 324.397 54.6937L405.169 -85.4749C406.488 -87.7369 408.562 -89.4619 411.027 -90.3468C413.491 -91.2316 416.188 -91.2199 418.645 -90.3135C421.101 -89.4071 423.159 -87.6641 424.458 -85.3907C425.757 -83.1173 426.214 -80.4589 425.747 -77.8824L407.701 19.1065C407.418 20.6296 407.473 22.1961 407.864 23.6952C408.255 25.1942 408.971 26.5889 409.961 27.7801C410.951 28.9712 412.192 29.9296 413.595 30.5872C414.998 31.2449 416.528 31.5857 418.077 31.5853H472.372C474.835 31.5889 477.222 30.7275 479.115 29.1513C481.008 27.5751 482.287 25.3842 482.73 22.9611L487.675 -3.57362C488.05 -5.65421 489.009 -7.58475 490.443 -9.13878C491.876 -10.6928 493.723 -11.8059 495.767 -12.3475C497.811 -12.889 499.966 -12.8366 501.981 -12.1963C503.996 -11.5561 505.786 -10.3545 507.143 -8.73264L551.919 44.2979C553.394 46.0496 554.294 48.2121 554.499 50.4928C554.705 52.7735 554.205 55.0623 553.067 57.0493L472.294 197.218C471.378 198.906 470.022 200.315 468.37 201.295C466.718 202.275 464.832 202.79 462.911 202.786ZM404.06 85.3361H458.375C460.006 85.3403 461.617 85.703 463.093 86.3983C464.569 87.0938 465.874 88.1049 466.916 89.3604C467.958 90.6158 468.711 92.0848 469.122 93.6635C469.534 95.2422 469.593 96.8921 469.296 98.4964L452.34 189.664C451.921 192.094 452.367 194.594 453.599 196.729C454.831 198.864 456.773 200.501 459.086 201.354C461.399 202.208 463.938 202.224 466.262 201.401C468.586 200.578 470.548 198.967 471.808 196.848L552.599 56.6794C553.676 54.7948 554.149 52.6252 553.954 50.4634C553.759 48.3016 552.905 46.2515 551.509 44.5899L506.733 -8.44058C505.446 -9.96857 503.753 -11.0992 501.848 -11.7006C499.943 -12.302 497.906 -12.3493 495.975 -11.837C494.044 -11.3247 492.3 -10.2741 490.944 -8.8075C489.588 -7.34092 488.676 -5.51892 488.316 -3.55413L483.371 23.0001C482.899 25.5521 481.549 27.8583 479.554 29.5188C477.559 31.1793 475.046 32.0895 472.45 32.0915H418.154C416.523 32.0902 414.913 31.7303 413.437 31.0371C411.961 30.3439 410.656 29.3346 409.614 28.0806C408.572 26.8265 407.818 25.3586 407.407 23.7808C406.995 22.2031 406.936 20.554 407.233 18.9507L425.261 -78.0382C425.686 -80.4699 425.245 -82.9738 424.015 -85.1142C422.785 -87.2545 420.843 -88.8958 418.528 -89.7524C416.212 -90.6091 413.67 -90.6268 411.343 -89.8026C409.016 -88.9783 407.053 -87.3643 405.793 -85.2413L325.02 54.9273C323.938 56.8092 323.461 58.9782 323.652 61.1406C323.844 63.303 324.695 65.3544 326.091 67.0169L370.964 120.047C372.251 121.575 373.946 122.706 375.85 123.307C377.755 123.909 379.791 123.956 381.722 123.444C383.653 122.932 385.398 121.881 386.755 120.414C388.111 118.948 389.021 117.126 389.381 115.161L393.275 94.447C393.739 91.932 395.054 89.6534 397.001 87.9943C398.947 86.3351 401.406 85.3964 403.963 85.3361H404.06Z" fill="#01307C"/>
<path d="M661.835 127.153C660.453 127.154 659.082 126.91 657.786 126.433C655.289 125.57 653.193 123.827 651.888 121.53C650.584 119.233 650.161 116.54 650.699 113.954L667.656 22.805C667.938 21.2836 667.883 19.7186 667.493 18.221C667.103 16.7234 666.389 15.3298 665.401 14.139C664.413 12.9482 663.175 11.9894 661.774 11.3305C660.374 10.6716 658.847 10.3287 657.299 10.3262H602.984C600.519 10.3257 598.132 11.1878 596.237 12.7631C594.341 14.3384 593.058 16.5274 592.607 18.9505L588.714 39.6448C588.339 41.7254 587.378 43.6559 585.945 45.21C584.511 46.764 582.665 47.877 580.622 48.4185C578.578 48.9601 576.421 48.9076 574.407 48.2674C572.392 47.6271 570.602 46.4256 569.246 44.8037L524.372 -8.22673C522.896 -9.97409 521.995 -12.1335 521.789 -14.4114C521.584 -16.6894 522.084 -18.9754 523.224 -20.9587L603.996 -161.127C605.315 -163.389 607.388 -165.114 609.853 -165.999C612.317 -166.884 615.014 -166.872 617.471 -165.966C619.927 -165.059 621.985 -163.317 623.284 -161.043C624.583 -158.77 625.04 -156.111 624.573 -153.535L606.527 -56.546C606.24 -55.0225 606.293 -53.4545 606.683 -51.954C607.072 -50.4534 607.787 -49.0573 608.779 -47.8653C609.77 -46.6733 611.012 -45.7148 612.416 -45.0582C613.821 -44.4017 615.353 -44.0632 616.903 -44.067H671.199C673.662 -44.0672 676.045 -44.9301 677.937 -46.5056C679.829 -48.0811 681.11 -50.2698 681.556 -52.6913L686.501 -79.2455C686.879 -81.3245 687.841 -83.2529 689.276 -84.8044C690.71 -86.356 692.557 -87.4665 694.6 -88.0059C696.643 -88.5452 698.797 -88.4912 700.811 -87.8499C702.824 -87.2085 704.614 -86.0067 705.969 -84.385L750.744 -31.3546C752.22 -29.6072 753.122 -27.4477 753.327 -25.1697C753.533 -22.8918 753.033 -20.6058 751.894 -18.6225L671.121 121.546C670.218 123.227 668.879 124.634 667.245 125.621C665.611 126.607 663.743 127.136 661.835 127.153ZM603.081 9.70322H657.396C659.027 9.7045 660.637 10.0645 662.113 10.7576C663.589 11.4508 664.894 12.4602 665.936 13.7142C666.978 14.9682 667.733 16.4361 668.144 18.0139C668.556 19.5917 668.614 21.2407 668.317 22.844L651.361 114.012C650.935 116.444 651.376 118.948 652.606 121.088C653.836 123.228 655.778 124.87 658.094 125.726C660.409 126.583 662.951 126.601 665.278 125.776C667.605 124.952 669.569 123.338 670.829 121.215L751.601 -18.9535C752.678 -20.8382 753.15 -23.0078 752.955 -25.1696C752.76 -27.3314 751.908 -29.3813 750.512 -31.043L705.735 -84.0734C704.445 -85.5939 702.75 -86.7176 700.847 -87.3143C698.944 -87.911 696.911 -87.9562 694.984 -87.4448C693.056 -86.9334 691.313 -85.8863 689.956 -84.4248C688.599 -82.9633 687.685 -81.1472 687.318 -79.1871L682.373 -52.6329C681.904 -50.0792 680.554 -47.7709 678.559 -46.1097C676.563 -44.4485 674.049 -43.5396 671.452 -43.5413H617.156C615.525 -43.5455 613.914 -43.9082 612.438 -44.6036C610.963 -45.299 609.657 -46.3102 608.615 -47.5656C607.573 -48.8211 606.82 -50.29 606.409 -51.8688C605.997 -53.4475 605.938 -55.0974 606.235 -56.7016L624.106 -153.593C624.531 -156.025 624.091 -158.529 622.86 -160.669C621.63 -162.81 619.689 -164.451 617.374 -165.307C615.059 -166.164 612.516 -166.182 610.189 -165.358C607.862 -164.533 605.898 -162.919 604.638 -160.796L523.866 -20.6277C522.781 -18.7466 522.302 -16.577 522.494 -14.4139C522.685 -12.2509 523.538 -10.1993 524.937 -8.53816L569.811 44.4923C571.097 46.0203 572.791 47.1509 574.696 47.7523C576.6 48.3537 578.638 48.401 580.568 47.8887C582.499 47.3764 584.244 46.3258 585.6 44.8592C586.956 43.3926 587.867 41.5706 588.227 39.6058L592.121 18.892C592.581 16.3189 593.931 13.9894 595.934 12.3099C597.938 10.6305 600.467 9.7079 603.081 9.70322Z" fill="#01307C"/>
<path d="M858.633 51.5201C857.257 51.5128 855.894 51.2624 854.605 50.7802C852.11 49.9212 850.014 48.1819 848.709 45.8883C847.405 43.5948 846.98 40.9043 847.517 38.3209L864.474 -52.8277C864.76 -54.3495 864.708 -55.9158 864.32 -57.4149C863.931 -58.914 863.217 -60.3091 862.228 -61.5007C861.239 -62.6924 859.999 -63.6513 858.597 -64.3091C857.195 -64.9669 855.667 -65.3075 854.118 -65.3066H799.802C797.338 -65.3034 794.953 -64.4398 793.059 -62.8652C791.164 -61.2905 789.879 -59.1036 789.425 -56.6823L785.532 -35.9685C785.157 -33.8879 784.197 -31.9574 782.764 -30.4034C781.33 -28.8493 779.484 -27.7362 777.441 -27.1947C775.397 -26.6531 773.241 -26.7056 771.226 -27.3458C769.211 -27.9861 767.42 -29.1876 766.064 -30.8095L721.289 -83.8399C719.813 -85.5873 718.911 -87.7468 718.705 -90.0248C718.5 -92.3027 719 -94.5887 720.14 -96.572L800.912 -236.741C802.231 -239.003 804.304 -240.727 806.768 -241.612C809.232 -242.497 811.931 -242.486 814.388 -241.579C816.844 -240.673 818.902 -238.93 820.201 -236.656C821.5 -234.383 821.957 -231.725 821.49 -229.148L803.443 -132.179C803.16 -130.656 803.215 -129.089 803.606 -127.59C803.997 -126.091 804.713 -124.696 805.703 -123.505C806.694 -122.314 807.936 -121.355 809.338 -120.698C810.741 -120.04 812.27 -119.699 813.819 -119.7H868.114C870.58 -119.696 872.969 -120.556 874.865 -122.132C876.762 -123.708 878.044 -125.899 878.491 -128.324L883.436 -154.859C883.811 -156.939 884.772 -158.87 886.206 -160.424C887.639 -161.978 889.486 -163.091 891.529 -163.633C893.573 -164.174 895.727 -164.122 897.742 -163.481C899.757 -162.841 901.548 -161.64 902.904 -160.018L947.661 -106.87C949.136 -105.119 950.037 -102.956 950.243 -100.676C950.448 -98.3948 949.947 -96.1061 948.809 -94.119L868.036 46.0496C867.101 47.7183 865.736 49.1059 864.082 50.0679C862.428 51.03 860.546 51.5314 858.633 51.5201ZM799.802 -65.9879H854.118C855.748 -65.9804 857.357 -65.6155 858.831 -64.919C860.305 -64.2225 861.609 -63.2114 862.65 -61.9568C863.692 -60.7022 864.445 -59.2346 864.858 -57.6573C865.271 -56.08 865.331 -54.4315 865.038 -52.8277L848.082 38.3404C847.663 40.7701 848.11 43.2694 849.342 45.4048C850.575 47.5403 852.516 49.1768 854.829 50.0302C857.142 50.8838 859.68 50.9004 862.004 50.0772C864.328 49.254 866.29 47.6431 867.55 45.524L948.341 -94.6446C949.418 -96.5293 949.892 -98.699 949.697 -100.861C949.502 -103.023 948.649 -105.073 947.252 -106.734L902.476 -159.765C901.189 -161.293 899.495 -162.423 897.59 -163.025C895.685 -163.626 893.648 -163.673 891.717 -163.161C889.787 -162.649 888.043 -161.598 886.687 -160.132C885.331 -158.665 884.419 -156.843 884.059 -154.878L879.115 -128.324C878.641 -125.769 877.288 -123.46 875.289 -121.799C873.291 -120.138 870.772 -119.23 868.173 -119.233H813.878C812.248 -119.234 810.637 -119.594 809.161 -120.287C807.685 -120.98 806.38 -121.989 805.338 -123.243C804.296 -124.497 803.542 -125.966 803.131 -127.543C802.719 -129.121 802.659 -130.77 802.956 -132.373L820.983 -229.382C821.401 -231.811 820.956 -234.311 819.724 -236.446C818.492 -238.582 816.55 -240.218 814.237 -241.072C811.924 -241.925 809.386 -241.942 807.063 -241.119C804.739 -240.295 802.775 -238.684 801.515 -236.565L720.724 -96.3967C719.648 -94.5121 719.175 -92.3425 719.37 -90.1807C719.565 -88.0189 720.418 -85.9688 721.815 -84.3072L766.61 -31.2379C767.896 -29.7099 769.591 -28.5791 771.496 -27.9777C773.4 -27.3763 775.438 -27.3291 777.368 -27.8413C779.299 -28.3536 781.043 -29.4043 782.399 -30.8709C783.755 -32.3375 784.666 -34.1594 785.026 -36.1242L788.92 -56.838C789.379 -59.3942 790.719 -61.709 792.707 -63.3804C794.695 -65.0518 797.205 -65.9743 799.802 -65.9879Z" fill="#01307C"/>
<path d="M818.199 279.547C816.824 279.54 815.46 279.296 814.168 278.827C811.672 277.964 809.575 276.221 808.271 273.924C806.967 271.628 806.545 268.934 807.083 266.348L824.02 175.2C824.31 173.677 824.259 172.11 823.872 170.609C823.485 169.109 822.772 167.712 821.782 166.52C820.793 165.327 819.551 164.368 818.147 163.711C816.744 163.055 815.212 162.716 813.663 162.721H759.367C756.906 162.719 754.521 163.579 752.626 165.15C750.731 166.722 749.445 168.906 748.991 171.326L745.097 192.039C744.715 194.115 743.75 196.04 742.316 197.589C740.882 199.138 739.039 200.247 736.998 200.788C734.958 201.328 732.806 201.278 730.793 200.643C728.78 200.007 726.989 198.813 725.629 197.198L680.755 144.168C679.283 142.418 678.384 140.258 678.182 137.98C677.98 135.702 678.484 133.417 679.626 131.436L760.398 -8.73273C761.708 -11.006 763.78 -12.7425 766.248 -13.635C768.715 -14.5275 771.419 -14.5185 773.881 -13.6094C776.342 -12.7004 778.403 -10.95 779.698 -8.66797C780.993 -6.38594 781.439 -3.71945 780.957 -1.14021L762.93 95.8487C762.644 97.3706 762.696 98.9368 763.084 100.436C763.472 101.935 764.186 103.33 765.175 104.522C766.164 105.713 767.405 106.672 768.807 107.33C770.209 107.988 771.737 108.328 773.286 108.328H827.602C830.065 108.324 832.451 107.461 834.345 105.886C836.24 104.312 837.525 102.125 837.978 99.7033L842.904 73.1491C843.282 71.07 844.244 69.1418 845.678 67.5902C847.113 66.0387 848.96 64.9281 851.003 64.3887C853.046 63.8493 855.201 63.9035 857.214 64.5448C859.228 65.1861 861.017 66.388 862.372 68.0097L907.245 121.021C908.717 122.774 909.614 124.938 909.816 127.219C910.018 129.499 909.515 131.787 908.374 133.772L827.602 273.941C826.691 275.64 825.334 277.06 823.678 278.048C822.021 279.035 820.127 279.554 818.199 279.547ZM759.346 162.098H813.644C815.274 162.099 816.884 162.459 818.36 163.152C819.836 163.845 821.141 164.855 822.184 166.109C823.226 167.363 823.979 168.831 824.391 170.409C824.802 171.986 824.861 173.635 824.564 175.239L807.628 266.407C807.21 268.836 807.655 271.336 808.887 273.471C810.119 275.607 812.061 277.243 814.374 278.097C816.687 278.95 819.225 278.967 821.549 278.144C823.873 277.32 825.836 275.709 827.096 273.59L907.867 133.422C908.946 131.538 909.421 129.368 909.226 127.205C909.031 125.043 908.177 122.992 906.778 121.332L862.001 68.3016C860.708 66.7828 859.011 65.6609 857.108 65.0653C855.204 64.4696 853.171 64.4247 851.243 64.9357C849.315 65.4468 847.571 66.4928 846.212 67.9531C844.854 69.4134 843.937 71.2282 843.566 73.1881L838.64 99.8786C838.16 102.431 836.804 104.735 834.807 106.395C832.81 108.054 830.296 108.965 827.699 108.97H773.385C771.753 108.966 770.142 108.603 768.666 107.908C767.19 107.212 765.885 106.201 764.843 104.946C763.801 103.69 763.049 102.221 762.637 100.643C762.226 99.0639 762.166 97.414 762.462 95.8097L780.489 -1.17919C780.915 -3.6109 780.474 -6.11471 779.244 -8.25506C778.014 -10.3954 776.073 -12.0368 773.757 -12.8934C771.442 -13.7501 768.9 -13.7678 766.573 -12.9436C764.246 -12.1193 762.281 -10.5052 761.021 -8.3822L680.25 131.786C679.165 133.669 678.687 135.84 678.882 138.004C679.077 140.167 679.936 142.218 681.34 143.876L726.116 196.906C727.405 198.433 729.1 199.562 731.006 200.162C732.911 200.762 734.949 200.809 736.88 200.297C738.812 199.785 740.557 198.736 741.915 197.271C743.273 195.805 744.188 193.984 744.552 192.02L748.445 171.306C748.893 168.736 750.23 166.405 752.223 164.722C754.216 163.038 756.738 162.109 759.346 162.098Z" fill="#01307C"/>
<path d="M1017.22 203.915C1015.84 203.917 1014.48 203.673 1013.19 203.194C1010.69 202.335 1008.6 200.596 1007.29 198.303C1005.99 196.009 1005.57 193.318 1006.1 190.735L1023.06 99.5669C1023.34 98.0438 1023.29 96.4772 1022.89 94.9782C1022.5 93.4792 1021.79 92.0845 1020.8 90.8933C1019.81 89.7022 1018.57 88.7438 1017.16 88.0862C1015.76 87.4285 1014.23 87.0877 1012.68 87.0881H958.387C955.922 87.0875 953.535 87.9497 951.64 89.525C949.744 91.1003 948.46 93.2893 948.01 95.7123L944.117 116.426C943.732 118.501 942.767 120.423 941.331 121.969C939.896 123.516 938.05 124.623 936.01 125.161C933.97 125.7 931.82 125.648 929.809 125.011C927.797 124.374 926.007 123.18 924.649 121.566L879.873 68.5351C878.4 66.7857 877.502 64.6252 877.3 62.3473C877.098 60.0694 877.602 57.7845 878.743 55.8032L959.516 -84.3654C960.827 -86.6345 962.898 -88.3676 965.362 -89.2588C967.826 -90.15 970.525 -90.142 972.984 -89.2362C975.443 -88.3304 977.504 -86.5851 978.801 -84.3083C980.099 -82.0314 980.55 -79.3695 980.075 -76.7924L962.046 20.216C961.764 21.7374 961.82 23.3024 962.21 24.8C962.6 26.2977 963.313 27.6913 964.301 28.8821C965.29 30.0729 966.528 31.0316 967.929 31.6906C969.329 32.3495 970.857 32.6923 972.404 32.6948H1026.72C1029.18 32.6954 1031.57 31.8332 1033.47 30.2579C1035.36 28.6826 1036.65 26.4936 1037.1 24.0706L1042.02 -2.4836C1042.41 -4.55795 1043.37 -6.48032 1044.81 -8.02678C1046.24 -9.57323 1048.09 -10.6801 1050.13 -11.2186C1052.17 -11.7571 1054.32 -11.7052 1056.33 -11.0686C1058.34 -10.4321 1060.13 -9.23719 1061.49 -7.62314L1106.26 45.4073C1107.74 47.1568 1108.64 49.3173 1108.84 51.5952C1109.04 53.8731 1108.54 56.158 1107.39 58.1394L1026.62 198.308C1025.71 200.008 1024.35 201.427 1022.7 202.415C1021.04 203.403 1019.15 203.921 1017.22 203.915ZM958.368 86.4846H1012.66C1014.29 86.4858 1015.9 86.8458 1017.38 87.539C1018.86 88.2321 1020.16 89.2415 1021.2 90.4955C1022.25 91.7495 1023 93.2174 1023.41 94.7952C1023.82 96.373 1023.88 98.0221 1023.59 99.6254L1006.65 190.793C1006.22 193.225 1006.66 195.729 1007.89 197.869C1009.12 200.01 1011.06 201.651 1013.38 202.508C1015.69 203.364 1018.24 203.382 1020.56 202.558C1022.89 201.734 1024.86 200.119 1026.12 197.996L1106.89 57.8278C1107.97 55.9477 1108.44 53.7803 1108.25 51.6206C1108.05 49.4609 1107.2 47.4139 1105.8 45.7578L1061.02 -7.27273C1059.73 -8.79904 1058.04 -9.92795 1056.13 -10.5282C1054.23 -11.1285 1052.19 -11.1754 1050.26 -10.6636C1048.33 -10.1517 1046.58 -9.10211 1045.22 -7.6368C1043.86 -6.17149 1042.95 -4.35074 1042.59 -2.38628L1037.66 24.1484C1037.18 26.7021 1035.83 29.0087 1033.83 30.6689C1031.83 32.3292 1029.32 33.2386 1026.72 33.2399H972.404C970.771 33.2391 969.159 32.8788 967.682 32.1845C966.204 31.4902 964.897 30.479 963.854 29.2227C962.812 27.9665 962.059 26.496 961.649 24.9158C961.239 23.3356 961.182 21.6844 961.482 20.0797L979.511 -76.9092C979.936 -79.3409 979.495 -81.8448 978.265 -83.9852C977.035 -86.1255 975.094 -87.7668 972.779 -88.6234C970.463 -89.4801 967.919 -89.4978 965.592 -88.6736C963.265 -87.8493 961.302 -86.2353 960.043 -84.1123L879.27 56.0563C878.189 57.9364 877.714 60.1037 877.909 62.2634C878.104 64.4232 878.959 66.4703 880.359 68.1264L925.135 121.157C926.425 122.683 928.122 123.812 930.027 124.412C931.933 125.013 933.969 125.06 935.9 124.548C937.831 124.036 939.578 122.986 940.936 121.521C942.294 120.056 943.209 118.235 943.573 116.27L947.466 95.5565C947.939 93.0097 949.287 90.7084 951.278 89.0515C953.269 87.3946 955.777 86.4865 958.368 86.4846Z" fill="#01307C"/>
<path d="M1214.04 128.282C1212.66 128.274 1211.3 128.03 1210.01 127.561C1207.51 126.699 1205.42 124.956 1204.11 122.659C1202.81 120.362 1202.38 117.669 1202.92 115.083L1219.86 23.9341C1220.15 22.4122 1220.09 20.8459 1219.7 19.3468C1219.32 17.8477 1218.6 16.4526 1217.61 15.261C1216.62 14.0694 1215.39 13.1105 1213.98 12.4526C1212.58 11.7948 1211.05 11.4543 1209.5 11.4552H1155.21C1152.75 11.4539 1150.36 12.3132 1148.47 13.8846C1146.57 15.456 1145.29 17.6405 1144.83 20.06L1140.94 40.7738C1140.56 42.8544 1139.6 44.785 1138.17 46.339C1136.73 47.893 1134.89 49.006 1132.84 49.5476C1130.8 50.0891 1128.65 50.0367 1126.63 49.3964C1124.62 48.7562 1122.83 47.5546 1121.47 45.9328L1076.69 -7.09769C1075.22 -8.84764 1074.32 -11.0066 1074.12 -13.2832C1073.91 -15.5599 1074.41 -17.8447 1075.55 -19.8296L1156.34 -159.998C1157.65 -162.272 1159.72 -164.008 1162.19 -164.901C1164.65 -165.793 1167.36 -165.784 1169.82 -164.875C1172.28 -163.966 1174.34 -162.216 1175.64 -159.934C1176.93 -157.652 1177.38 -154.985 1176.89 -152.406L1158.87 -55.4169C1158.58 -53.895 1158.63 -52.3288 1159.02 -50.8297C1159.41 -49.3306 1160.12 -47.9355 1161.11 -46.7439C1162.1 -45.5522 1163.34 -44.5933 1164.74 -43.9355C1166.15 -43.2777 1167.67 -42.937 1169.22 -42.938H1223.52C1225.98 -42.9366 1228.37 -43.796 1230.26 -45.3674C1232.16 -46.9388 1233.44 -49.1234 1233.9 -51.5428L1238.82 -78.0969C1239.2 -80.1775 1240.16 -82.1081 1241.59 -83.6621C1243.02 -85.2161 1244.87 -86.3292 1246.91 -86.8708C1248.96 -87.4123 1251.11 -87.3599 1253.13 -86.7196C1255.14 -86.0794 1256.93 -84.8778 1258.29 -83.256L1303.06 -30.2255C1304.54 -28.4764 1305.45 -26.3133 1305.66 -24.0313C1305.86 -21.7493 1305.36 -19.4595 1304.21 -17.4741L1223.44 122.695C1222.53 124.389 1221.17 125.804 1219.51 126.788C1217.86 127.772 1215.96 128.288 1214.04 128.282ZM1155.19 10.8323H1209.48C1211.11 10.8335 1212.72 11.1935 1214.2 11.8867C1215.68 12.5798 1216.98 13.5892 1218.02 14.8432C1219.07 16.0972 1219.82 17.5651 1220.23 19.1429C1220.64 20.7207 1220.7 22.3698 1220.4 23.9731L1203.45 115.141C1203.03 117.571 1203.48 120.07 1204.71 122.206C1205.94 124.341 1207.88 125.977 1210.19 126.831C1212.51 127.684 1215.05 127.701 1217.37 126.878C1219.69 126.055 1221.66 124.444 1222.92 122.325L1303.69 -17.844C1304.77 -19.7279 1305.24 -21.898 1305.05 -24.0604C1304.85 -26.2229 1304 -28.2731 1302.6 -29.9335L1257.82 -82.9639C1256.53 -84.4827 1254.83 -85.6048 1252.93 -86.2004C1251.03 -86.796 1248.99 -86.8409 1247.06 -86.3299C1245.14 -85.8189 1243.39 -84.7728 1242.03 -83.3125C1240.67 -81.8522 1239.76 -80.0374 1239.39 -78.0776L1234.44 -51.5234C1233.97 -48.9713 1232.62 -46.6652 1230.62 -45.0046C1228.63 -43.3441 1226.12 -42.4339 1223.52 -42.4319H1169.22C1167.59 -42.4332 1165.98 -42.7932 1164.51 -43.4863C1163.03 -44.1795 1161.73 -45.1889 1160.68 -46.4429C1159.64 -47.6969 1158.89 -49.1648 1158.48 -50.7426C1158.06 -52.3204 1158.01 -53.9694 1158.3 -55.5727L1176.33 -152.561C1176.75 -154.993 1176.31 -157.497 1175.08 -159.637C1173.85 -161.778 1171.91 -163.419 1169.6 -164.276C1167.28 -165.132 1164.74 -165.15 1162.41 -164.326C1160.09 -163.502 1158.12 -161.888 1156.86 -159.765L1076.09 -19.596C1075 -17.7149 1074.52 -15.5454 1074.72 -13.3823C1074.91 -11.2193 1075.76 -9.16771 1077.16 -7.50655L1122.03 45.524C1123.32 47.0503 1125.02 48.1792 1126.92 48.7795C1128.83 49.3798 1130.87 49.4267 1132.8 48.9148C1134.73 48.403 1136.47 47.3534 1137.83 45.8881C1139.19 44.4228 1140.11 42.602 1140.47 40.6376L1144.36 19.9237C1144.83 17.388 1146.17 15.0945 1148.14 13.4359C1150.12 11.7773 1152.61 10.8569 1155.19 10.8323Z" fill="#01307C"/>
<path d="M1412.94 52.0847C1411.57 52.0865 1410.2 51.8426 1408.91 51.3643C1406.42 50.5053 1404.32 48.766 1403.02 46.4724C1401.71 44.1788 1401.29 41.4883 1401.83 38.9049L1418.78 -52.2632C1419.07 -53.7862 1419.01 -55.3529 1418.62 -56.852C1418.23 -58.351 1417.51 -59.7456 1416.52 -60.9367C1415.53 -62.1279 1414.29 -63.0862 1412.89 -63.7439C1411.49 -64.4016 1409.95 -64.7424 1408.41 -64.742H1354.11C1351.65 -64.7456 1349.26 -63.8841 1347.37 -62.3079C1345.47 -60.7318 1344.2 -58.5409 1343.75 -56.1178L1339.86 -35.4039C1339.48 -33.3249 1338.52 -31.3966 1337.08 -29.8451C1335.65 -28.2935 1333.8 -27.1829 1331.76 -26.6435C1329.72 -26.1041 1327.56 -26.1582 1325.55 -26.7995C1323.54 -27.4408 1321.75 -28.6429 1320.39 -30.2645L1275.62 -83.295C1274.14 -85.041 1273.23 -87.2007 1273.03 -89.4793C1272.82 -91.7579 1273.33 -94.0444 1274.47 -96.0269L1355.24 -236.196C1356.55 -238.469 1358.62 -240.205 1361.09 -241.098C1363.56 -241.99 1366.26 -241.981 1368.72 -241.072C1371.18 -240.163 1373.24 -238.413 1374.54 -236.131C1375.83 -233.849 1376.28 -231.182 1375.8 -228.603L1357.77 -131.614C1357.49 -130.093 1357.54 -128.528 1357.93 -127.03C1358.32 -125.532 1359.04 -124.139 1360.02 -122.948C1361.01 -121.757 1362.25 -120.798 1363.65 -120.14C1365.05 -119.481 1366.58 -119.138 1368.13 -119.135H1422.44C1424.91 -119.135 1427.29 -119.997 1429.19 -121.572C1431.08 -123.147 1432.37 -125.336 1432.82 -127.759L1437.76 -154.294C1438.14 -156.375 1439.1 -158.305 1440.53 -159.859C1441.96 -161.413 1443.81 -162.526 1445.86 -163.068C1447.9 -163.61 1450.05 -163.557 1452.07 -162.917C1454.08 -162.277 1455.88 -161.075 1457.23 -159.453L1502.1 -106.423C1503.58 -104.675 1504.48 -102.516 1504.69 -100.238C1504.89 -97.96 1504.39 -95.674 1503.25 -93.6907L1422.46 46.4779C1421.54 48.1952 1420.17 49.6264 1418.49 50.6152C1416.81 51.604 1414.89 52.1124 1412.94 52.0847ZM1354.09 -65.3455H1408.39C1410.02 -65.3448 1411.63 -64.9844 1413.11 -64.2901C1414.59 -63.5958 1415.89 -62.5847 1416.94 -61.3284C1417.98 -60.0721 1418.73 -58.6015 1419.14 -57.0213C1419.55 -55.4411 1419.61 -53.7899 1419.31 -52.1852L1402.37 38.9632C1401.95 41.3949 1402.39 43.8989 1403.62 46.0392C1404.85 48.1796 1406.79 49.8209 1409.1 50.6776C1411.42 51.5342 1413.96 51.5519 1416.29 50.7277C1418.61 49.9035 1420.58 48.2893 1421.84 46.1664L1502.61 -94.0023C1503.69 -95.8834 1504.17 -98.0529 1503.98 -100.216C1503.79 -102.379 1502.94 -104.431 1501.54 -106.092L1456.76 -159.122C1455.47 -160.649 1453.78 -161.778 1451.87 -162.378C1449.97 -162.978 1447.93 -163.025 1446 -162.513C1444.07 -162.001 1442.32 -160.952 1440.96 -159.486C1439.61 -158.021 1438.69 -156.2 1438.33 -154.236L1433.4 -127.701C1432.93 -125.147 1431.57 -122.841 1429.57 -121.181C1427.58 -119.52 1425.06 -118.611 1422.46 -118.61H1368.15C1366.51 -118.61 1364.9 -118.971 1363.42 -119.665C1361.95 -120.359 1360.64 -121.371 1359.6 -122.627C1358.55 -123.883 1357.8 -125.354 1357.39 -126.934C1356.98 -128.514 1356.92 -130.165 1357.22 -131.77L1375.27 -228.759C1375.67 -231.181 1375.22 -233.668 1373.98 -235.791C1372.75 -237.913 1370.81 -239.541 1368.51 -240.393C1366.21 -241.245 1363.68 -241.269 1361.36 -240.46C1359.04 -239.652 1357.08 -238.061 1355.8 -235.962L1275.03 -95.7933C1273.95 -93.9094 1273.48 -91.7393 1273.67 -89.5769C1273.87 -87.4144 1274.72 -85.3641 1276.12 -83.7037L1320.9 -30.6733C1322.19 -29.1528 1323.88 -28.0292 1325.79 -27.4325C1327.69 -26.8358 1329.72 -26.7905 1331.65 -27.3019C1333.58 -27.8133 1335.32 -28.8605 1336.68 -30.322C1338.03 -31.7835 1338.95 -33.5996 1339.31 -35.5597L1343.21 -56.2735C1343.68 -58.8237 1345.03 -61.1275 1347.03 -62.7848C1349.02 -64.4421 1351.54 -65.3481 1354.13 -65.3455H1354.09Z" fill="#01307C"/>
<path d="M1173.58 356.309C1172.21 356.308 1170.85 356.064 1169.56 355.589C1167.06 354.73 1164.96 352.99 1163.66 350.697C1162.36 348.403 1161.93 345.713 1162.47 343.129L1179.42 251.961C1179.71 250.438 1179.65 248.872 1179.26 247.372C1178.87 245.873 1178.15 244.479 1177.16 243.288C1176.17 242.097 1174.93 241.138 1173.53 240.48C1172.13 239.823 1170.6 239.482 1169.05 239.482H1114.75C1112.29 239.482 1109.9 240.344 1108.01 241.919C1106.11 243.495 1104.83 245.684 1104.38 248.107L1100.48 268.82C1100.1 270.895 1099.13 272.817 1097.7 274.364C1096.26 275.91 1094.42 277.017 1092.38 277.556C1090.34 278.094 1088.19 278.042 1086.17 277.405C1084.16 276.769 1082.37 275.574 1081.01 273.96L1036.24 220.93C1034.76 219.182 1033.86 217.023 1033.65 214.745C1033.45 212.467 1033.95 210.181 1035.09 208.198L1115.86 68.029C1117.18 65.767 1119.25 64.042 1121.72 63.1571C1124.18 62.2723 1126.88 62.2841 1129.34 63.1904C1131.79 64.0968 1133.85 65.8397 1135.15 68.1131C1136.45 70.3865 1136.91 73.0449 1136.44 75.6214L1118.39 172.61C1118.1 174.133 1118.14 175.702 1118.52 177.206C1118.91 178.71 1119.61 180.11 1120.6 181.308C1121.59 182.506 1122.82 183.471 1124.23 184.135C1125.63 184.799 1127.16 185.144 1128.71 185.148H1183.01C1185.47 185.144 1187.85 184.281 1189.75 182.706C1191.64 181.131 1192.93 178.945 1193.38 176.523L1198.33 149.969C1198.7 147.885 1199.66 145.951 1201.09 144.394C1202.53 142.837 1204.37 141.723 1206.42 141.183C1208.47 140.643 1210.63 140.699 1212.64 141.345C1214.66 141.991 1216.44 143.2 1217.8 144.83L1262.57 197.86C1264.05 199.608 1264.95 201.767 1265.16 204.045C1265.36 206.323 1264.86 208.609 1263.72 210.592L1182.95 350.761C1182.03 352.441 1180.67 353.843 1179.03 354.819C1177.38 355.795 1175.5 356.31 1173.58 356.309ZM1114.75 238.859H1169.05C1170.68 238.861 1172.29 239.221 1173.77 239.914C1175.24 240.607 1176.55 241.616 1177.59 242.87C1178.64 244.123 1179.39 245.591 1179.81 247.169C1180.22 248.746 1180.28 250.396 1179.99 252L1163.03 343.168C1162.61 345.6 1163.05 348.104 1164.28 350.244C1165.51 352.385 1167.45 354.026 1169.76 354.882C1172.08 355.739 1174.62 355.757 1176.95 354.933C1179.28 354.108 1181.24 352.494 1182.5 350.371L1263.27 210.203C1264.36 208.325 1264.83 206.158 1264.64 203.999C1264.45 201.839 1263.6 199.791 1262.2 198.133L1217.43 145.102C1216.14 143.576 1214.44 142.447 1212.53 141.847C1210.63 141.246 1208.59 141.199 1206.66 141.711C1204.73 142.223 1202.98 143.273 1201.63 144.738C1200.27 146.203 1199.35 148.024 1198.99 149.989L1194.07 176.523C1193.59 179.079 1192.24 181.387 1190.24 183.048C1188.24 184.709 1185.72 185.617 1183.12 185.615H1128.83C1127.19 185.61 1125.58 185.247 1124.11 184.552C1122.63 183.857 1121.33 182.846 1120.28 181.591C1119.24 180.336 1118.48 178.868 1118.07 177.289C1117.66 175.71 1117.59 174.06 1117.89 172.454L1135.93 75.4656C1136.36 73.0339 1135.92 70.5301 1134.69 68.3897C1133.46 66.2494 1131.52 64.608 1129.2 63.7514C1126.89 62.8947 1124.34 62.877 1122.02 63.7012C1119.69 64.5255 1117.73 66.1396 1116.47 68.2626L1035.69 208.431C1034.61 210.315 1034.14 212.485 1034.34 214.648C1034.53 216.81 1035.39 218.86 1036.78 220.521L1081.66 273.551C1082.94 275.079 1084.64 276.21 1086.54 276.811C1088.45 277.413 1090.48 277.46 1092.41 276.948C1094.34 276.435 1096.09 275.385 1097.45 273.918C1098.8 272.451 1099.71 270.63 1100.07 268.665L1103.97 247.951C1104.44 245.423 1105.77 243.137 1107.74 241.48C1109.7 239.823 1112.18 238.897 1114.75 238.859Z" fill="#01307C"/>
<path d="M1372.61 280.676C1371.23 280.675 1369.87 280.432 1368.57 279.956C1366.08 279.097 1363.98 277.358 1362.68 275.064C1361.37 272.771 1360.95 270.08 1361.49 267.497L1378.45 176.329C1378.73 174.807 1378.67 173.242 1378.28 171.744C1377.89 170.247 1377.18 168.853 1376.19 167.662C1375.2 166.472 1373.96 165.513 1372.56 164.854C1371.16 164.195 1369.64 163.852 1368.09 163.85H1313.77C1311.31 163.849 1308.92 164.711 1307.03 166.287C1305.13 167.862 1303.85 170.051 1303.4 172.474L1299.5 193.188C1299.12 195.262 1298.15 197.185 1296.72 198.731C1295.28 200.277 1293.44 201.384 1291.4 201.923C1289.36 202.461 1287.21 202.409 1285.19 201.773C1283.18 201.136 1281.39 199.941 1280.04 198.327L1235.26 145.297C1233.78 143.55 1232.88 141.39 1232.68 139.112C1232.47 136.834 1232.97 134.548 1234.11 132.565L1314.88 -7.60377C1316.19 -9.88779 1318.26 -11.6357 1320.73 -12.5369C1323.2 -13.4381 1325.91 -13.4341 1328.38 -12.5259C1330.84 -11.6176 1332.91 -9.86383 1334.21 -7.57609C1335.5 -5.28835 1335.95 -2.61486 1335.46 -0.0307455L1317.41 96.9776C1317.13 98.5007 1317.19 100.067 1317.58 101.566C1317.97 103.065 1318.68 104.46 1319.67 105.651C1320.67 106.842 1321.91 107.801 1323.31 108.458C1324.71 109.116 1326.24 109.457 1327.79 109.456H1382.09C1384.55 109.461 1386.94 108.6 1388.84 107.024C1390.73 105.448 1392.02 103.257 1392.46 100.832L1397.41 74.2781C1397.78 72.199 1398.75 70.2708 1400.18 68.7192C1401.62 67.1676 1403.46 66.057 1405.51 65.5176C1407.55 64.9782 1409.7 65.0323 1411.72 65.6736C1413.73 66.3149 1415.52 67.5168 1416.87 69.1385L1461.61 122.247C1463.09 123.994 1463.99 126.154 1464.2 128.432C1464.4 130.71 1463.9 132.996 1462.76 134.979L1381.99 275.147C1381.06 276.827 1379.71 278.227 1378.06 279.2C1376.4 280.172 1374.52 280.683 1372.61 280.676ZM1313.77 163.246H1368.09C1369.72 163.25 1371.33 163.613 1372.81 164.308C1374.28 165.004 1375.59 166.015 1376.63 167.27C1377.67 168.526 1378.42 169.995 1378.84 171.574C1379.25 173.152 1379.31 174.802 1379.01 176.406L1362.05 267.555C1361.63 269.987 1362.07 272.491 1363.3 274.631C1364.53 276.771 1366.47 278.413 1368.79 279.269C1371.1 280.126 1373.64 280.144 1375.97 279.319C1378.3 278.495 1380.26 276.881 1381.52 274.758L1462.29 134.59C1463.38 132.708 1463.86 130.539 1463.66 128.376C1463.47 126.213 1462.62 124.161 1461.22 122.5L1416.45 69.4695C1415.16 67.9416 1413.46 66.8109 1411.56 66.2095C1409.66 65.6081 1407.62 65.5608 1405.69 66.073C1403.76 66.5853 1402.01 67.636 1400.66 69.1026C1399.3 70.5692 1398.39 72.3912 1398.03 74.356L1393.08 100.891C1392.61 103.446 1391.26 105.755 1389.26 107.416C1387.26 109.077 1384.74 109.985 1382.14 109.982H1327.85C1326.21 109.981 1324.6 109.62 1323.12 108.926C1321.65 108.232 1320.34 107.221 1319.29 105.965C1318.25 104.71 1317.49 103.24 1317.08 101.659C1316.67 100.079 1316.61 98.4277 1316.91 96.8219L1334.95 -0.167035C1335.38 -2.59874 1334.94 -5.10268 1333.71 -7.24303C1332.48 -9.38338 1330.54 -11.0246 1328.22 -11.8813C1325.91 -12.7379 1323.36 -12.7556 1321.04 -11.9314C1318.71 -11.1072 1316.75 -9.49314 1315.49 -7.37017L1234.7 132.798C1233.62 134.68 1233.15 136.846 1233.34 139.005C1233.54 141.163 1234.39 143.21 1235.78 144.869L1280.56 197.899C1281.85 199.427 1283.54 200.558 1285.45 201.159C1287.35 201.76 1289.39 201.808 1291.32 201.296C1293.25 200.783 1294.99 199.732 1296.35 198.266C1297.71 196.799 1298.62 194.977 1298.98 193.013L1302.87 172.318C1303.35 169.773 1304.7 167.474 1306.69 165.818C1308.68 164.161 1311.18 163.252 1313.77 163.246Z" fill="#01307C"/>
</g>
<defs>
<clipPath id="clip0_1146_21055">
<rect width="1704.43" height="1747.26" fill="white" transform="translate(-32.5654 -1390.95)"/>
</clipPath>
</defs>
</svg>
