<svg width="172" height="173" viewBox="0 0 172 173" fill="none" xmlns="http://www.w3.org/2000/svg">
<g clip-path="url(#clip0_2686_48877)">
<path d="M172 0.5H0V172.5H172V0.5Z" fill="white"/>
<path d="M25.9756 20.1572H19.6572V26.4756H25.9756V20.1572Z" fill="black"/>
<path d="M32.294 20.1572H25.9756V26.4756H32.294V20.1572Z" fill="black"/>
<path d="M38.6123 20.1572H32.294V26.4756H38.6123V20.1572Z" fill="black"/>
<path d="M44.9307 20.1572H38.6123V26.4756H44.9307V20.1572Z" fill="black"/>
<path d="M51.2491 20.1572H44.9307V26.4756H51.2491V20.1572Z" fill="black"/>
<path d="M57.5674 20.1572H51.2491V26.4756H57.5674V20.1572Z" fill="black"/>
<path d="M63.8858 20.1572H57.5674V26.4756H63.8858V20.1572Z" fill="black"/>
<path d="M76.5225 20.1572H70.2042V26.4756H76.5225V20.1572Z" fill="black"/>
<path d="M82.8409 20.1572H76.5225V26.4756H82.8409V20.1572Z" fill="black"/>
<path d="M101.796 20.1572H95.4776V26.4756H101.796V20.1572Z" fill="black"/>
<path d="M114.433 20.1572H108.114V26.4756H114.433V20.1572Z" fill="black"/>
<path d="M120.751 20.1572H114.433V26.4756H120.751V20.1572Z" fill="black"/>
<path d="M127.069 20.1572H120.751V26.4756H127.069V20.1572Z" fill="black"/>
<path d="M133.388 20.1572H127.069V26.4756H133.388V20.1572Z" fill="black"/>
<path d="M139.706 20.1572H133.388V26.4756H139.706V20.1572Z" fill="black"/>
<path d="M146.025 20.1572H139.706V26.4756H146.025V20.1572Z" fill="black"/>
<path d="M152.343 20.1572H146.025V26.4756H152.343V20.1572Z" fill="black"/>
<path d="M25.9756 26.4756H19.6572V32.794H25.9756V26.4756Z" fill="black"/>
<path d="M63.8858 26.4756H57.5674V32.794H63.8858V26.4756Z" fill="black"/>
<path d="M89.1593 26.4756H82.8409L82.8409 32.794H89.1593V26.4756Z" fill="black"/>
<path d="M101.796 26.4756H95.4776V32.794H101.796V26.4756Z" fill="black"/>
<path d="M114.433 26.4756H108.114V32.794H114.433V26.4756Z" fill="black"/>
<path d="M152.343 26.4756H146.025V32.794H152.343V26.4756Z" fill="black"/>
<path d="M25.9756 32.794H19.6572V39.1123H25.9756V32.794Z" fill="black"/>
<path d="M38.6123 32.794H32.294V39.1123H38.6123V32.794Z" fill="black"/>
<path d="M44.9307 32.794H38.6123V39.1123H44.9307V32.794Z" fill="black"/>
<path d="M51.2491 32.794H44.9307V39.1123H51.2491V32.794Z" fill="black"/>
<path d="M63.8858 32.794H57.5674V39.1123H63.8858V32.794Z" fill="black"/>
<path d="M76.5225 32.794H70.2042V39.1123H76.5225V32.794Z" fill="black"/>
<path d="M95.4776 32.794H89.1593V39.1123H95.4776V32.794Z" fill="black"/>
<path d="M114.433 32.794H108.114V39.1123H114.433V32.794Z" fill="black"/>
<path d="M127.069 32.794H120.751V39.1123H127.069V32.794Z" fill="black"/>
<path d="M133.388 32.794H127.069V39.1123H133.388V32.794Z" fill="black"/>
<path d="M139.706 32.794H133.388V39.1123H139.706V32.794Z" fill="black"/>
<path d="M152.343 32.794H146.025V39.1123H152.343V32.794Z" fill="black"/>
<path d="M25.9756 39.1123H19.6572V45.4307H25.9756V39.1123Z" fill="black"/>
<path d="M38.6123 39.1123H32.294V45.4307H38.6123V39.1123Z" fill="black"/>
<path d="M44.9307 39.1123H38.6123V45.4307H44.9307V39.1123Z" fill="black"/>
<path d="M51.2491 39.1123H44.9307V45.4307H51.2491V39.1123Z" fill="black"/>
<path d="M63.8858 39.1123H57.5674V45.4307H63.8858V39.1123Z" fill="black"/>
<path d="M82.8409 39.1123H76.5225L76.5225 45.4307H82.8409V39.1123Z" fill="black"/>
<path d="M89.1593 39.1123H82.8409V45.4307H89.1593V39.1123Z" fill="black"/>
<path d="M114.433 39.1123H108.114V45.4307H114.433V39.1123Z" fill="black"/>
<path d="M127.069 39.1123H120.751V45.4307H127.069V39.1123Z" fill="black"/>
<path d="M133.388 39.1123H127.069V45.4307H133.388V39.1123Z" fill="black"/>
<path d="M139.706 39.1123H133.388V45.4307H139.706V39.1123Z" fill="black"/>
<path d="M152.343 39.1123H146.025V45.4307H152.343V39.1123Z" fill="black"/>
<path d="M25.9756 45.4307H19.6572V51.7491H25.9756V45.4307Z" fill="black"/>
<path d="M38.6123 45.4307H32.294V51.7491H38.6123V45.4307Z" fill="black"/>
<path d="M44.9307 45.4307H38.6123V51.7491H44.9307V45.4307Z" fill="black"/>
<path d="M51.2491 45.4307H44.9307V51.7491H51.2491V45.4307Z" fill="black"/>
<path d="M63.8858 45.4307H57.5674V51.7491H63.8858V45.4307Z" fill="black"/>
<path d="M76.5225 45.4307H70.2042V51.7491H76.5225L76.5225 45.4307Z" fill="black"/>
<path d="M89.1593 45.4307H82.8409L82.8409 51.7491H89.1593V45.4307Z" fill="black"/>
<path d="M95.4776 45.4307H89.1593V51.7491H95.4776V45.4307Z" fill="black"/>
<path d="M101.796 45.4307H95.4776V51.7491H101.796V45.4307Z" fill="black"/>
<path d="M114.433 45.4307H108.114V51.7491H114.433V45.4307Z" fill="black"/>
<path d="M127.069 45.4307H120.751V51.7491H127.069V45.4307Z" fill="black"/>
<path d="M133.388 45.4307H127.069V51.7491H133.388V45.4307Z" fill="black"/>
<path d="M139.706 45.4307H133.388V51.7491H139.706V45.4307Z" fill="black"/>
<path d="M152.343 45.4307H146.025V51.7491H152.343V45.4307Z" fill="black"/>
<path d="M25.9756 51.7491H19.6572V58.0674H25.9756V51.7491Z" fill="black"/>
<path d="M63.8858 51.7491H57.5674V58.0674H63.8858V51.7491Z" fill="black"/>
<path d="M114.433 51.7491H108.114V58.0674H114.433V51.7491Z" fill="black"/>
<path d="M152.343 51.7491H146.025V58.0674H152.343V51.7491Z" fill="black"/>
<path d="M25.9756 58.0674H19.6572V64.3858H25.9756V58.0674Z" fill="black"/>
<path d="M32.294 58.0674H25.9756V64.3858H32.294V58.0674Z" fill="black"/>
<path d="M38.6123 58.0674H32.294V64.3858H38.6123V58.0674Z" fill="black"/>
<path d="M44.9307 58.0674H38.6123V64.3858H44.9307V58.0674Z" fill="black"/>
<path d="M51.2491 58.0674H44.9307V64.3858H51.2491V58.0674Z" fill="black"/>
<path d="M57.5674 58.0674H51.2491V64.3858H57.5674V58.0674Z" fill="black"/>
<path d="M63.8858 58.0674H57.5674V64.3858H63.8858V58.0674Z" fill="black"/>
<path d="M76.5225 58.0674H70.2042V64.3858H76.5225V58.0674Z" fill="black"/>
<path d="M89.1593 58.0674H82.8409V64.3858H89.1593V58.0674Z" fill="black"/>
<path d="M101.796 58.0674H95.4776V64.3858H101.796V58.0674Z" fill="black"/>
<path d="M114.433 58.0674H108.114V64.3858H114.433V58.0674Z" fill="black"/>
<path d="M120.751 58.0674H114.433V64.3858H120.751V58.0674Z" fill="black"/>
<path d="M127.069 58.0674H120.751V64.3858H127.069V58.0674Z" fill="black"/>
<path d="M133.388 58.0674H127.069V64.3858H133.388V58.0674Z" fill="black"/>
<path d="M139.706 58.0674H133.388V64.3858H139.706V58.0674Z" fill="black"/>
<path d="M146.025 58.0674H139.706V64.3858H146.025V58.0674Z" fill="black"/>
<path d="M152.343 58.0674H146.025V64.3858H152.343V58.0674Z" fill="black"/>
<path d="M89.1593 64.3858H82.8409V70.7042H89.1593V64.3858Z" fill="black"/>
<path d="M95.4776 64.3858H89.1593V70.7042H95.4776V64.3858Z" fill="black"/>
<path d="M101.796 64.3858H95.4776V70.7042H101.796V64.3858Z" fill="black"/>
<path d="M32.294 70.7042H25.9756V77.0225H32.294V70.7042Z" fill="black"/>
<path d="M51.2491 70.7042H44.9307V77.0225H51.2491V70.7042Z" fill="black"/>
<path d="M63.8858 70.7042H57.5674V77.0225H63.8858V70.7042Z" fill="black"/>
<path d="M82.8409 70.7042L76.5225 70.7042V77.0225H82.8409L82.8409 70.7042Z" fill="black"/>
<path d="M95.4776 70.7042H89.1593V77.0225H95.4776V70.7042Z" fill="black"/>
<path d="M101.796 70.7042H95.4776V77.0225H101.796V70.7042Z" fill="black"/>
<path d="M108.114 70.7042L101.796 70.7042V77.0225H108.114V70.7042Z" fill="black"/>
<path d="M127.069 70.7042H120.751V77.0225H127.069V70.7042Z" fill="black"/>
<path d="M139.706 70.7042H133.388V77.0225H139.706V70.7042Z" fill="black"/>
<path d="M152.343 70.7042H146.025V77.0225H152.343V70.7042Z" fill="black"/>
<path d="M25.9756 77.0225L19.6572 77.0225V83.3409H25.9756V77.0225Z" fill="black"/>
<path d="M38.6123 77.0225L32.294 77.0225V83.3409H38.6123V77.0225Z" fill="black"/>
<path d="M44.9307 77.0225L38.6123 77.0225V83.3409H44.9307V77.0225Z" fill="black"/>
<path d="M70.2042 77.0225L63.8858 77.0225V83.3409H70.2042V77.0225Z" fill="black"/>
<path d="M95.4776 77.0225H89.1593V83.3409H95.4776V77.0225Z" fill="black"/>
<path d="M114.433 77.0225L108.114 77.0225V83.3409H114.433V77.0225Z" fill="black"/>
<path d="M127.069 77.0225H120.751V83.3409H127.069V77.0225Z" fill="black"/>
<path d="M146.025 77.0225H139.706V83.3409H146.025V77.0225Z" fill="black"/>
<path d="M152.343 77.0225H146.025V83.3409H152.343V77.0225Z" fill="black"/>
<path d="M44.9307 83.3409H38.6123V89.6593H44.9307V83.3409Z" fill="black"/>
<path d="M51.2491 83.3409L44.9307 83.3409V89.6593H51.2491V83.3409Z" fill="black"/>
<path d="M57.5674 83.3409H51.2491V89.6593H57.5674V83.3409Z" fill="black"/>
<path d="M63.8858 83.3409L57.5674 83.3409V89.6593H63.8858V83.3409Z" fill="black"/>
<path d="M70.2042 83.3409H63.8858V89.6593H70.2042V83.3409Z" fill="black"/>
<path d="M89.1593 83.3409L82.8409 83.3409V89.6593H89.1593V83.3409Z" fill="black"/>
<path d="M108.114 83.3409L101.796 83.3409V89.6593H108.114V83.3409Z" fill="black"/>
<path d="M139.706 83.3409L133.388 83.3409V89.6593H139.706V83.3409Z" fill="black"/>
<path d="M146.025 83.3409H139.706V89.6593H146.025V83.3409Z" fill="black"/>
<path d="M25.9756 89.6593H19.6572V95.9776H25.9756V89.6593Z" fill="black"/>
<path d="M32.294 89.6593H25.9756V95.9776H32.294V89.6593Z" fill="black"/>
<path d="M38.6123 89.6593H32.294V95.9776H38.6123V89.6593Z" fill="black"/>
<path d="M44.9307 89.6593H38.6123V95.9776H44.9307V89.6593Z" fill="black"/>
<path d="M70.2042 89.6593H63.8858V95.9776H70.2042V89.6593Z" fill="black"/>
<path d="M76.5225 89.6593H70.2042V95.9776H76.5225V89.6593Z" fill="black"/>
<path d="M108.114 89.6593H101.796V95.9776H108.114V89.6593Z" fill="black"/>
<path d="M114.433 89.6593H108.114V95.9776H114.433V89.6593Z" fill="black"/>
<path d="M120.751 89.6593H114.433V95.9776H120.751V89.6593Z" fill="black"/>
<path d="M127.069 89.6593H120.751V95.9776H127.069V89.6593Z" fill="black"/>
<path d="M25.9756 95.9776H19.6572V102.296H25.9756V95.9776Z" fill="black"/>
<path d="M32.294 95.9776H25.9756V102.296H32.294V95.9776Z" fill="black"/>
<path d="M38.6123 95.9776H32.294V102.296H38.6123V95.9776Z" fill="black"/>
<path d="M51.2491 95.9776H44.9307V102.296H51.2491V95.9776Z" fill="black"/>
<path d="M57.5674 95.9776H51.2491V102.296H57.5674V95.9776Z" fill="black"/>
<path d="M63.8858 95.9776H57.5674V102.296H63.8858V95.9776Z" fill="black"/>
<path d="M70.2042 95.9776H63.8858V102.296H70.2042V95.9776Z" fill="black"/>
<path d="M89.1593 95.9776H82.8409V102.296H89.1593V95.9776Z" fill="black"/>
<path d="M101.796 95.9776H95.4776V102.296H101.796V95.9776Z" fill="black"/>
<path d="M120.751 95.9776H114.433V102.296H120.751V95.9776Z" fill="black"/>
<path d="M139.706 95.9776H133.388V102.296H139.706V95.9776Z" fill="black"/>
<path d="M152.343 95.9776H146.025V102.296H152.343V95.9776Z" fill="black"/>
<path d="M108.114 102.296H101.796V108.614H108.114V102.296Z" fill="black"/>
<path d="M114.433 102.296H108.114V108.614H114.433V102.296Z" fill="black"/>
<path d="M120.751 102.296H114.433V108.614H120.751V102.296Z" fill="black"/>
<path d="M127.069 102.296H120.751V108.614H127.069V102.296Z" fill="black"/>
<path d="M25.9756 108.614H19.6572V114.933H25.9756V108.614Z" fill="black"/>
<path d="M32.294 108.614H25.9756V114.933H32.294V108.614Z" fill="black"/>
<path d="M38.6123 108.614H32.294V114.933H38.6123V108.614Z" fill="black"/>
<path d="M44.9307 108.614H38.6123V114.933H44.9307V108.614Z" fill="black"/>
<path d="M51.2491 108.614H44.9307V114.933H51.2491V108.614Z" fill="black"/>
<path d="M57.5674 108.614H51.2491V114.933H57.5674V108.614Z" fill="black"/>
<path d="M63.8858 108.614H57.5674V114.933H63.8858V108.614Z" fill="black"/>
<path d="M82.8409 108.614H76.5225V114.933H82.8409V108.614Z" fill="black"/>
<path d="M95.4776 108.614H89.1593V114.933H95.4776V108.614Z" fill="black"/>
<path d="M101.796 108.614H95.4776V114.933H101.796V108.614Z" fill="black"/>
<path d="M114.433 108.614H108.114V114.933H114.433V108.614Z" fill="black"/>
<path d="M127.069 108.614H120.751V114.933H127.069V108.614Z" fill="black"/>
<path d="M133.388 108.614H127.069V114.933H133.388V108.614Z" fill="black"/>
<path d="M146.025 108.614H139.706V114.933H146.025V108.614Z" fill="black"/>
<path d="M152.343 108.614H146.025V114.933H152.343V108.614Z" fill="black"/>
<path d="M25.9756 114.933H19.6572V121.251H25.9756V114.933Z" fill="black"/>
<path d="M63.8858 114.933H57.5674V121.251H63.8858V114.933Z" fill="black"/>
<path d="M82.8409 114.933H76.5225V121.251H82.8409V114.933Z" fill="black"/>
<path d="M95.4776 114.933H89.1593V121.251H95.4776V114.933Z" fill="black"/>
<path d="M101.796 114.933H95.4776V121.251H101.796V114.933Z" fill="black"/>
<path d="M108.114 114.933H101.796V121.251H108.114V114.933Z" fill="black"/>
<path d="M114.433 114.933H108.114V121.251H114.433V114.933Z" fill="black"/>
<path d="M133.388 114.933H127.069V121.251H133.388V114.933Z" fill="black"/>
<path d="M139.706 114.933H133.388V121.251H139.706V114.933Z" fill="black"/>
<path d="M152.343 114.933H146.025V121.251H152.343V114.933Z" fill="black"/>
<path d="M25.9756 121.251H19.6572V127.569H25.9756V121.251Z" fill="black"/>
<path d="M38.6123 121.251H32.294V127.569H38.6123V121.251Z" fill="black"/>
<path d="M44.9307 121.251H38.6123V127.569H44.9307V121.251Z" fill="black"/>
<path d="M51.2491 121.251H44.9307V127.569H51.2491V121.251Z" fill="black"/>
<path d="M63.8858 121.251H57.5674V127.569H63.8858V121.251Z" fill="black"/>
<path d="M76.5225 121.251H70.2042V127.569H76.5225L76.5225 121.251Z" fill="black"/>
<path d="M89.1593 121.251H82.8409L82.8409 127.569H89.1593V121.251Z" fill="black"/>
<path d="M95.4776 121.251H89.1593V127.569H95.4776V121.251Z" fill="black"/>
<path d="M108.114 121.251H101.796V127.569H108.114V121.251Z" fill="black"/>
<path d="M114.433 121.251H108.114V127.569H114.433V121.251Z" fill="black"/>
<path d="M133.388 121.251H127.069V127.569H133.388V121.251Z" fill="black"/>
<path d="M139.706 121.251H133.388V127.569H139.706V121.251Z" fill="black"/>
<path d="M146.025 121.251H139.706V127.569H146.025V121.251Z" fill="black"/>
<path d="M25.9756 127.569H19.6572V133.888H25.9756V127.569Z" fill="black"/>
<path d="M38.6123 127.569H32.294V133.888H38.6123V127.569Z" fill="black"/>
<path d="M44.9307 127.569H38.6123V133.888H44.9307V127.569Z" fill="black"/>
<path d="M51.2491 127.569H44.9307V133.888H51.2491V127.569Z" fill="black"/>
<path d="M63.8858 127.569H57.5674V133.888H63.8858V127.569Z" fill="black"/>
<path d="M82.8409 127.569H76.5225L76.5225 133.888H82.8409L82.8409 127.569Z" fill="black"/>
<path d="M89.1593 127.569H82.8409L82.8409 133.888H89.1593V127.569Z" fill="black"/>
<path d="M101.796 127.569H95.4776V133.888H101.796V127.569Z" fill="black"/>
<path d="M133.388 127.569H127.069V133.888H133.388V127.569Z" fill="black"/>
<path d="M139.706 127.569H133.388V133.888H139.706V127.569Z" fill="black"/>
<path d="M25.9756 133.888H19.6572V140.206H25.9756V133.888Z" fill="black"/>
<path d="M38.6123 133.888H32.294V140.206H38.6123V133.888Z" fill="black"/>
<path d="M44.9307 133.888H38.6123V140.206H44.9307V133.888Z" fill="black"/>
<path d="M51.2491 133.888H44.9307V140.206H51.2491V133.888Z" fill="black"/>
<path d="M63.8858 133.888H57.5674V140.206H63.8858V133.888Z" fill="black"/>
<path d="M82.8409 133.888H76.5225V140.206H82.8409V133.888Z" fill="black"/>
<path d="M89.1593 133.888H82.8409V140.206H89.1593V133.888Z" fill="black"/>
<path d="M114.433 133.888H108.114V140.206H114.433V133.888Z" fill="black"/>
<path d="M25.9756 140.206H19.6572V146.525H25.9756V140.206Z" fill="black"/>
<path d="M63.8858 140.206H57.5674V146.525H63.8858V140.206Z" fill="black"/>
<path d="M76.5225 140.206H70.2042V146.525H76.5225L76.5225 140.206Z" fill="black"/>
<path d="M82.8409 140.206H76.5225L76.5225 146.525H82.8409V140.206Z" fill="black"/>
<path d="M89.1593 140.206H82.8409V146.525H89.1593V140.206Z" fill="black"/>
<path d="M95.4776 140.206H89.1593V146.525H95.4776V140.206Z" fill="black"/>
<path d="M108.114 140.206H101.796V146.525H108.114V140.206Z" fill="black"/>
<path d="M114.433 140.206H108.114V146.525H114.433V140.206Z" fill="black"/>
<path d="M127.069 140.206H120.751V146.525H127.069V140.206Z" fill="black"/>
<path d="M133.388 140.206H127.069V146.525H133.388V140.206Z" fill="black"/>
<path d="M146.025 140.206H139.706V146.525H146.025V140.206Z" fill="black"/>
<path d="M152.343 140.206H146.025V146.525H152.343V140.206Z" fill="black"/>
<path d="M25.9756 146.525H19.6572V152.843H25.9756V146.525Z" fill="black"/>
<path d="M32.294 146.525H25.9756V152.843H32.294V146.525Z" fill="black"/>
<path d="M38.6123 146.525H32.294V152.843H38.6123V146.525Z" fill="black"/>
<path d="M44.9307 146.525H38.6123V152.843H44.9307V146.525Z" fill="black"/>
<path d="M51.2491 146.525H44.9307V152.843H51.2491V146.525Z" fill="black"/>
<path d="M57.5674 146.525H51.2491V152.843H57.5674V146.525Z" fill="black"/>
<path d="M63.8858 146.525H57.5674V152.843H63.8858V146.525Z" fill="black"/>
<path d="M82.8409 146.525H76.5225L76.5225 152.843H82.8409V146.525Z" fill="black"/>
<path d="M89.1593 146.525H82.8409V152.843H89.1593V146.525Z" fill="black"/>
<path d="M95.4776 146.525H89.1593V152.843H95.4776V146.525Z" fill="black"/>
<path d="M101.796 146.525H95.4776V152.843H101.796V146.525Z" fill="black"/>
<path d="M108.114 146.525H101.796V152.843H108.114V146.525Z" fill="black"/>
<path d="M114.433 146.525H108.114V152.843H114.433V146.525Z" fill="black"/>
<path d="M120.751 146.525H114.433V152.843H120.751V146.525Z" fill="black"/>
<path d="M127.069 146.525H120.751V152.843H127.069V146.525Z" fill="black"/>
<path d="M139.706 146.525H133.388V152.843H139.706V146.525Z" fill="black"/>
<path d="M152.343 146.525H146.025V152.843H152.343V146.525Z" fill="black"/>
</g>
<rect x="0.5" y="1" width="171" height="171" rx="1.5" stroke="#BDBDBE"/>
<defs>
<clipPath id="clip0_2686_48877">
<rect y="0.5" width="172" height="172" rx="2" fill="white"/>
</clipPath>
</defs>
</svg>
