<svg width="24" height="24" viewBox="0 0 24 24" fill="none" xmlns="http://www.w3.org/2000/svg">
<path d="M5 5C4.45 5 4 5.45 4 6V21C4 22.1 4.9 23 6 23H15C15.55 23 16 22.55 16 22C16 21.45 15.55 21 15 21H6V6C6 5.45 5.55 5 5 5Z" fill="#101628"/>
<path d="M18 1H10C8.9 1 8 1.9 8 3V17C8 18.1 8.9 19 10 19H18C19.1 19 20 18.1 20 17V3C20 1.9 19.1 1 18 1ZM18 15H10V5H18V15Z" fill="#101628"/>
<path d="M12.5 10.2461H14.5V10.7861C14.5 11.2361 15.04 11.4561 15.35 11.1361L16.64 9.8461C16.84 9.6461 16.84 9.3361 16.64 9.1361L15.35 7.8461C15.2801 7.77758 15.1917 7.73108 15.0956 7.71236C14.9995 7.69364 14.9001 7.70352 14.8096 7.74079C14.7191 7.77805 14.6415 7.84106 14.5865 7.92199C14.5314 8.00293 14.5014 8.09824 14.5 8.1961V8.7361H12C11.45 8.7361 11 9.1861 11 9.7361V11.2361C11 11.6461 11.34 11.9861 11.75 11.9861C12.16 11.9861 12.5 11.6461 12.5 11.2361V10.2461Z" fill="#101628"/>
</svg>
