<svg width="32" height="33" viewBox="0 0 32 33" fill="none" xmlns="http://www.w3.org/2000/svg">
<g clip-path="url(#clip0_1181_26455)">
<path d="M16 32.3867C24.8366 32.3867 32 25.2233 32 16.3867C32 7.55016 24.8366 0.386719 16 0.386719C7.16345 0.386719 0 7.55016 0 16.3867C0 25.2233 7.16345 32.3867 16 32.3867Z" fill="#26A17B"/>
<path fill-rule="evenodd" clip-rule="evenodd" d="M17.9219 17.7697V17.7677C17.8118 17.7757 17.2449 17.8097 15.9798 17.8097C14.9699 17.8097 14.2589 17.7796 14.0089 17.7677V17.7707C10.1209 17.5997 7.21887 16.9227 7.21887 16.1127C7.21887 15.3037 10.1209 14.6267 14.0089 14.4527V17.0967C14.2628 17.1147 14.9908 17.1577 15.9969 17.1577C17.2038 17.1577 17.8089 17.1076 17.9219 17.0977V14.4547C21.8019 14.6276 24.6969 15.3047 24.6969 16.1127C24.6969 16.9227 21.8019 17.5977 17.9219 17.7697ZM17.9219 14.1796V11.8137H23.3359V8.20569H8.59487V11.8137H14.0089V14.1787C9.60888 14.3807 6.29987 15.2527 6.29987 16.2967C6.29987 17.3407 9.60888 18.2116 14.0089 18.4147V25.9967H17.9219V18.4127C22.3149 18.2107 25.6159 17.3396 25.6159 16.2967C25.6159 15.2537 22.3149 14.3827 17.9219 14.1796Z" fill="white"/>
</g>
<defs>
<clipPath id="clip0_1181_26455">
<rect width="32" height="32" fill="white" transform="translate(0 0.386719)"/>
</clipPath>
</defs>
</svg>
