<svg width="33" height="33" viewBox="0 0 33 33" fill="none" xmlns="http://www.w3.org/2000/svg">
<g clip-path="url(#clip0_1860_4769)">
<path d="M16.4661 32.0078L20.4661 26.0078H18.4661V22.0078H14.4661V26.0078H12.4661L16.4661 32.0078ZM30.4661 18.0078V2.00781H2.46606V18.0078H30.4661ZM32.4661 20.0078H0.466064V0.0078125H32.4661V20.0078Z" fill="#766534"/>
<path d="M16.4661 16.0078C15.6781 16.0078 14.8979 15.8526 14.17 15.5511C13.442 15.2496 12.7806 14.8076 12.2234 14.2505C11.6663 13.6933 11.2243 13.0319 10.9228 12.3039C10.6213 11.576 10.4661 10.7957 10.4661 10.0078C10.4661 9.21988 10.6213 8.43967 10.9228 7.71171C11.2243 6.98376 11.6663 6.32232 12.2234 5.76517C12.7806 5.20802 13.442 4.76606 14.17 4.46453C14.8979 4.16301 15.6781 4.00781 16.4661 4.00781H6.46606V6.00781H4.46606V14.0078H6.46606V16.0078H16.4661ZM22.4661 10.0078C22.4661 11.5991 21.8339 13.1252 20.7087 14.2505C19.5835 15.3757 18.0574 16.0078 16.4661 16.0078H26.4661V14.0078H28.4661V6.00781H26.4661V4.00781H16.4661C18.0574 4.00781 19.5835 4.63995 20.7087 5.76517C21.8339 6.89039 22.4661 8.41651 22.4661 10.0078Z" fill="#766534"/>
</g>
<defs>
<clipPath id="clip0_1860_4769">
<rect width="32" height="32" fill="white" transform="translate(32.4661 32.0078) rotate(-180)"/>
</clipPath>
</defs>
</svg>
